{"glyphs":{"0":{"ha":874,"x_min":42,"x_max":832,"o":"m 417 599 q 370 581 392 599 q 333 536 349 564 q 310 472 318 508 q 301 396 301 435 q 312 295 301 347 q 343 199 322 243 q 393 128 364 156 q 460 100 422 100 q 507 117 486 100 q 541 164 528 135 q 561 231 554 193 q 568 311 568 269 q 558 409 568 358 q 528 502 547 460 q 481 572 508 544 q 417 599 453 599 m 442 703 q 601 680 529 703 q 725 613 674 657 q 804 503 776 568 q 832 354 832 438 q 802 199 832 267 q 719 83 772 131 q 595 12 667 36 q 442 -12 524 -12 q 283 12 356 -12 q 156 83 210 36 q 72 198 103 129 q 42 354 42 267 q 74 508 42 442 q 162 617 107 574 q 290 681 217 660 q 442 703 363 703 z "},"1":{"ha":575,"x_min":49,"x_max":526,"o":"m 419 263 q 423 181 419 211 q 437 133 426 150 q 466 111 447 117 q 515 104 485 106 q 524 52 522 79 q 526 -4 526 25 q 471 -2 506 -3 q 399 -1 436 -1 q 331 0 363 0 l 235 0 q 167 -1 203 0 q 99 -2 132 -1 q 49 -4 67 -3 q 51 56 49 26 q 60 104 54 85 q 110 115 90 108 q 139 138 129 122 q 152 183 149 154 q 156 260 156 211 l 156 442 q 151 517 156 489 q 137 562 147 546 q 108 583 126 578 q 60 590 89 589 q 51 641 53 615 q 49 699 49 667 q 99 697 65 697 q 168 695 132 696 q 238 694 204 694 l 343 694 q 412 695 376 694 q 478 697 447 696 q 526 699 510 697 q 524 642 526 668 q 515 590 522 615 q 467 583 486 589 q 438 562 449 578 q 424 517 428 546 q 419 442 419 489 l 419 263 z "},"2":{"ha":700,"x_min":42,"x_max":665,"o":"m 381 703 q 583 658 521 703 q 646 539 646 614 q 635 476 646 504 q 599 419 624 447 q 536 363 575 392 q 440 297 497 333 q 356 243 393 268 l 325 222 l 404 222 q 466 224 443 222 q 501 234 489 226 q 519 256 514 242 q 529 293 525 269 q 596 290 561 293 q 650 281 631 288 q 653 156 650 217 q 665 57 657 96 q 633 13 656 28 q 579 -3 611 -3 q 528 -2 558 -3 q 465 -1 499 -1 q 393 0 431 0 l 319 0 q 181 -1 246 0 q 76 -3 117 -1 q 42 135 42 50 q 124 210 79 172 q 233 301 168 247 q 308 368 279 340 q 352 419 336 396 q 374 464 368 443 q 379 508 379 485 q 358 570 379 546 q 294 594 338 594 q 258 586 274 594 q 232 558 243 578 q 213 507 221 539 q 201 426 206 475 q 125 432 156 426 q 65 447 94 438 q 68 490 67 465 q 69 541 69 515 q 67 592 69 567 q 61 636 65 617 q 195 685 122 668 q 381 703 268 703 z "},"3":{"ha":714,"x_min":21,"x_max":672,"o":"m 354 694 q 428 695 389 694 q 503 697 467 696 q 572 698 540 697 q 622 700 603 699 q 647 647 638 676 q 653 586 656 618 q 540 440 600 519 q 428 289 479 360 q 672 67 672 276 q 643 -55 672 1 q 558 -151 614 -111 q 421 -215 503 -192 q 235 -237 339 -237 q 104 -222 158 -237 q 21 -183 50 -207 q 36 -131 24 -157 q 69 -86 49 -106 q 138 -116 104 -108 q 213 -124 172 -124 q 277 -115 243 -124 q 340 -87 311 -106 q 387 -37 368 -68 q 406 35 406 -7 q 381 113 406 83 q 304 143 356 143 q 276 142 285 143 q 256 138 268 142 q 228 185 238 157 q 222 240 219 213 q 322 362 276 306 q 406 472 367 418 l 304 472 q 255 469 275 472 q 220 453 235 465 q 194 421 206 442 q 171 365 183 400 q 106 371 139 365 q 51 393 74 376 q 60 468 57 432 q 66 540 64 504 q 68 615 68 576 l 68 700 q 126 698 92 699 q 198 697 160 697 q 277 695 236 696 q 354 694 318 694 z "},"4":{"ha":854,"x_min":21,"x_max":833,"o":"m 681 0 l 681 -197 q 560 -207 613 -197 q 453 -237 507 -217 q 425 -203 433 -222 q 417 -149 417 -185 l 417 0 l 376 0 q 230 -1 303 0 q 69 -10 157 -3 q 34 81 47 33 q 21 178 21 128 q 69 226 47 204 q 112 272 90 249 q 157 324 133 296 q 210 388 181 351 q 354 560 281 476 q 485 703 428 644 q 681 694 586 707 l 681 224 l 751 224 q 799 215 781 224 q 833 181 818 206 q 816 133 822 154 q 806 93 810 113 q 801 51 803 74 q 800 0 800 29 l 681 0 m 417 222 l 417 481 l 217 222 l 417 222 z "},"5":{"ha":668,"x_min":42,"x_max":633,"o":"m 140 701 q 204 698 175 699 q 265 696 233 697 q 335 694 296 694 l 428 694 q 477 715 460 694 q 494 771 494 735 q 553 781 519 779 q 614 782 586 782 q 606 653 607 722 q 604 518 604 583 q 533 476 589 476 q 339 476 421 476 q 201 471 257 475 l 186 397 q 401 349 315 378 q 539 278 488 319 q 612 183 590 236 q 633 63 633 129 q 599 -74 633 -17 q 507 -167 564 -131 q 378 -220 450 -203 q 231 -237 306 -237 q 113 -229 156 -237 q 42 -206 69 -221 q 48 -152 42 -176 q 69 -108 54 -128 q 107 -120 82 -115 q 185 -125 132 -125 q 316 -87 265 -125 q 367 18 367 -49 q 356 72 367 47 q 315 117 344 96 q 233 158 285 139 q 99 192 181 176 q 69 236 79 214 q 54 286 58 258 l 140 701 z "},"6":{"ha":817,"x_min":49,"x_max":775,"o":"m 649 785 q 485 724 550 764 q 382 628 421 685 q 333 519 350 579 q 356 528 344 524 q 489 549 419 549 q 701 479 626 549 q 775 294 775 410 q 740 144 775 204 q 653 50 706 85 q 536 1 600 15 q 413 -12 472 -12 q 262 6 329 -12 q 147 65 194 24 q 74 172 100 106 q 49 333 49 238 q 76 517 49 436 q 150 658 104 597 q 256 762 196 719 q 380 831 315 804 q 508 870 444 857 q 626 886 572 883 q 646 844 640 871 q 649 785 651 817 m 350 432 q 317 424 333 429 q 313 335 313 381 q 342 163 313 222 q 419 104 372 104 q 486 144 463 104 q 510 257 510 185 q 473 388 510 340 q 383 436 436 436 q 350 432 368 436 z "},"7":{"ha":656,"x_min":28,"x_max":628,"o":"m 397 694 q 481 695 442 694 q 551 697 521 696 q 596 697 581 697 q 620 645 613 678 q 628 585 628 613 q 574 503 600 544 q 524 422 547 461 q 485 351 501 383 q 463 296 469 318 q 442 228 451 261 q 426 147 433 194 q 416 30 419 100 q 413 -149 413 -40 q 299 -187 357 -161 q 196 -244 240 -212 q 163 -222 176 -242 q 149 -149 149 -201 q 151 -94 149 -124 q 160 -33 154 -64 q 175 29 167 -1 q 196 86 183 60 q 233 160 208 115 q 291 258 258 206 q 360 366 324 310 q 432 472 396 422 l 324 472 q 260 468 286 472 q 217 453 235 464 q 189 422 200 442 q 168 369 178 401 q 94 372 124 369 q 28 393 64 375 q 38 455 33 419 q 46 531 43 490 q 50 615 49 572 q 51 697 51 657 q 157 695 85 696 q 313 694 229 694 l 397 694 z "},"8":{"ha":811,"x_min":56,"x_max":749,"o":"m 164 428 q 182 439 172 433 q 115 499 143 465 q 64 636 64 557 q 151 817 64 749 q 406 885 238 885 q 533 873 475 885 q 632 838 590 861 q 697 780 674 814 q 721 700 721 746 q 699 619 721 657 q 640 553 676 582 q 579 517 613 532 q 681 438 642 478 q 749 263 749 365 q 657 53 749 118 q 397 -12 565 -12 q 235 3 301 -12 q 130 49 169 18 q 73 123 90 79 q 56 224 56 167 q 66 298 56 261 q 101 367 76 335 q 164 428 125 400 m 368 343 q 333 363 353 353 l 332 358 q 321 257 321 314 q 348 141 321 186 q 419 96 375 96 q 468 119 451 96 q 485 181 485 143 q 476 232 485 206 q 440 286 467 258 q 368 343 414 314 m 400 611 q 447 585 419 599 q 471 682 471 621 q 449 760 471 731 q 389 790 426 790 q 343 770 360 790 q 326 715 326 750 q 333 678 326 694 q 356 644 339 661 q 400 611 372 628 z "},"9":{"ha":810,"x_min":42,"x_max":768,"o":"m 415 33 q 478 154 457 88 q 461 149 469 151 q 328 128 397 128 q 206 148 260 128 q 117 203 153 168 q 61 288 81 239 q 42 393 42 336 q 76 546 42 486 q 163 640 110 606 q 281 689 217 675 q 404 703 344 703 q 555 685 488 703 q 669 626 622 667 q 742 518 717 585 q 768 356 768 451 q 738 168 768 251 q 658 19 708 85 q 542 -92 607 -46 q 408 -170 478 -139 q 270 -217 339 -201 q 144 -235 201 -232 q 126 -192 132 -219 q 122 -133 119 -165 q 297 -69 224 -112 q 415 33 369 -26 m 467 243 q 499 251 483 246 q 504 331 504 290 q 474 524 504 463 q 397 586 444 586 q 331 546 354 586 q 307 433 307 506 q 317 357 307 392 q 344 296 326 322 q 384 255 361 269 q 433 240 407 240 q 467 243 449 240 z "},"\u0000":{"ha":694,"x_min":0,"x_max":0,"o":""},"\r":{"ha":694,"x_min":0,"x_max":0,"o":""}," ":{"ha":278,"x_min":0,"x_max":0,"o":""},"a":{"ha":813,"x_min":35,"x_max":785,"o":"m 719 264 q 724 205 719 228 q 736 169 728 182 q 756 153 744 157 q 785 149 768 149 q 782 88 785 117 q 768 32 779 60 q 631 17 693 28 q 525 -12 568 6 q 483 13 497 -3 q 468 57 468 29 q 472 92 468 74 q 478 119 475 106 q 453 78 469 97 q 421 42 433 53 q 349 4 389 18 q 257 -10 308 -10 q 35 157 35 -10 q 81 272 35 228 q 192 343 126 317 q 331 382 258 369 q 456 401 403 394 q 449 476 456 449 q 424 524 442 504 q 392 546 411 539 q 353 553 372 553 q 283 512 306 553 q 253 401 260 471 q 169 404 204 401 q 101 419 135 407 q 103 503 104 460 q 92 599 103 546 q 226 635 150 621 q 390 649 301 649 q 562 632 501 649 q 656 579 622 615 q 680 547 668 565 q 701 503 692 529 q 715 442 710 478 q 719 356 719 406 l 719 264 m 456 313 q 328 267 364 294 q 292 200 292 240 q 307 154 292 167 q 344 142 322 142 q 383 151 364 142 q 419 180 403 161 q 445 226 435 199 q 456 289 456 253 l 456 313 z "},"à":{"ha":813,"x_min":35,"x_max":785,"o":"m 719 264 q 724 205 719 228 q 736 169 728 182 q 756 153 744 157 q 785 149 768 149 q 782 88 785 117 q 768 32 779 60 q 631 17 693 28 q 525 -12 568 6 q 483 13 497 -3 q 468 57 468 29 q 472 92 468 74 q 478 119 475 106 q 453 78 469 97 q 421 42 433 53 q 349 4 389 18 q 257 -10 308 -10 q 35 157 35 -10 q 81 272 35 228 q 192 343 126 317 q 331 382 258 369 q 456 401 403 394 q 449 476 456 449 q 424 524 442 504 q 392 546 411 539 q 353 553 372 553 q 283 512 306 553 q 253 401 260 471 q 169 404 204 401 q 101 419 135 407 q 103 503 104 460 q 92 599 103 546 q 226 635 150 621 q 390 649 301 649 q 562 632 501 649 q 656 579 622 615 q 680 547 668 565 q 701 503 692 529 q 715 442 710 478 q 719 356 719 406 l 719 264 m 456 313 q 328 267 364 294 q 292 200 292 240 q 307 154 292 167 q 344 142 322 142 q 383 151 364 142 q 419 180 403 161 q 445 226 435 199 q 456 289 456 253 l 456 313 m 453 776 q 393 758 426 764 q 311 751 360 751 q 232 856 272 806 q 129 963 192 906 q 238 995 179 983 q 357 1007 296 1007 q 399 892 372 956 q 453 776 425 829 z "},"á":{"ha":813,"x_min":35,"x_max":785,"o":"m 719 264 q 724 205 719 228 q 736 169 728 182 q 756 153 744 157 q 785 149 768 149 q 782 88 785 117 q 768 32 779 60 q 631 17 693 28 q 525 -12 568 6 q 483 13 497 -3 q 468 57 468 29 q 472 92 468 74 q 478 119 475 106 q 453 78 469 97 q 421 42 433 53 q 349 4 389 18 q 257 -10 308 -10 q 35 157 35 -10 q 81 272 35 228 q 192 343 126 317 q 331 382 258 369 q 456 401 403 394 q 449 476 456 449 q 424 524 442 504 q 392 546 411 539 q 353 553 372 553 q 283 512 306 553 q 253 401 260 471 q 169 404 204 401 q 101 419 135 407 q 103 503 104 460 q 92 599 103 546 q 226 635 150 621 q 390 649 301 649 q 562 632 501 649 q 656 579 622 615 q 680 547 668 565 q 701 503 692 529 q 715 442 710 478 q 719 356 719 406 l 719 264 m 456 313 q 328 267 364 294 q 292 200 292 240 q 307 154 292 167 q 344 142 322 142 q 383 151 364 142 q 419 180 403 161 q 445 226 435 199 q 456 289 456 253 l 456 313 m 328 775 q 379 886 360 838 q 413 992 399 935 q 478 1006 440 1001 q 554 1010 515 1010 q 601 1008 578 1010 q 643 1004 624 1007 q 543 875 589 939 q 463 747 497 811 q 387 756 425 747 q 328 775 349 764 z "},"â":{"ha":813,"x_min":35,"x_max":785,"o":"m 719 264 q 724 205 719 228 q 736 169 728 182 q 756 153 744 157 q 785 149 768 149 q 782 88 785 117 q 768 32 779 60 q 631 17 693 28 q 525 -12 568 6 q 483 13 497 -3 q 468 57 468 29 q 472 92 468 74 q 478 119 475 106 q 453 78 469 97 q 421 42 433 53 q 349 4 389 18 q 257 -10 308 -10 q 35 157 35 -10 q 81 272 35 228 q 192 343 126 317 q 331 382 258 369 q 456 401 403 394 q 449 476 456 449 q 424 524 442 504 q 392 546 411 539 q 353 553 372 553 q 283 512 306 553 q 253 401 260 471 q 169 404 204 401 q 101 419 135 407 q 103 503 104 460 q 92 599 103 546 q 226 635 150 621 q 390 649 301 649 q 562 632 501 649 q 656 579 622 615 q 680 547 668 565 q 701 503 692 529 q 715 442 710 478 q 719 356 719 406 l 719 264 m 456 313 q 328 267 364 294 q 292 200 292 240 q 307 154 292 167 q 344 142 322 142 q 383 151 364 142 q 419 180 403 161 q 445 226 435 199 q 456 289 456 253 l 456 313 m 114 806 q 237 896 174 846 q 347 994 300 946 q 404 1010 372 1004 q 468 1015 436 1015 q 566 910 511 964 q 690 797 621 856 q 639 753 668 772 q 565 726 610 735 q 476 787 525 756 q 379 842 426 818 q 336 817 360 832 q 288 788 313 803 q 240 756 264 772 q 200 726 217 740 q 144 758 167 733 q 114 806 121 782 z "},"ã":{"ha":813,"x_min":35,"x_max":785,"o":"m 719 264 q 724 205 719 228 q 736 169 728 182 q 756 153 744 157 q 785 149 768 149 q 782 88 785 117 q 768 32 779 60 q 631 17 693 28 q 525 -12 568 6 q 483 13 497 -3 q 468 57 468 29 q 472 92 468 74 q 478 119 475 106 q 453 78 469 97 q 421 42 433 53 q 349 4 389 18 q 257 -10 308 -10 q 35 157 35 -10 q 81 272 35 228 q 192 343 126 317 q 331 382 258 369 q 456 401 403 394 q 449 476 456 449 q 424 524 442 504 q 392 546 411 539 q 353 553 372 553 q 283 512 306 553 q 253 401 260 471 q 169 404 204 401 q 101 419 135 407 q 103 503 104 460 q 92 599 103 546 q 226 635 150 621 q 390 649 301 649 q 562 632 501 649 q 656 579 622 615 q 680 547 668 565 q 701 503 692 529 q 715 442 710 478 q 719 356 719 406 l 719 264 m 456 313 q 328 267 364 294 q 292 200 292 240 q 307 154 292 167 q 344 142 322 142 q 383 151 364 142 q 419 180 403 161 q 445 226 435 199 q 456 289 456 253 l 456 313 m 156 706 q 122 745 133 725 q 106 793 110 765 q 168 878 138 844 q 227 931 199 913 q 281 958 256 950 q 331 965 307 965 q 392 956 364 965 q 443 937 419 947 q 490 917 467 926 q 539 908 514 908 q 606 921 578 908 q 656 954 635 933 q 694 922 678 940 q 717 882 710 904 q 625 747 672 792 q 513 701 578 701 q 449 711 476 701 q 397 732 421 721 q 349 753 374 743 q 296 763 325 763 q 222 748 256 763 q 156 706 188 733 z "},"ä":{"ha":813,"x_min":35,"x_max":785,"o":"m 719 264 q 724 205 719 228 q 736 169 728 182 q 756 153 744 157 q 785 149 768 149 q 782 88 785 117 q 768 32 779 60 q 631 17 693 28 q 525 -12 568 6 q 483 13 497 -3 q 468 57 468 29 q 472 92 468 74 q 478 119 475 106 q 453 78 469 97 q 421 42 433 53 q 349 4 389 18 q 257 -10 308 -10 q 35 157 35 -10 q 81 272 35 228 q 192 343 126 317 q 331 382 258 369 q 456 401 403 394 q 449 476 456 449 q 424 524 442 504 q 392 546 411 539 q 353 553 372 553 q 283 512 306 553 q 253 401 260 471 q 169 404 204 401 q 101 419 135 407 q 103 503 104 460 q 92 599 103 546 q 226 635 150 621 q 390 649 301 649 q 562 632 501 649 q 656 579 622 615 q 680 547 668 565 q 701 503 692 529 q 715 442 710 478 q 719 356 719 406 l 719 264 m 456 313 q 328 267 364 294 q 292 200 292 240 q 307 154 292 167 q 344 142 322 142 q 383 151 364 142 q 419 180 403 161 q 445 226 435 199 q 456 289 456 253 l 456 313 m 232 714 q 134 747 171 714 q 97 825 97 779 q 105 872 97 850 q 128 912 113 894 q 169 940 144 929 q 228 950 193 950 q 331 915 299 950 q 363 828 363 881 q 326 747 363 779 q 232 714 289 714 m 582 950 q 678 918 640 950 q 717 839 717 886 q 710 792 717 814 q 688 752 703 769 q 648 724 672 735 q 589 714 624 714 q 483 749 518 714 q 449 839 449 783 q 485 921 449 892 q 582 950 522 950 z "},"å":{"ha":813,"x_min":35,"x_max":785,"o":"m 719 264 q 724 205 719 228 q 736 169 728 182 q 756 153 744 157 q 785 149 768 149 q 782 88 785 117 q 768 32 779 60 q 631 17 693 28 q 525 -12 568 6 q 483 13 497 -3 q 468 57 468 29 q 472 92 468 74 q 478 119 475 106 q 453 78 469 97 q 421 42 433 53 q 349 4 389 18 q 257 -10 308 -10 q 35 157 35 -10 q 81 272 35 228 q 192 343 126 317 q 331 382 258 369 q 456 401 403 394 q 449 476 456 449 q 424 524 442 504 q 392 546 411 539 q 353 553 372 553 q 283 512 306 553 q 253 401 260 471 q 169 404 204 401 q 101 419 135 407 q 103 503 104 460 q 92 599 103 546 q 226 635 150 621 q 390 649 301 649 q 562 632 501 649 q 656 579 622 615 q 680 547 668 565 q 701 503 692 529 q 715 442 710 478 q 719 356 719 406 l 719 264 m 456 313 q 328 267 364 294 q 292 200 292 240 q 307 154 292 167 q 344 142 322 142 q 383 151 364 142 q 419 180 403 161 q 445 226 435 199 q 456 289 456 253 l 456 313 m 206 871 q 261 983 206 942 q 403 1024 317 1024 q 475 1015 442 1024 q 533 990 508 1007 q 572 946 558 972 q 586 882 586 919 q 532 770 586 813 q 388 728 478 728 q 258 765 310 728 q 206 871 206 803 m 350 879 q 363 831 350 850 q 400 811 376 811 q 431 827 418 811 q 443 871 443 843 q 431 922 443 896 q 392 947 419 947 q 361 929 372 947 q 350 879 350 911 z "},"æ":{"ha":1060,"x_min":49,"x_max":1015,"o":"m 688 269 q 663 269 675 269 q 669 229 664 249 q 696 173 678 197 q 742 135 714 149 q 810 121 771 121 q 896 133 858 121 q 963 164 933 144 q 990 122 978 150 q 1000 64 1001 93 q 891 12 960 32 q 731 -8 822 -8 q 580 20 642 -8 q 479 92 518 49 q 469 104 474 97 q 443 69 458 85 q 400 33 422 47 q 353 9 378 18 q 298 -4 328 0 q 229 -8 268 -8 q 95 33 142 -8 q 49 153 49 75 q 78 257 49 215 q 159 325 108 299 q 278 364 210 351 q 407 382 339 376 l 407 417 q 389 513 407 483 q 336 543 371 543 q 283 510 300 543 q 258 400 267 476 q 178 405 224 400 q 103 425 133 410 q 104 510 106 460 q 96 606 103 561 q 222 639 163 629 q 356 649 282 649 q 496 621 443 649 q 546 582 524 607 l 549 583 q 609 622 576 607 q 677 642 642 636 q 743 649 713 649 q 881 617 828 649 q 963 541 933 586 q 1004 445 993 496 q 1015 356 1015 394 q 994 314 1008 336 q 963 275 981 292 q 876 274 922 275 q 783 273 831 274 q 688 269 736 272 m 661 367 l 706 368 q 803 369 758 369 q 787 497 803 450 q 731 543 771 543 q 678 501 694 543 q 661 383 661 458 l 661 367 m 407 261 q 407 286 407 274 q 300 258 332 278 q 267 192 267 236 q 281 142 267 158 q 319 126 296 126 q 349 134 333 126 q 378 160 364 142 q 400 210 392 179 q 407 261 406 232 z "},"b":{"ha":900,"x_min":-7,"x_max":858,"o":"m 451 -12 q 333 -6 393 -12 q 221 15 274 1 q 126 48 168 29 q 63 90 85 67 q 96 224 96 129 l 96 749 q 76 818 96 797 q -7 846 56 839 q -3 900 -7 872 q 11 950 0 928 q 110 954 63 950 q 196 965 157 958 q 265 979 235 971 q 311 996 294 988 q 347 964 335 985 q 360 907 360 943 l 360 667 q 359 625 360 643 q 357 592 358 607 q 353 564 356 578 q 349 546 351 556 q 396 594 372 576 q 469 631 422 614 q 574 649 515 649 q 685 633 633 649 q 776 583 738 617 q 836 495 814 549 q 858 368 858 442 q 829 212 858 282 q 747 92 800 142 q 619 15 694 42 q 451 -12 543 -12 m 360 133 q 392 101 375 114 q 447 86 415 86 q 497 95 471 86 q 544 131 522 104 q 579 204 565 157 q 593 328 593 251 q 588 394 593 361 q 572 453 583 426 q 539 496 560 479 q 485 513 518 513 q 439 501 461 513 q 399 465 417 490 q 371 400 382 440 q 360 301 360 360 l 360 133 z "},"c":{"ha":672,"x_min":42,"x_max":651,"o":"m 651 58 q 551 6 615 25 q 410 -12 488 -12 q 256 7 324 -12 q 140 67 188 26 q 67 169 93 107 q 42 315 42 231 q 63 438 42 378 q 128 544 85 497 q 238 620 172 592 q 393 649 304 649 q 537 635 478 649 q 644 594 596 621 q 631 513 635 556 q 626 411 626 471 q 556 392 594 396 q 481 388 517 388 q 458 508 481 468 q 400 549 436 549 q 357 532 375 549 q 326 486 339 515 q 308 418 314 457 q 301 335 301 379 q 311 256 301 294 q 342 185 321 217 q 398 135 364 154 q 481 115 432 115 q 560 124 525 115 q 619 147 594 132 q 643 109 635 132 q 651 58 651 86 z "},"ç":{"ha":672,"x_min":42,"x_max":651,"o":"m 651 58 q 551 6 615 25 q 426 -12 494 -10 l 390 -60 q 483 -107 451 -69 q 514 -192 514 -144 q 451 -299 514 -262 q 269 -336 388 -336 q 260 -301 263 -321 q 257 -265 257 -281 q 333 -250 301 -265 q 365 -204 365 -235 q 342 -167 365 -181 q 285 -153 319 -153 q 260 -87 260 -124 l 325 -7 q 256 7 289 -3 q 140 67 188 26 q 67 169 93 107 q 42 315 42 231 q 63 438 42 378 q 128 544 85 497 q 238 620 172 592 q 393 649 304 649 q 537 635 478 649 q 644 594 596 621 q 631 513 635 556 q 626 411 626 471 q 556 392 594 396 q 481 388 517 388 q 458 508 481 468 q 400 549 436 549 q 357 532 375 549 q 326 486 339 515 q 308 418 314 457 q 301 335 301 379 q 311 256 301 294 q 342 185 321 217 q 398 135 364 154 q 481 115 432 115 q 560 124 525 115 q 619 147 594 132 q 643 109 635 132 q 651 58 651 86 z "},"d":{"ha":924,"x_min":42,"x_max":903,"o":"m 451 649 q 500 646 476 649 q 540 639 518 643 l 540 749 q 520 818 540 797 q 438 846 500 839 q 441 900 438 872 q 456 950 444 928 q 554 954 507 950 q 640 965 601 958 q 709 979 679 971 q 756 996 739 988 q 792 964 779 985 q 804 907 804 943 l 804 251 q 808 201 804 221 q 823 168 813 181 q 853 149 833 156 q 903 140 872 143 q 899 86 903 113 q 885 36 896 60 q 724 22 801 33 q 592 -12 647 10 q 551 33 564 7 q 540 76 543 53 q 504 42 522 56 q 431 5 478 22 q 326 -12 385 -12 q 215 3 267 -12 q 124 53 163 19 q 64 141 86 88 q 42 268 42 194 q 71 424 42 354 q 154 544 100 494 q 284 622 208 594 q 451 649 360 649 m 529 235 q 540 333 540 275 l 540 501 q 507 533 524 522 q 453 550 485 550 q 403 541 429 550 q 356 506 378 532 q 321 432 335 479 q 307 308 307 385 q 312 242 307 275 q 328 183 317 208 q 361 140 340 157 q 415 124 382 124 q 460 135 438 124 q 501 170 483 146 q 529 235 518 194 z "},"ð":{"ha":829,"x_min":56,"x_max":782,"o":"m 261 799 q 110 835 196 822 q 116 891 110 864 q 139 938 122 918 q 414 886 294 929 l 442 876 l 621 954 q 640 899 633 931 q 646 840 646 867 q 565 811 607 826 q 615 774 592 793 q 740 606 697 703 q 782 392 782 508 q 751 209 782 285 q 667 84 719 133 q 543 12 614 35 q 392 -11 472 -11 q 135 74 214 -11 q 56 310 56 160 q 87 462 56 396 q 169 572 118 528 q 284 640 221 617 q 413 663 347 663 q 444 660 426 663 q 425 688 436 674 q 378 735 404 713 q 181 638 274 688 q 160 693 168 660 q 154 751 151 726 l 261 799 m 517 329 q 503 499 517 425 q 490 508 496 506 q 433 525 464 525 q 390 513 410 525 q 354 474 369 501 q 330 401 339 447 q 321 286 321 354 q 351 152 321 194 q 424 110 381 110 q 460 117 443 110 q 489 147 476 124 q 509 213 501 169 q 517 329 517 256 z "},"e":{"ha":757,"x_min":42,"x_max":715,"o":"m 350 253 q 311 250 331 251 q 346 176 324 208 q 494 115 392 115 q 589 130 539 115 q 669 168 639 144 q 696 131 685 158 q 707 72 707 103 q 582 11 654 35 q 419 -12 510 -12 q 244 12 315 -12 q 127 79 172 36 q 62 181 82 122 q 42 307 42 239 q 68 456 42 392 q 142 563 94 521 q 258 627 190 606 q 410 649 326 649 q 549 622 490 649 q 644 551 607 594 q 699 451 682 507 q 714 340 715 396 q 668 258 703 292 q 569 258 622 258 q 461 256 517 257 q 350 253 406 256 m 328 499 q 301 356 303 456 l 488 356 q 465 492 488 439 q 399 546 443 546 q 328 499 354 546 z "},"è":{"ha":757,"x_min":42,"x_max":715,"o":"m 350 253 q 311 250 331 251 q 346 176 324 208 q 494 115 392 115 q 589 130 539 115 q 669 168 639 144 q 696 131 685 158 q 707 72 707 103 q 582 11 654 35 q 419 -12 510 -12 q 244 12 315 -12 q 127 79 172 36 q 62 181 82 122 q 42 307 42 239 q 68 456 42 392 q 142 563 94 521 q 258 627 190 606 q 410 649 326 649 q 549 622 490 649 q 644 551 607 594 q 699 451 682 507 q 714 340 715 396 q 668 258 703 292 q 569 258 622 258 q 461 256 517 257 q 350 253 406 256 m 328 499 q 301 356 303 456 l 488 356 q 465 492 488 439 q 399 546 443 546 q 328 499 354 546 m 447 776 q 388 758 421 764 q 306 751 354 751 q 226 856 267 806 q 124 963 186 906 q 232 995 174 983 q 351 1007 290 1007 q 393 892 367 956 q 447 776 419 829 z "},"é":{"ha":757,"x_min":42,"x_max":715,"o":"m 350 253 q 311 250 331 251 q 346 176 324 208 q 494 115 392 115 q 589 130 539 115 q 669 168 639 144 q 696 131 685 158 q 707 72 707 103 q 582 11 654 35 q 419 -12 510 -12 q 244 12 315 -12 q 127 79 172 36 q 62 181 82 122 q 42 307 42 239 q 68 456 42 392 q 142 563 94 521 q 258 627 190 606 q 410 649 326 649 q 549 622 490 649 q 644 551 607 594 q 699 451 682 507 q 714 340 715 396 q 668 258 703 292 q 569 258 622 258 q 461 256 517 257 q 350 253 406 256 m 328 499 q 301 356 303 456 l 488 356 q 465 492 488 439 q 399 546 443 546 q 328 499 354 546 m 322 775 q 374 886 354 838 q 407 992 393 935 q 472 1006 435 1001 q 549 1010 510 1010 q 595 1008 572 1010 q 638 1004 618 1007 q 538 875 583 939 q 457 747 492 811 q 381 756 419 747 q 322 775 343 764 z "},"ê":{"ha":757,"x_min":42,"x_max":715,"o":"m 350 253 q 311 250 331 251 q 346 176 324 208 q 494 115 392 115 q 589 130 539 115 q 669 168 639 144 q 696 131 685 158 q 707 72 707 103 q 582 11 654 35 q 419 -12 510 -12 q 244 12 315 -12 q 127 79 172 36 q 62 181 82 122 q 42 307 42 239 q 68 456 42 392 q 142 563 94 521 q 258 627 190 606 q 410 649 326 649 q 549 622 490 649 q 644 551 607 594 q 699 451 682 507 q 714 340 715 396 q 668 258 703 292 q 569 258 622 258 q 461 256 517 257 q 350 253 406 256 m 328 499 q 301 356 303 456 l 488 356 q 465 492 488 439 q 399 546 443 546 q 328 499 354 546 m 118 806 q 241 896 178 846 q 351 994 304 946 q 408 1010 376 1004 q 472 1015 440 1015 q 570 910 515 964 q 694 797 625 856 q 643 753 672 772 q 569 726 614 735 q 480 787 529 756 q 383 842 431 818 q 340 817 364 832 q 292 788 317 803 q 244 756 268 772 q 204 726 221 740 q 148 758 171 733 q 118 806 125 782 z "},"ë":{"ha":757,"x_min":42,"x_max":715,"o":"m 350 253 q 311 250 331 251 q 346 176 324 208 q 494 115 392 115 q 589 130 539 115 q 669 168 639 144 q 696 131 685 158 q 707 72 707 103 q 582 11 654 35 q 419 -12 510 -12 q 244 12 315 -12 q 127 79 172 36 q 62 181 82 122 q 42 307 42 239 q 68 456 42 392 q 142 563 94 521 q 258 627 190 606 q 410 649 326 649 q 549 622 490 649 q 644 551 607 594 q 699 451 682 507 q 714 340 715 396 q 668 258 703 292 q 569 258 622 258 q 461 256 517 257 q 350 253 406 256 m 328 499 q 301 356 303 456 l 488 356 q 465 492 488 439 q 399 546 443 546 q 328 499 354 546 m 231 714 q 133 747 169 714 q 96 825 96 779 q 103 872 96 850 q 127 912 111 894 q 167 940 143 929 q 226 950 192 950 q 329 915 297 950 q 361 828 361 881 q 324 747 361 779 q 231 714 288 714 m 581 950 q 677 918 639 950 q 715 839 715 886 q 708 792 715 814 q 686 752 701 769 q 647 724 671 735 q 588 714 622 714 q 482 749 517 714 q 447 839 447 783 q 484 921 447 892 q 581 950 521 950 z "},"f":{"ha":611,"x_min":38,"x_max":700,"o":"m 142 622 l 142 663 q 167 810 142 747 q 240 914 193 872 q 350 976 286 956 q 490 996 414 996 q 550 992 519 996 q 609 983 581 989 q 661 968 638 976 q 700 950 685 960 q 694 904 696 929 q 691 853 692 879 q 691 802 690 826 q 693 758 692 778 q 660 749 681 753 q 616 742 639 744 q 570 740 593 740 q 528 740 547 739 q 509 851 528 811 q 461 890 490 890 q 435 883 446 890 q 418 857 425 876 q 408 802 411 838 q 406 710 406 767 l 406 622 l 568 622 q 565 557 568 589 q 554 507 563 525 q 480 503 514 507 q 406 485 446 499 l 406 274 q 413 198 406 229 q 438 147 419 167 q 484 117 456 128 q 557 104 513 107 q 567 51 565 81 q 569 -4 569 22 q 521 -2 550 -3 q 458 -1 492 -1 q 388 0 424 0 l 242 0 q 165 -1 203 0 q 95 -2 128 -1 q 39 -4 63 -3 q 41 59 39 33 q 49 104 43 85 q 94 113 76 106 q 123 136 113 119 q 138 182 133 153 q 142 260 142 211 l 142 496 q 83 509 110 506 q 38 513 57 513 q 42 572 38 542 q 57 622 46 603 l 142 622 z "},"g":{"ha":811,"x_min":28,"x_max":790,"o":"m 381 649 q 506 636 453 649 l 772 636 q 787 581 783 613 q 790 511 790 549 q 700 539 742 531 q 668 544 685 542 q 704 483 694 514 q 718 425 718 446 q 630 258 718 319 q 386 196 542 196 q 272 203 324 196 q 250 175 250 190 q 256 160 250 167 q 289 148 263 153 q 369 141 315 143 q 515 139 422 139 q 711 90 650 139 q 772 -51 772 40 q 740 -172 772 -118 q 649 -265 707 -226 q 510 -325 590 -304 q 338 -346 431 -346 q 183 -334 243 -346 q 89 -301 124 -322 q 41 -249 54 -279 q 28 -183 28 -219 q 60 -96 28 -136 q 126 -51 83 -67 q 90 -8 103 -33 q 72 81 72 28 q 106 171 72 129 q 172 231 135 207 q 133 251 151 240 q 46 425 46 307 q 131 590 46 531 q 381 649 215 649 m 376 564 q 322 527 339 564 q 306 439 306 490 q 331 329 306 365 q 396 293 356 293 q 447 325 428 293 q 467 417 467 357 q 444 522 467 481 q 376 564 422 564 m 261 -101 q 242 -99 251 -100 q 235 -110 238 -106 q 228 -150 228 -125 q 260 -216 228 -194 q 367 -237 292 -237 q 500 -214 453 -237 q 547 -153 547 -190 q 544 -135 547 -143 q 528 -122 540 -128 q 492 -115 515 -117 q 428 -112 468 -112 q 261 -101 329 -112 z "},"h":{"ha":971,"x_min":28,"x_max":936,"o":"m 861 225 q 874 130 861 156 q 921 104 886 104 q 933 56 931 81 q 936 -4 936 31 q 898 -3 921 -4 q 849 -2 875 -3 q 795 -1 822 -1 q 743 0 768 0 l 685 0 q 621 -1 653 0 q 560 -2 589 -1 q 517 -4 532 -3 q 519 52 517 25 q 531 104 521 79 q 578 133 560 104 q 597 240 597 163 l 597 336 q 576 447 597 415 q 511 479 556 479 q 465 463 486 479 q 427 419 443 447 q 403 351 411 390 q 394 264 394 311 l 394 225 q 399 165 394 189 q 413 128 404 142 q 433 109 421 114 q 460 104 444 104 q 473 53 471 78 q 475 -4 475 28 q 434 -2 460 -3 q 378 -1 408 -1 q 318 0 349 0 l 203 0 q 135 -1 169 0 q 72 -2 101 -1 q 28 -4 43 -3 q 31 56 28 28 q 42 104 35 85 q 113 130 96 104 q 131 225 131 156 l 131 763 q 107 821 128 803 q 28 846 86 839 q 31 900 28 872 q 46 950 35 928 q 144 954 97 950 q 231 965 192 958 q 299 979 269 971 q 346 996 329 988 q 382 964 369 985 q 394 907 394 943 l 394 560 q 389 521 394 543 q 378 478 385 500 q 400 525 389 504 q 432 568 413 549 q 513 622 465 601 q 619 642 561 642 q 710 629 667 642 q 788 589 754 617 q 841 518 821 561 q 861 415 861 475 l 861 225 z "},"i":{"ha":542,"x_min":38,"x_max":507,"o":"m 404 225 q 408 167 404 190 q 423 131 413 144 q 451 112 433 118 q 496 104 468 106 q 505 58 503 85 q 507 -4 507 31 q 469 -2 494 -3 q 413 -1 444 -1 q 344 0 381 0 l 200 0 q 132 -1 164 0 q 75 -2 100 -1 q 38 -4 50 -3 q 40 58 38 31 q 50 104 43 85 q 95 112 78 106 q 123 131 113 118 q 137 167 133 144 q 140 225 140 190 l 140 401 q 120 471 140 450 q 38 499 100 492 q 41 553 38 525 q 56 603 44 581 q 154 607 107 603 q 240 617 201 611 q 309 632 279 624 q 356 649 339 640 q 392 617 379 638 q 404 560 404 596 l 404 225 m 96 826 q 138 919 96 889 q 247 950 181 950 q 397 829 397 950 q 355 746 397 778 q 238 714 313 714 q 133 744 171 714 q 96 826 96 775 z "},"ì":{"ha":542,"x_min":6,"x_max":507,"o":"m 329 776 q 269 758 303 764 q 188 751 236 751 q 108 856 149 806 q 6 963 68 906 q 114 995 56 983 q 233 1007 172 1007 q 275 892 249 956 q 329 776 301 829 m 404 225 q 408 167 404 190 q 423 131 413 144 q 451 112 433 118 q 496 104 468 106 q 505 58 503 85 q 507 -4 507 31 q 469 -2 494 -3 q 413 -1 444 -1 q 344 0 381 0 l 200 0 q 132 -1 164 0 q 75 -2 100 -1 q 38 -4 50 -3 q 40 58 38 31 q 50 104 43 85 q 95 112 78 106 q 123 131 113 118 q 137 167 133 144 q 140 225 140 190 l 140 401 q 120 471 140 450 q 38 499 100 492 q 41 553 38 525 q 56 603 44 581 q 154 607 107 603 q 240 617 201 611 q 309 632 279 624 q 356 649 339 640 q 392 617 379 638 q 404 560 404 596 l 404 225 z "},"í":{"ha":542,"x_min":38,"x_max":507,"o":"m 175 764 q 226 875 207 826 q 260 981 246 924 q 325 994 288 990 q 401 999 363 999 q 448 997 425 999 q 490 993 471 996 q 390 864 436 928 q 310 736 344 800 q 234 744 272 736 q 175 764 196 753 m 404 225 q 408 167 404 190 q 423 131 413 144 q 451 112 433 118 q 496 104 468 106 q 505 58 503 85 q 507 -4 507 31 q 469 -2 494 -3 q 413 -1 444 -1 q 344 0 381 0 l 200 0 q 132 -1 164 0 q 75 -2 100 -1 q 38 -4 50 -3 q 40 58 38 31 q 50 104 43 85 q 95 112 78 106 q 123 131 113 118 q 137 167 133 144 q 140 225 140 190 l 140 401 q 120 471 140 450 q 38 499 100 492 q 41 553 38 525 q 56 603 44 581 q 154 607 107 603 q 240 617 201 611 q 309 632 279 624 q 356 649 339 640 q 392 617 379 638 q 404 560 404 596 l 404 225 z "},"î":{"ha":542,"x_min":-37,"x_max":539,"o":"m -37 806 q 85 896 22 846 q 196 994 149 946 q 253 1010 221 1004 q 317 1015 285 1015 q 415 910 360 964 q 539 797 469 856 q 488 753 517 772 q 414 726 458 735 q 324 787 374 756 q 228 842 275 818 q 185 817 208 832 q 137 788 161 803 q 89 756 113 772 q 49 726 65 740 q -8 758 15 733 q -37 806 -31 782 m 404 225 q 408 167 404 190 q 423 131 413 144 q 451 112 433 118 q 496 104 468 106 q 505 58 503 85 q 507 -4 507 31 q 469 -2 494 -3 q 413 -1 444 -1 q 344 0 381 0 l 200 0 q 132 -1 164 0 q 75 -2 100 -1 q 38 -4 50 -3 q 40 58 38 31 q 50 104 43 85 q 95 112 78 106 q 123 131 113 118 q 137 167 133 144 q 140 225 140 190 l 140 401 q 120 471 140 450 q 38 499 100 492 q 41 553 38 525 q 56 603 44 581 q 154 607 107 603 q 240 617 201 611 q 309 632 279 624 q 356 649 339 640 q 392 617 379 638 q 404 560 404 596 l 404 225 z "},"ï":{"ha":542,"x_min":-56,"x_max":564,"o":"m 79 714 q -19 747 18 714 q -56 825 -56 779 q -48 872 -56 850 q -24 912 -40 894 q 16 940 -8 929 q 75 950 40 950 q 178 915 146 950 q 210 828 210 881 q 173 747 210 779 q 79 714 136 714 m 429 950 q 526 918 488 950 q 564 839 564 886 q 557 792 564 814 q 535 752 550 769 q 495 724 519 735 q 436 714 471 714 q 331 749 365 714 q 296 839 296 783 q 333 921 296 892 q 429 950 369 950 m 404 225 q 408 167 404 190 q 423 131 413 144 q 451 112 433 118 q 496 104 468 106 q 505 58 503 85 q 507 -4 507 31 q 469 -2 494 -3 q 413 -1 444 -1 q 344 0 381 0 l 200 0 q 132 -1 164 0 q 75 -2 100 -1 q 38 -4 50 -3 q 40 58 38 31 q 50 104 43 85 q 95 112 78 106 q 123 131 113 118 q 137 167 133 144 q 140 225 140 190 l 140 401 q 120 471 140 450 q 38 499 100 492 q 41 553 38 525 q 56 603 44 581 q 154 607 107 603 q 240 617 201 611 q 309 632 279 624 q 356 649 339 640 q 392 617 379 638 q 404 560 404 596 l 404 225 z "},"ı":{"ha":554,"x_min":38,"x_max":507,"o":"m 404 225 q 408 167 404 190 q 423 131 413 144 q 451 112 433 118 q 496 104 468 106 q 505 58 503 85 q 507 -4 507 31 q 469 -2 494 -3 q 413 -1 444 -1 q 344 0 381 0 l 200 0 q 132 -1 164 0 q 75 -2 100 -1 q 38 -4 50 -3 q 40 58 38 31 q 50 104 43 85 q 95 112 78 106 q 123 131 113 118 q 137 167 133 144 q 140 225 140 190 l 140 401 q 120 471 140 450 q 38 499 100 492 q 41 553 38 525 q 56 603 44 581 q 154 607 107 603 q 240 617 201 611 q 309 632 279 624 q 356 649 339 640 q 392 617 379 638 q 404 560 404 596 l 404 225 z "},"j":{"ha":461,"x_min":21,"x_max":413,"o":"m 140 401 q 120 471 140 450 q 38 499 100 492 q 41 553 38 525 q 56 603 44 581 q 154 607 107 603 q 240 617 201 611 q 309 632 279 624 q 356 649 339 640 q 392 617 379 638 q 404 560 404 596 l 404 115 q 372 -51 404 24 q 293 -183 340 -125 q 190 -281 246 -240 q 86 -346 133 -322 q 42 -304 60 -332 q 21 -243 25 -276 q 77 -178 54 -210 q 114 -112 100 -146 q 134 -38 128 -78 q 140 51 140 1 l 140 401 m 111 826 q 153 919 111 889 q 263 950 196 950 q 413 829 413 950 q 370 746 413 778 q 253 714 328 714 q 149 744 186 714 q 111 826 111 775 z "},"ȷ":{"ha":465,"x_min":21,"x_max":404,"o":"m 140 401 q 120 471 140 450 q 38 499 100 492 q 41 553 38 525 q 56 603 44 581 q 154 607 107 603 q 240 617 201 611 q 309 632 279 624 q 356 649 339 640 q 392 617 379 638 q 404 560 404 596 l 404 115 q 372 -51 404 24 q 293 -183 340 -125 q 190 -281 246 -240 q 86 -346 133 -322 q 42 -304 60 -332 q 21 -243 25 -276 q 77 -178 54 -210 q 114 -112 100 -146 q 134 -38 128 -78 q 140 51 140 1 l 140 401 z "},"k":{"ha":919,"x_min":28,"x_max":899,"o":"m 131 749 q 110 818 131 797 q 28 846 90 839 q 31 900 28 872 q 46 950 35 928 q 144 954 97 950 q 231 965 192 958 q 299 979 269 971 q 346 996 329 988 q 382 964 369 985 q 394 907 394 943 l 394 367 l 486 447 q 527 488 518 475 q 536 508 536 500 q 529 524 536 519 q 500 532 522 529 q 485 585 489 560 q 482 639 482 611 q 520 638 494 639 q 578 637 546 638 q 646 636 610 636 l 718 636 q 789 637 757 636 q 849 639 821 638 q 845 583 849 607 q 832 532 842 558 q 778 525 801 529 q 735 511 756 521 q 694 487 714 501 q 650 449 675 472 l 599 401 q 683 318 644 360 q 804 167 747 247 q 828 135 818 147 q 847 117 838 124 q 867 108 856 111 q 899 104 879 106 q 894 51 899 79 q 879 0 890 24 q 817 -1 853 0 q 744 -3 781 -1 q 673 -6 707 -4 q 617 -12 639 -8 q 569 57 599 17 q 505 143 540 97 q 429 238 469 189 q 394 281 411 260 l 394 225 q 407 133 394 158 q 457 104 419 108 q 466 58 464 85 q 468 -4 468 31 q 438 -2 456 -3 q 389 -1 421 -1 q 321 0 357 0 l 190 0 q 122 -1 154 0 q 65 -2 90 -1 q 28 -4 40 -3 q 31 58 28 31 q 40 104 33 85 q 85 112 68 106 q 113 131 103 118 q 127 167 124 144 q 131 225 131 190 l 131 749 z "},"l":{"ha":532,"x_min":28,"x_max":497,"o":"m 131 763 q 107 821 128 803 q 28 846 86 839 q 31 900 28 872 q 46 950 35 928 q 144 954 97 950 q 231 965 192 958 q 299 979 269 971 q 346 996 329 988 q 382 964 369 985 q 394 907 394 943 l 394 225 q 399 167 394 190 q 413 131 403 144 q 441 112 424 118 q 486 104 458 106 q 495 58 493 85 q 497 -4 497 31 q 460 -2 485 -3 q 403 -1 435 -1 q 335 0 371 0 l 190 0 q 122 -1 154 0 q 65 -2 90 -1 q 28 -4 40 -3 q 31 58 28 31 q 40 104 33 85 q 85 112 68 106 q 113 131 103 118 q 127 167 124 144 q 131 225 131 190 l 131 763 z "},"m":{"ha":1433,"x_min":38,"x_max":1399,"o":"m 60 603 q 147 606 103 603 q 230 615 190 610 q 303 629 269 621 q 357 649 336 638 q 390 620 376 642 q 404 560 404 599 q 402 535 404 547 q 396 506 400 522 q 385 469 392 490 q 407 517 399 499 q 442 568 425 551 q 524 624 476 603 q 629 646 572 646 q 753 617 700 646 q 835 540 806 589 q 857 485 851 511 q 915 574 883 546 q 990 621 947 604 q 1083 638 1032 638 q 1264 581 1204 638 q 1324 393 1324 524 l 1324 292 q 1325 192 1324 229 q 1333 137 1326 156 q 1351 112 1339 118 q 1385 104 1363 106 q 1396 53 1393 81 q 1399 -4 1399 25 q 1310 -1 1361 -1 q 1204 0 1258 0 l 1144 0 q 1084 -1 1114 0 q 1026 -2 1054 -1 q 981 -4 999 -3 q 983 54 981 31 q 992 104 985 78 q 1022 113 1010 106 q 1043 138 1035 119 q 1056 190 1051 157 q 1060 278 1060 224 l 1060 340 q 1040 451 1060 422 q 988 479 1021 479 q 894 421 925 479 q 864 264 864 363 l 864 233 q 877 135 864 163 q 933 104 890 107 q 944 55 940 85 q 947 -4 947 25 q 907 -2 931 -3 q 855 -1 883 -1 q 796 0 826 0 l 736 0 q 616 -1 676 0 q 518 -4 556 -1 q 522 54 518 25 q 532 104 525 83 q 567 112 553 106 q 589 138 581 118 q 600 193 597 157 q 603 292 603 229 l 603 356 q 583 452 603 425 q 521 479 564 479 q 473 462 494 479 q 436 415 451 444 q 413 347 421 386 q 404 264 404 307 l 404 233 q 407 172 404 196 q 417 133 410 147 q 437 112 424 118 q 471 104 450 106 q 482 53 479 82 q 485 -4 485 25 q 440 -2 468 -3 q 380 -1 413 -1 q 314 0 347 0 l 197 0 q 135 -1 165 0 q 78 -2 104 -1 q 38 -4 51 -3 q 40 52 38 25 q 51 103 43 79 q 97 111 79 104 q 124 131 114 118 q 137 167 133 144 q 140 225 140 190 l 140 354 q 138 424 140 397 q 125 465 135 450 q 95 488 115 481 q 40 499 75 494 q 44 550 40 524 q 60 603 49 576 z "},"n":{"ha":981,"x_min":38,"x_max":946,"o":"m 871 225 q 883 130 871 156 q 931 104 896 104 q 943 56 940 81 q 946 -4 946 31 q 908 -3 931 -4 q 858 -2 885 -3 q 805 -1 832 -1 q 753 0 778 0 l 694 0 q 631 -1 663 0 q 570 -2 599 -1 q 526 -4 542 -3 q 528 52 526 25 q 540 104 531 79 q 588 133 569 104 q 607 240 607 163 l 607 336 q 586 447 607 415 q 521 479 565 479 q 474 463 496 479 q 437 419 453 447 q 413 351 421 390 q 404 264 404 311 l 404 225 q 409 165 404 189 q 422 128 414 142 q 442 109 431 114 q 469 104 454 104 q 483 53 481 78 q 485 -4 485 28 q 444 -2 469 -3 q 388 -1 418 -1 q 328 0 358 0 l 213 0 q 145 -1 179 0 q 82 -2 111 -1 q 38 -4 53 -3 q 41 56 38 28 q 51 104 44 85 q 123 130 106 104 q 140 225 140 156 l 140 375 q 138 431 140 408 q 125 468 135 454 q 95 489 115 482 q 42 499 75 496 q 45 553 42 525 q 60 603 49 581 q 244 617 164 603 q 357 649 324 632 q 392 617 381 638 q 404 560 404 596 q 399 521 404 543 q 388 478 394 500 q 410 525 399 504 q 442 568 422 549 q 523 622 475 601 q 629 642 571 642 q 720 629 676 642 q 797 589 764 617 q 851 518 831 561 q 871 415 871 475 l 871 225 z "},"ñ":{"ha":981,"x_min":38,"x_max":946,"o":"m 225 706 q 191 745 203 725 q 175 793 179 765 q 238 878 207 844 q 297 931 268 913 q 351 958 325 950 q 400 965 376 965 q 461 956 433 965 q 513 937 489 947 q 560 917 536 926 q 608 908 583 908 q 676 921 647 908 q 725 954 704 933 q 763 922 747 940 q 786 882 779 904 q 694 747 742 792 q 582 701 647 701 q 518 711 546 701 q 467 732 490 721 q 419 753 443 743 q 365 763 394 763 q 291 748 325 763 q 225 706 257 733 m 871 225 q 883 130 871 156 q 931 104 896 104 q 943 56 940 81 q 946 -4 946 31 q 908 -3 931 -4 q 858 -2 885 -3 q 805 -1 832 -1 q 753 0 778 0 l 694 0 q 631 -1 663 0 q 570 -2 599 -1 q 526 -4 542 -3 q 528 52 526 25 q 540 104 531 79 q 588 133 569 104 q 607 240 607 163 l 607 336 q 586 447 607 415 q 521 479 565 479 q 474 463 496 479 q 437 419 453 447 q 413 351 421 390 q 404 264 404 311 l 404 225 q 409 165 404 189 q 422 128 414 142 q 442 109 431 114 q 469 104 454 104 q 483 53 481 78 q 485 -4 485 28 q 444 -2 469 -3 q 388 -1 418 -1 q 328 0 358 0 l 213 0 q 145 -1 179 0 q 82 -2 111 -1 q 38 -4 53 -3 q 41 56 38 28 q 51 104 44 85 q 123 130 106 104 q 140 225 140 156 l 140 375 q 138 431 140 408 q 125 468 135 454 q 95 489 115 482 q 42 499 75 496 q 45 553 42 525 q 60 603 49 581 q 244 617 164 603 q 357 649 324 632 q 392 617 381 638 q 404 560 404 596 q 399 521 404 543 q 388 478 394 500 q 410 525 399 504 q 442 568 422 549 q 523 622 475 601 q 629 642 571 642 q 720 629 676 642 q 797 589 764 617 q 851 518 831 561 q 871 415 871 475 l 871 225 z "},"o":{"ha":844,"x_min":42,"x_max":803,"o":"m 306 358 q 314 256 306 304 q 339 172 322 208 q 381 115 356 136 q 440 94 407 94 q 513 149 488 94 q 539 283 539 204 q 528 401 539 351 q 498 484 517 451 q 455 533 479 517 q 406 549 431 549 q 362 533 381 549 q 331 492 343 518 q 312 432 318 467 q 306 358 306 397 m 42 306 q 72 458 42 393 q 153 565 101 522 q 276 628 206 607 q 426 649 346 649 q 593 625 522 649 q 710 558 664 601 q 780 457 757 515 q 803 329 803 399 q 699 76 803 165 q 414 -12 596 -12 q 134 73 226 -12 q 42 306 42 158 z "},"ò":{"ha":844,"x_min":42,"x_max":803,"o":"m 306 358 q 314 256 306 304 q 339 172 322 208 q 381 115 356 136 q 440 94 407 94 q 513 149 488 94 q 539 283 539 204 q 528 401 539 351 q 498 484 517 451 q 455 533 479 517 q 406 549 431 549 q 362 533 381 549 q 331 492 343 518 q 312 432 318 467 q 306 358 306 397 m 42 306 q 72 458 42 393 q 153 565 101 522 q 276 628 206 607 q 426 649 346 649 q 593 625 522 649 q 710 558 664 601 q 780 457 757 515 q 803 329 803 399 q 699 76 803 165 q 414 -12 596 -12 q 134 73 226 -12 q 42 306 42 158 m 474 776 q 414 758 447 764 q 332 751 381 751 q 253 856 293 806 q 150 963 213 906 q 258 995 200 983 q 378 1007 317 1007 q 419 892 393 956 q 474 776 446 829 z "},"ó":{"ha":844,"x_min":42,"x_max":803,"o":"m 306 358 q 314 256 306 304 q 339 172 322 208 q 381 115 356 136 q 440 94 407 94 q 513 149 488 94 q 539 283 539 204 q 528 401 539 351 q 498 484 517 451 q 455 533 479 517 q 406 549 431 549 q 362 533 381 549 q 331 492 343 518 q 312 432 318 467 q 306 358 306 397 m 42 306 q 72 458 42 393 q 153 565 101 522 q 276 628 206 607 q 426 649 346 649 q 593 625 522 649 q 710 558 664 601 q 780 457 757 515 q 803 329 803 399 q 699 76 803 165 q 414 -12 596 -12 q 134 73 226 -12 q 42 306 42 158 m 308 775 q 360 886 340 838 q 393 992 379 935 q 458 1006 421 1001 q 535 1010 496 1010 q 581 1008 558 1010 q 624 1004 604 1007 q 524 875 569 939 q 443 747 478 811 q 367 756 406 747 q 308 775 329 764 z "},"ô":{"ha":844,"x_min":42,"x_max":803,"o":"m 306 358 q 314 256 306 304 q 339 172 322 208 q 381 115 356 136 q 440 94 407 94 q 513 149 488 94 q 539 283 539 204 q 528 401 539 351 q 498 484 517 451 q 455 533 479 517 q 406 549 431 549 q 362 533 381 549 q 331 492 343 518 q 312 432 318 467 q 306 358 306 397 m 42 306 q 72 458 42 393 q 153 565 101 522 q 276 628 206 607 q 426 649 346 649 q 593 625 522 649 q 710 558 664 601 q 780 457 757 515 q 803 329 803 399 q 699 76 803 165 q 414 -12 596 -12 q 134 73 226 -12 q 42 306 42 158 m 119 806 q 242 896 179 846 q 353 994 306 946 q 410 1010 378 1004 q 474 1015 442 1015 q 572 910 517 964 q 696 797 626 856 q 644 753 674 772 q 571 726 615 735 q 481 787 531 756 q 385 842 432 818 q 342 817 365 832 q 294 788 318 803 q 246 756 269 772 q 206 726 222 740 q 149 758 172 733 q 119 806 126 782 z "},"õ":{"ha":844,"x_min":42,"x_max":803,"o":"m 306 358 q 314 256 306 304 q 339 172 322 208 q 381 115 356 136 q 440 94 407 94 q 513 149 488 94 q 539 283 539 204 q 528 401 539 351 q 498 484 517 451 q 455 533 479 517 q 406 549 431 549 q 362 533 381 549 q 331 492 343 518 q 312 432 318 467 q 306 358 306 397 m 42 306 q 72 458 42 393 q 153 565 101 522 q 276 628 206 607 q 426 649 346 649 q 593 625 522 649 q 710 558 664 601 q 780 457 757 515 q 803 329 803 399 q 699 76 803 165 q 414 -12 596 -12 q 134 73 226 -12 q 42 306 42 158 m 161 706 q 127 745 139 725 q 111 793 115 765 q 174 878 143 844 q 233 931 204 913 q 287 958 261 950 q 336 965 313 965 q 397 956 369 965 q 449 937 425 947 q 496 917 472 926 q 544 908 519 908 q 612 921 583 908 q 661 954 640 933 q 699 922 683 940 q 722 882 715 904 q 631 747 678 792 q 518 701 583 701 q 454 711 482 701 q 403 732 426 721 q 355 753 379 743 q 301 763 331 763 q 227 748 261 763 q 161 706 193 733 z "},"ö":{"ha":844,"x_min":42,"x_max":803,"o":"m 306 358 q 314 256 306 304 q 339 172 322 208 q 381 115 356 136 q 440 94 407 94 q 513 149 488 94 q 539 283 539 204 q 528 401 539 351 q 498 484 517 451 q 455 533 479 517 q 406 549 431 549 q 362 533 381 549 q 331 492 343 518 q 312 432 318 467 q 306 358 306 397 m 42 306 q 72 458 42 393 q 153 565 101 522 q 276 628 206 607 q 426 649 346 649 q 593 625 522 649 q 710 558 664 601 q 780 457 757 515 q 803 329 803 399 q 699 76 803 165 q 414 -12 596 -12 q 134 73 226 -12 q 42 306 42 158 m 242 714 q 144 747 181 714 q 107 825 107 779 q 115 872 107 850 q 138 912 122 894 q 178 940 154 929 q 238 950 203 950 q 340 915 308 950 q 372 828 372 881 q 335 747 372 779 q 242 714 299 714 m 592 950 q 688 918 650 950 q 726 839 726 886 q 719 792 726 814 q 697 752 713 769 q 658 724 682 735 q 599 714 633 714 q 493 749 528 714 q 458 839 458 783 q 495 921 458 892 q 592 950 532 950 z "},"ø":{"ha":844,"x_min":42,"x_max":803,"o":"m 42 306 q 72 458 42 393 q 153 565 101 522 q 276 628 206 607 q 426 649 346 649 q 593 625 522 649 q 600 622 596 624 l 636 669 q 717 660 676 669 q 781 636 757 651 l 715 553 q 779 457 758 511 q 803 329 803 399 q 699 76 803 165 q 414 -12 596 -12 q 256 7 324 -12 l 208 -54 q 124 -47 163 -54 q 64 -24 86 -39 l 138 69 q 133 72 136 71 q 42 306 42 158 m 306 358 q 311 271 306 313 l 488 499 q 454 532 472 521 q 406 549 431 549 q 362 533 381 549 q 331 492 343 518 q 312 432 318 467 q 306 358 306 397 m 381 115 q 440 94 407 94 q 513 149 488 94 q 539 283 539 204 q 536 343 539 315 l 367 128 q 381 115 374 121 z "},"p":{"ha":942,"x_min":35,"x_max":900,"o":"m 490 -12 q 442 -10 465 -12 q 401 -3 422 -7 l 401 -79 q 436 -193 403 -160 q 553 -232 469 -226 q 563 -285 561 -256 q 565 -340 565 -314 q 517 -338 546 -339 q 453 -337 488 -337 q 383 -336 419 -336 l 238 -336 q 161 -337 199 -336 q 91 -338 124 -337 q 35 -340 58 -339 q 37 -277 35 -303 q 44 -232 39 -251 q 90 -224 72 -231 q 119 -200 108 -217 q 133 -154 129 -183 q 138 -76 138 -125 l 138 375 q 135 431 138 408 q 122 468 132 454 q 92 489 113 482 q 39 499 72 496 q 42 553 39 525 q 57 603 46 581 q 241 617 161 603 q 354 649 321 632 q 390 617 378 638 q 401 560 401 596 q 438 594 419 581 q 510 631 464 614 q 615 649 557 649 q 727 633 675 649 q 817 583 779 617 q 878 495 856 549 q 900 368 900 442 q 871 212 900 282 q 788 92 842 142 q 658 15 733 42 q 490 -12 582 -12 m 413 401 q 401 303 401 361 l 401 133 q 433 101 417 114 q 489 86 457 86 q 538 95 513 86 q 585 131 564 104 q 621 204 607 157 q 635 328 635 251 q 630 394 635 361 q 613 453 625 428 q 581 496 601 479 q 526 513 560 513 q 481 501 503 513 q 441 466 458 490 q 413 401 424 442 z "},"þ":{"ha":918,"x_min":38,"x_max":876,"o":"m 467 -12 q 418 -10 442 -12 q 406 -7 411 -8 l 406 -37 q 413 -130 406 -94 q 435 -186 419 -165 q 476 -217 450 -207 q 543 -233 503 -228 q 552 -289 550 -265 q 554 -343 554 -312 q 509 -340 535 -342 q 454 -338 483 -339 q 395 -337 425 -337 q 338 -336 365 -336 q 245 -337 293 -336 q 156 -338 197 -337 q 82 -340 114 -339 q 38 -343 50 -342 q 47 -233 38 -282 q 93 -225 75 -232 q 122 -199 111 -218 q 138 -144 133 -179 q 142 -50 142 -108 l 142 703 q 139 767 142 742 q 126 808 136 793 q 95 831 115 824 q 40 839 75 838 q 43 897 40 871 q 54 949 46 922 q 236 964 154 951 q 372 996 318 976 q 397 966 389 985 q 406 915 406 947 l 406 679 q 404 610 406 638 q 403 586 404 597 l 414 594 q 487 631 440 614 q 592 649 533 649 q 703 633 651 649 q 794 583 756 617 q 854 495 832 549 q 876 368 876 442 q 847 212 876 282 q 764 92 818 142 q 634 15 710 42 q 467 -12 558 -12 m 417 465 q 406 446 411 457 l 406 106 l 410 101 q 465 86 433 86 q 515 95 489 86 q 562 131 540 104 q 597 204 583 157 q 611 328 611 251 q 606 394 611 361 q 590 453 601 428 q 557 496 578 479 q 503 513 536 513 q 457 501 479 513 q 417 465 435 490 z "},"q":{"ha":899,"x_min":42,"x_max":899,"o":"m 382 -233 q 460 -222 429 -231 q 508 -193 490 -212 q 533 -141 526 -174 q 539 -57 539 -108 l 539 -28 q 543 61 539 22 q 553 117 546 88 q 499 51 528 75 q 419 11 467 25 q 314 -3 372 -3 q 115 72 188 -3 q 42 278 42 146 q 72 433 42 364 q 156 549 101 501 q 285 623 210 597 q 451 649 361 649 q 672 622 574 649 q 833 546 771 594 q 819 501 825 522 q 809 454 813 481 q 804 394 806 428 q 803 313 803 360 l 803 -49 q 806 -140 803 -106 q 817 -194 808 -175 q 843 -222 826 -214 q 888 -233 860 -229 q 897 -285 894 -260 q 899 -340 899 -310 q 846 -338 876 -339 q 781 -337 815 -337 q 710 -336 746 -336 l 563 -336 q 485 -337 522 -336 q 418 -338 449 -337 q 369 -340 388 -339 q 372 -284 369 -310 q 382 -233 374 -258 m 528 231 q 539 329 539 271 l 539 500 q 506 535 528 522 q 451 549 483 549 q 396 535 422 549 q 350 493 369 522 q 319 417 331 464 q 307 304 307 371 q 335 160 307 200 q 415 119 363 119 q 460 131 438 119 q 499 167 482 142 q 528 231 517 192 z "},"r":{"ha":724,"x_min":38,"x_max":703,"o":"m 404 274 q 411 198 404 229 q 436 147 418 167 q 483 117 454 128 q 556 104 511 107 q 566 51 564 81 q 568 -4 568 22 q 519 -2 549 -3 q 456 -1 490 -1 q 386 0 422 0 l 240 0 q 164 -1 201 0 q 94 -2 126 -1 q 38 -4 61 -3 q 40 59 38 33 q 47 104 42 85 q 93 113 75 106 q 122 136 111 119 q 136 182 132 153 q 140 260 140 211 l 140 375 q 138 431 140 408 q 125 468 135 454 q 95 489 115 482 q 42 499 75 496 q 45 553 42 525 q 60 603 49 581 q 244 617 164 603 q 357 649 324 632 q 392 617 381 638 q 404 560 404 596 q 397 504 404 536 q 382 436 392 478 l 383 439 q 395 474 389 457 q 408 506 401 490 q 419 529 414 521 q 497 610 450 578 q 600 642 543 642 q 703 608 656 642 q 695 554 699 585 q 690 492 692 524 q 687 428 688 460 q 689 372 686 397 q 656 362 675 365 q 616 356 636 358 q 576 353 596 354 q 542 353 556 353 q 488 442 540 442 q 459 428 474 442 q 432 394 444 415 q 412 347 419 374 q 404 290 404 319 l 404 274 z "},"s":{"ha":685,"x_min":50,"x_max":643,"o":"m 585 608 q 592 458 581 535 q 531 435 568 443 q 454 426 493 426 q 422 508 447 475 q 340 542 397 542 q 304 529 317 542 q 292 497 292 517 q 296 474 292 485 q 314 451 300 464 q 356 424 328 439 q 431 390 383 410 q 533 342 492 365 q 598 296 574 319 q 633 246 622 272 q 643 186 643 219 q 559 37 643 86 q 319 -12 475 -12 q 238 -10 275 -12 q 169 -1 201 -7 q 108 13 138 4 q 50 33 79 22 q 56 125 57 78 q 53 206 56 172 q 118 228 78 221 q 193 236 158 236 q 231 133 200 167 q 304 99 261 99 q 351 111 332 99 q 371 149 371 124 q 366 175 371 163 q 348 199 361 188 q 311 222 335 210 q 251 247 288 233 q 174 281 210 263 q 111 324 138 299 q 70 383 85 349 q 56 464 56 417 q 132 604 56 560 q 340 649 208 649 q 480 639 424 649 q 585 608 536 629 z "},"ß":{"ha":1061,"x_min":38,"x_max":1019,"o":"m 144 494 q 95 506 128 501 q 38 511 63 511 q 40 569 38 543 q 54 622 43 594 l 144 622 l 144 663 q 244 914 144 832 q 531 996 344 996 q 688 981 622 996 q 794 940 753 965 q 856 882 836 915 q 875 814 875 849 q 849 731 875 763 q 790 679 822 700 q 732 642 758 658 q 706 604 706 626 q 728 563 706 581 q 787 527 751 544 q 863 490 822 510 q 938 439 903 469 q 997 365 974 408 q 1019 261 1019 322 q 989 139 1019 190 q 908 54 958 88 q 795 4 858 21 q 668 -12 732 -12 q 544 -4 601 -12 q 453 24 486 4 q 457 67 456 39 q 460 124 458 94 q 461 183 461 154 q 460 229 461 211 q 490 237 472 233 q 526 242 507 240 q 563 246 544 244 q 593 247 581 247 q 621 134 601 169 q 686 99 640 99 q 728 114 710 99 q 746 157 746 129 q 724 217 746 192 q 671 263 703 242 q 601 306 639 285 q 531 353 563 326 q 477 414 499 379 q 456 499 456 449 q 469 565 456 539 q 504 608 483 590 q 549 638 525 625 q 593 669 572 651 q 628 710 614 686 q 642 775 642 735 q 606 859 642 824 q 503 894 569 894 q 460 889 478 894 q 431 865 443 883 q 414 813 419 847 q 408 721 408 778 l 408 -1 q 365 -1 388 -1 q 322 0 343 0 l 256 0 q 42 -4 118 0 q 44 53 42 26 q 54 104 47 81 q 99 112 82 106 q 127 134 117 118 q 141 177 138 150 q 144 247 144 204 l 144 494 z "},"t":{"ha":554,"x_min":7,"x_max":540,"o":"m 111 622 l 111 782 q 234 811 174 789 q 331 861 294 833 q 365 831 356 850 q 375 764 375 811 l 375 622 l 538 622 q 534 560 538 586 q 524 511 531 535 q 375 486 439 511 l 375 258 q 378 181 375 210 q 390 135 382 151 q 410 114 397 119 q 440 108 422 108 q 479 113 457 108 q 519 124 501 117 q 535 86 529 110 q 540 35 540 63 q 453 1 510 14 q 335 -12 397 -12 q 167 44 224 -12 q 111 242 111 101 l 111 496 q 64 509 89 506 q 7 513 39 513 q 11 570 7 544 q 26 622 15 596 l 111 622 z "},"u":{"ha":921,"x_min":21,"x_max":900,"o":"m 544 382 q 541 438 544 415 q 526 475 538 461 q 496 496 515 489 q 446 506 476 503 q 449 560 446 532 q 464 610 453 588 q 648 621 568 610 q 761 649 728 632 q 797 617 785 638 q 808 560 808 596 l 808 272 q 811 206 808 231 q 824 168 814 182 q 851 149 833 154 q 900 140 869 143 q 897 86 900 113 q 882 36 893 60 q 742 22 799 33 q 629 -12 685 10 q 590 33 601 7 q 578 92 578 60 q 579 115 578 103 q 582 126 581 121 q 524 50 561 79 q 442 6 489 22 q 333 -10 396 -10 q 235 3 278 -10 q 165 47 193 17 q 122 126 136 76 q 107 251 107 176 l 107 375 q 104 431 107 408 q 92 468 101 454 q 67 489 83 482 q 21 499 50 496 q 24 553 21 525 q 39 603 28 581 q 217 617 143 603 q 324 649 290 632 q 359 617 347 638 q 371 560 371 596 l 371 288 q 375 208 371 239 q 387 161 379 178 q 407 139 394 144 q 436 133 419 133 q 474 146 454 133 q 509 184 493 158 q 535 249 525 210 q 544 342 544 288 l 544 382 z "},"ù":{"ha":957,"x_min":43,"x_max":922,"o":"m 518 776 q 458 758 492 764 q 376 751 425 751 q 297 856 338 806 q 194 963 257 906 q 303 995 244 983 q 422 1007 361 1007 q 464 892 438 956 q 518 776 490 829 m 567 382 q 563 438 567 415 q 549 475 560 461 q 518 496 538 489 q 468 506 499 503 q 472 560 468 532 q 486 610 475 588 q 670 621 590 610 q 783 649 750 632 q 819 617 807 638 q 831 560 831 596 l 831 272 q 833 206 831 231 q 846 168 836 182 q 874 149 856 154 q 922 140 892 143 q 919 86 922 113 q 904 36 915 60 q 764 22 821 33 q 651 -12 707 10 q 612 33 624 7 q 600 92 600 60 q 601 115 600 103 q 604 126 603 121 q 546 50 583 79 q 465 6 511 22 q 356 -10 418 -10 q 258 3 300 -10 q 187 47 215 17 q 144 126 158 76 q 129 251 129 176 l 129 375 q 126 431 129 408 q 115 468 124 454 q 89 489 106 482 q 43 499 72 496 q 47 553 43 525 q 61 603 50 581 q 239 617 165 603 q 346 649 313 632 q 381 617 369 638 q 393 560 393 596 l 393 288 q 397 208 393 239 q 409 161 401 178 q 429 139 417 144 q 458 133 442 133 q 496 146 476 133 q 531 184 515 158 q 557 249 547 210 q 567 342 567 288 l 567 382 z "},"ú":{"ha":957,"x_min":43,"x_max":922,"o":"m 350 775 q 401 886 382 838 q 435 992 421 935 q 500 1006 463 1001 q 576 1010 538 1010 q 623 1008 600 1010 q 665 1004 646 1007 q 565 875 611 939 q 485 747 519 811 q 409 756 447 747 q 350 775 371 764 m 567 382 q 563 438 567 415 q 549 475 560 461 q 518 496 538 489 q 468 506 499 503 q 472 560 468 532 q 486 610 475 588 q 670 621 590 610 q 783 649 750 632 q 819 617 807 638 q 831 560 831 596 l 831 272 q 833 206 831 231 q 846 168 836 182 q 874 149 856 154 q 922 140 892 143 q 919 86 922 113 q 904 36 915 60 q 764 22 821 33 q 651 -12 707 10 q 612 33 624 7 q 600 92 600 60 q 601 115 600 103 q 604 126 603 121 q 546 50 583 79 q 465 6 511 22 q 356 -10 418 -10 q 258 3 300 -10 q 187 47 215 17 q 144 126 158 76 q 129 251 129 176 l 129 375 q 126 431 129 408 q 115 468 124 454 q 89 489 106 482 q 43 499 72 496 q 47 553 43 525 q 61 603 50 581 q 239 617 165 603 q 346 649 313 632 q 381 617 369 638 q 393 560 393 596 l 393 288 q 397 208 393 239 q 409 161 401 178 q 429 139 417 144 q 458 133 442 133 q 496 146 476 133 q 531 184 515 158 q 557 249 547 210 q 567 342 567 288 l 567 382 z "},"û":{"ha":957,"x_min":43,"x_max":922,"o":"m 178 806 q 301 896 238 846 q 411 994 364 946 q 468 1010 436 1004 q 532 1015 500 1015 q 630 910 575 964 q 754 797 685 856 q 703 753 732 772 q 629 726 674 735 q 540 787 589 756 q 443 842 490 818 q 400 817 424 832 q 352 788 376 803 q 304 756 328 772 q 264 726 281 740 q 208 758 231 733 q 178 806 185 782 m 567 382 q 563 438 567 415 q 549 475 560 461 q 518 496 538 489 q 468 506 499 503 q 472 560 468 532 q 486 610 475 588 q 670 621 590 610 q 783 649 750 632 q 819 617 807 638 q 831 560 831 596 l 831 272 q 833 206 831 231 q 846 168 836 182 q 874 149 856 154 q 922 140 892 143 q 919 86 922 113 q 904 36 915 60 q 764 22 821 33 q 651 -12 707 10 q 612 33 624 7 q 600 92 600 60 q 601 115 600 103 q 604 126 603 121 q 546 50 583 79 q 465 6 511 22 q 356 -10 418 -10 q 258 3 300 -10 q 187 47 215 17 q 144 126 158 76 q 129 251 129 176 l 129 375 q 126 431 129 408 q 115 468 124 454 q 89 489 106 482 q 43 499 72 496 q 47 553 43 525 q 61 603 50 581 q 239 617 165 603 q 346 649 313 632 q 381 617 369 638 q 393 560 393 596 l 393 288 q 397 208 393 239 q 409 161 401 178 q 429 139 417 144 q 458 133 442 133 q 496 146 476 133 q 531 184 515 158 q 557 249 547 210 q 567 342 567 288 l 567 382 z "},"ü":{"ha":921,"x_min":21,"x_max":900,"o":"m 264 714 q 166 747 203 714 q 129 825 129 779 q 137 872 129 850 q 160 912 144 894 q 201 940 176 929 q 260 950 225 950 q 363 915 331 950 q 394 828 394 881 q 358 747 394 779 q 264 714 321 714 m 614 950 q 710 918 672 950 q 749 839 749 886 q 742 792 749 814 q 719 752 735 769 q 680 724 704 735 q 621 714 656 714 q 515 749 550 714 q 481 839 481 783 q 517 921 481 892 q 614 950 554 950 m 544 382 q 541 438 544 415 q 526 475 538 461 q 496 496 515 489 q 446 506 476 503 q 449 560 446 532 q 464 610 453 588 q 648 621 568 610 q 761 649 728 632 q 797 617 785 638 q 808 560 808 596 l 808 272 q 811 206 808 231 q 824 168 814 182 q 851 149 833 154 q 900 140 869 143 q 897 86 900 113 q 882 36 893 60 q 742 22 799 33 q 629 -12 685 10 q 590 33 601 7 q 578 92 578 60 q 579 115 578 103 q 582 126 581 121 q 524 50 561 79 q 442 6 489 22 q 333 -10 396 -10 q 235 3 278 -10 q 165 47 193 17 q 122 126 136 76 q 107 251 107 176 l 107 375 q 104 431 107 408 q 92 468 101 454 q 67 489 83 482 q 21 499 50 496 q 24 553 21 525 q 39 603 28 581 q 217 617 143 603 q 324 649 290 632 q 359 617 347 638 q 371 560 371 596 l 371 288 q 375 208 371 239 q 387 161 379 178 q 407 139 394 144 q 436 133 419 133 q 474 146 454 133 q 509 184 493 158 q 535 249 525 210 q 544 342 544 288 l 544 382 z "},"v":{"ha":810,"x_min":14,"x_max":796,"o":"m 510 640 q 650 636 564 636 q 796 640 735 636 q 792 581 796 613 q 778 532 788 550 q 722 506 742 524 q 683 443 703 488 l 494 -12 q 410 -12 454 -18 q 338 8 365 -7 q 284 120 313 61 q 226 238 256 179 q 167 351 196 296 q 114 451 139 407 q 73 510 90 494 q 29 532 56 525 q 18 582 22 551 q 14 640 14 613 q 105 637 46 638 q 231 636 164 636 l 296 636 q 363 637 331 636 q 421 638 394 638 q 464 640 447 639 q 459 583 464 614 q 449 532 454 551 q 396 508 403 525 q 413 442 389 490 q 444 376 429 407 q 474 311 460 344 q 497 253 485 283 q 517 311 507 283 q 542 375 529 344 l 568 442 q 578 508 589 490 q 525 532 568 525 q 515 582 519 551 q 510 640 510 613 z "},"w":{"ha":1107,"x_min":14,"x_max":1093,"o":"m 697 632 q 801 390 753 514 q 846 272 825 331 l 885 433 q 885 503 896 482 q 836 533 875 525 q 824 585 828 558 q 821 640 821 611 q 880 637 849 638 q 954 636 911 636 q 1030 637 997 636 q 1093 640 1063 638 q 1089 585 1093 617 q 1076 533 1085 553 q 1026 508 1044 526 q 994 443 1008 489 l 861 -12 q 825 -12 847 -12 q 779 -10 803 -11 q 735 -7 756 -10 q 703 0 714 -4 q 651 106 674 58 q 611 195 629 153 q 579 279 593 238 q 572 303 576 290 l 432 -12 q 396 -12 418 -12 q 350 -10 374 -11 q 306 -7 326 -10 q 274 0 285 -4 q 233 119 254 56 q 189 245 211 183 q 147 361 167 307 q 114 451 128 415 q 79 510 99 492 q 31 532 60 529 q 19 580 24 551 q 14 640 14 608 q 217 636 119 636 q 336 637 274 636 q 451 640 399 638 q 447 581 451 608 q 435 533 442 553 q 405 528 415 532 q 392 515 394 525 q 393 485 389 504 q 407 433 397 465 q 438 313 422 379 q 444 285 442 300 l 583 644 q 642 642 611 644 q 697 632 674 640 z "},"x":{"ha":843,"x_min":35,"x_max":808,"o":"m 360 207 q 340 238 347 226 l 328 219 q 295 166 307 188 q 280 132 283 144 q 281 113 276 119 q 294 104 285 107 q 304 56 303 81 q 306 -3 306 32 q 238 0 278 0 l 93 0 q 35 -3 57 0 q 51 104 35 63 q 79 110 67 106 q 106 130 92 115 q 142 172 121 144 q 194 249 163 200 l 247 328 q 207 393 228 361 q 140 486 172 446 q 104 519 124 510 q 53 532 85 529 q 42 584 46 556 q 38 639 38 613 q 138 636 81 636 l 379 636 q 488 639 442 636 q 485 580 488 611 q 476 532 482 549 q 447 513 447 529 q 478 446 446 496 q 504 404 493 422 q 507 397 506 401 l 542 449 q 574 510 572 494 q 550 532 575 526 q 539 580 543 551 q 535 639 535 608 q 603 636 571 636 l 742 636 q 799 639 767 636 q 783 532 799 576 q 757 527 768 531 q 735 515 746 524 q 714 492 725 507 q 688 454 703 478 l 600 324 q 660 232 632 276 q 699 172 682 196 q 730 135 715 149 q 759 115 744 121 q 793 107 774 108 q 805 58 801 83 q 808 0 808 32 q 746 1 776 1 q 658 0 715 0 l 497 0 q 413 -1 453 0 q 356 -3 374 -1 q 358 59 356 33 q 368 104 361 85 q 386 113 379 107 q 393 129 393 118 q 385 159 393 140 q 360 207 376 178 z "},"y":{"ha":804,"x_min":14,"x_max":790,"o":"m 350 -87 q 357 -75 353 -83 q 303 50 332 -14 q 242 188 274 119 q 180 321 211 256 q 121 443 149 386 q 97 485 108 469 q 74 511 85 501 q 52 525 64 521 q 28 532 40 529 q 17 584 21 553 q 14 640 14 615 q 111 637 54 638 q 226 636 168 636 q 355 637 289 636 q 464 640 421 638 q 459 581 464 613 q 447 532 454 549 q 408 522 422 528 q 391 504 394 515 q 394 474 388 493 q 415 426 400 456 q 472 300 446 368 q 493 244 483 274 l 561 414 q 579 468 575 447 q 580 502 583 489 q 565 522 576 515 q 533 532 553 529 q 522 581 526 551 q 518 640 518 611 q 588 637 550 638 q 658 636 626 636 q 726 638 693 636 q 790 642 758 639 q 786 586 790 617 q 772 532 782 556 q 722 504 740 524 q 681 435 703 485 l 476 -51 q 403 -204 436 -146 q 338 -294 369 -262 q 274 -335 306 -325 q 206 -346 242 -346 q 115 -324 160 -346 q 47 -271 69 -303 q 47 -200 43 -243 q 65 -121 51 -157 q 131 -139 89 -131 q 226 -147 174 -147 q 269 -144 251 -147 q 301 -135 288 -142 q 327 -117 315 -128 q 350 -87 339 -106 z "},"ý":{"ha":865,"x_min":53,"x_max":829,"o":"m 389 -87 q 396 -75 392 -83 q 342 50 371 -14 q 281 188 313 119 q 219 321 250 256 q 160 443 188 386 q 135 485 147 469 q 113 511 124 501 q 91 525 103 521 q 67 532 79 529 q 56 584 60 553 q 53 640 53 615 q 150 637 93 638 q 265 636 207 636 q 394 637 328 636 q 503 640 460 638 q 498 581 503 613 q 486 532 493 549 q 447 522 461 528 q 430 504 433 515 q 433 474 426 493 q 454 426 439 456 q 511 300 485 368 q 532 244 522 274 l 600 414 q 618 468 614 447 q 619 502 622 489 q 603 522 615 515 q 572 532 592 529 q 561 581 565 551 q 557 640 557 611 q 627 637 589 638 q 697 636 665 636 q 765 638 732 636 q 829 642 797 639 q 825 586 829 617 q 811 532 821 556 q 760 504 779 524 q 719 435 742 485 l 515 -51 q 442 -204 475 -146 q 376 -294 408 -262 q 313 -335 344 -325 q 244 -346 281 -346 q 153 -324 199 -346 q 86 -271 108 -303 q 86 -200 82 -243 q 104 -121 90 -157 q 170 -139 128 -131 q 265 -147 213 -147 q 308 -144 290 -147 q 340 -135 326 -142 q 366 -117 354 -128 q 389 -87 378 -106 m 403 775 q 454 886 435 838 q 488 992 474 935 q 553 1006 515 1001 q 629 1010 590 1010 q 676 1008 653 1010 q 718 1004 699 1007 q 618 875 664 939 q 538 747 572 811 q 462 756 500 747 q 403 775 424 764 z "},"ÿ":{"ha":797,"x_min":49,"x_max":825,"o":"m 385 -87 q 392 -75 388 -83 q 338 50 367 -14 q 277 188 308 119 q 215 321 246 256 q 156 443 183 386 q 131 485 143 469 q 109 511 119 501 q 87 525 99 521 q 63 532 75 529 q 52 584 56 553 q 49 640 49 615 q 146 637 89 638 q 261 636 203 636 q 390 637 324 636 q 499 640 456 638 q 494 581 499 613 q 482 532 489 549 q 443 522 457 528 q 426 504 429 515 q 428 474 422 493 q 450 426 435 456 q 507 300 481 368 q 528 244 518 274 l 596 414 q 614 468 610 447 q 615 502 618 489 q 599 522 611 515 q 568 532 588 529 q 557 581 561 551 q 553 640 553 611 q 623 637 585 638 q 693 636 661 636 q 760 638 728 636 q 825 642 793 639 q 821 586 825 617 q 807 532 817 556 q 756 504 775 524 q 715 435 738 485 l 511 -51 q 438 -204 471 -146 q 372 -294 404 -262 q 308 -335 340 -325 q 240 -346 276 -346 q 149 -324 194 -346 q 82 -271 104 -303 q 82 -200 78 -243 q 100 -121 86 -157 q 166 -139 124 -131 q 261 -147 208 -147 q 304 -144 286 -147 q 336 -135 322 -142 q 362 -117 350 -128 q 385 -87 374 -106 m 319 714 q 222 747 258 714 q 185 825 185 779 q 192 872 185 850 q 216 912 200 894 q 256 940 232 929 q 315 950 281 950 q 418 915 386 950 q 450 828 450 881 q 413 747 450 779 q 319 714 376 714 m 669 950 q 766 918 728 950 q 804 839 804 886 q 797 792 804 814 q 775 752 790 769 q 735 724 760 735 q 676 714 711 714 q 571 749 606 714 q 536 839 536 783 q 573 921 536 892 q 669 950 610 950 z "},"z":{"ha":719,"x_min":56,"x_max":692,"o":"m 72 640 q 368 636 157 636 l 463 636 q 535 637 504 636 q 592 638 567 638 q 640 640 617 639 q 657 601 651 625 q 663 553 663 578 q 518 313 597 435 q 381 104 453 210 l 435 104 q 487 113 467 104 q 519 140 507 121 q 536 190 531 160 q 544 265 542 221 q 614 265 581 268 q 681 250 647 261 q 681 193 681 224 q 683 133 682 163 q 687 76 685 103 q 692 31 689 49 q 626 -3 676 -3 q 567 -2 603 -3 q 492 -1 532 -1 q 415 -1 453 -1 q 347 0 376 0 q 189 -1 256 0 q 85 -3 122 -1 q 64 44 72 17 q 56 100 56 72 q 142 220 97 157 q 228 347 186 283 q 308 471 271 411 q 346 532 329 503 l 322 532 q 274 526 293 532 q 242 506 256 521 q 220 464 229 490 q 204 397 211 438 q 124 399 164 394 q 56 419 83 404 q 69 528 65 468 q 72 640 72 588 z "},"A":{"ha":996,"x_min":14,"x_max":982,"o":"m 433 939 q 484 947 461 946 q 539 947 507 947 l 847 271 q 889 185 872 217 q 919 135 906 153 q 944 112 932 118 q 971 104 956 106 q 979 58 976 86 q 982 -4 982 29 q 931 -2 961 -3 q 869 -1 900 -1 q 808 0 838 0 l 714 0 q 645 -1 682 0 q 574 -2 608 -1 q 519 -4 539 -3 q 522 59 519 35 q 531 104 525 83 q 585 139 576 115 q 574 210 594 163 l 564 231 q 400 226 483 229 q 247 217 325 224 l 246 211 q 238 178 239 196 q 244 146 238 161 q 263 119 250 131 q 299 104 276 108 q 307 56 304 82 q 310 -4 310 29 q 277 -2 297 -3 q 234 -1 257 -1 q 188 0 211 0 l 147 0 q 74 -1 113 0 q 14 -4 35 -1 q 17 53 14 28 q 28 104 19 78 q 58 115 44 107 q 83 138 71 122 q 109 178 96 153 q 139 244 122 204 l 433 939 m 288 321 l 524 321 l 472 439 q 413 596 435 522 q 401 631 407 613 l 390 594 q 335 439 368 522 l 288 321 z "},"À":{"ha":996,"x_min":14,"x_max":982,"o":"m 433 939 q 484 947 461 946 q 539 947 507 947 l 847 271 q 889 185 872 217 q 919 135 906 153 q 944 112 932 118 q 971 104 956 106 q 979 58 976 86 q 982 -4 982 29 q 931 -2 961 -3 q 869 -1 900 -1 q 808 0 838 0 l 714 0 q 645 -1 682 0 q 574 -2 608 -1 q 519 -4 539 -3 q 522 59 519 35 q 531 104 525 83 q 585 139 576 115 q 574 210 594 163 l 564 231 q 400 226 483 229 q 247 217 325 224 l 246 211 q 238 178 239 196 q 244 146 238 161 q 263 119 250 131 q 299 104 276 108 q 307 56 304 82 q 310 -4 310 29 q 277 -2 297 -3 q 234 -1 257 -1 q 188 0 211 0 l 147 0 q 74 -1 113 0 q 14 -4 35 -1 q 17 53 14 28 q 28 104 19 78 q 58 115 44 107 q 83 138 71 122 q 109 178 96 153 q 139 244 122 204 l 433 939 m 288 321 l 524 321 l 472 439 q 413 596 435 522 q 401 631 407 613 l 390 594 q 335 439 368 522 l 288 321 m 565 1075 q 506 1056 539 1063 q 424 1050 472 1050 q 344 1154 385 1104 q 242 1261 304 1204 q 350 1294 292 1282 q 469 1306 408 1306 q 511 1191 485 1254 q 565 1075 538 1128 z "},"Á":{"ha":996,"x_min":14,"x_max":982,"o":"m 433 939 q 484 947 461 946 q 539 947 507 947 l 847 271 q 889 185 872 217 q 919 135 906 153 q 944 112 932 118 q 971 104 956 106 q 979 58 976 86 q 982 -4 982 29 q 931 -2 961 -3 q 869 -1 900 -1 q 808 0 838 0 l 714 0 q 645 -1 682 0 q 574 -2 608 -1 q 519 -4 539 -3 q 522 59 519 35 q 531 104 525 83 q 585 139 576 115 q 574 210 594 163 l 564 231 q 400 226 483 229 q 247 217 325 224 l 246 211 q 238 178 239 196 q 244 146 238 161 q 263 119 250 131 q 299 104 276 108 q 307 56 304 82 q 310 -4 310 29 q 277 -2 297 -3 q 234 -1 257 -1 q 188 0 211 0 l 147 0 q 74 -1 113 0 q 14 -4 35 -1 q 17 53 14 28 q 28 104 19 78 q 58 115 44 107 q 83 138 71 122 q 109 178 96 153 q 139 244 122 204 l 433 939 m 288 321 l 524 321 l 472 439 q 413 596 435 522 q 401 631 407 613 l 390 594 q 335 439 368 522 l 288 321 m 399 1074 q 450 1185 431 1136 q 483 1290 469 1233 q 549 1304 511 1300 q 625 1308 586 1308 q 672 1307 649 1308 q 714 1303 694 1306 q 614 1174 660 1238 q 533 1046 568 1110 q 458 1054 496 1046 q 399 1074 419 1063 z "},"Â":{"ha":996,"x_min":14,"x_max":982,"o":"m 433 939 q 484 947 461 946 q 539 947 507 947 l 847 271 q 889 185 872 217 q 919 135 906 153 q 944 112 932 118 q 971 104 956 106 q 979 58 976 86 q 982 -4 982 29 q 931 -2 961 -3 q 869 -1 900 -1 q 808 0 838 0 l 714 0 q 645 -1 682 0 q 574 -2 608 -1 q 519 -4 539 -3 q 522 59 519 35 q 531 104 525 83 q 585 139 576 115 q 574 210 594 163 l 564 231 q 400 226 483 229 q 247 217 325 224 l 246 211 q 238 178 239 196 q 244 146 238 161 q 263 119 250 131 q 299 104 276 108 q 307 56 304 82 q 310 -4 310 29 q 277 -2 297 -3 q 234 -1 257 -1 q 188 0 211 0 l 147 0 q 74 -1 113 0 q 14 -4 35 -1 q 17 53 14 28 q 28 104 19 78 q 58 115 44 107 q 83 138 71 122 q 109 178 96 153 q 139 244 122 204 l 433 939 m 288 321 l 524 321 l 472 439 q 413 596 435 522 q 401 631 407 613 l 390 594 q 335 439 368 522 l 288 321 m 201 1104 q 324 1194 261 1144 q 435 1293 388 1244 q 492 1308 460 1303 q 556 1314 524 1314 q 653 1208 599 1263 q 778 1096 708 1154 q 726 1052 756 1071 q 653 1025 697 1033 q 563 1085 613 1054 q 467 1140 514 1117 q 424 1116 447 1131 q 376 1086 400 1101 q 328 1055 351 1071 q 288 1025 304 1039 q 231 1056 254 1032 q 201 1104 208 1081 z "},"Ã":{"ha":996,"x_min":14,"x_max":982,"o":"m 433 939 q 484 947 461 946 q 539 947 507 947 l 847 271 q 889 185 872 217 q 919 135 906 153 q 944 112 932 118 q 971 104 956 106 q 979 58 976 86 q 982 -4 982 29 q 931 -2 961 -3 q 869 -1 900 -1 q 808 0 838 0 l 714 0 q 645 -1 682 0 q 574 -2 608 -1 q 519 -4 539 -3 q 522 59 519 35 q 531 104 525 83 q 585 139 576 115 q 574 210 594 163 l 564 231 q 400 226 483 229 q 247 217 325 224 l 246 211 q 238 178 239 196 q 244 146 238 161 q 263 119 250 131 q 299 104 276 108 q 307 56 304 82 q 310 -4 310 29 q 277 -2 297 -3 q 234 -1 257 -1 q 188 0 211 0 l 147 0 q 74 -1 113 0 q 14 -4 35 -1 q 17 53 14 28 q 28 104 19 78 q 58 115 44 107 q 83 138 71 122 q 109 178 96 153 q 139 244 122 204 l 433 939 m 288 321 l 524 321 l 472 439 q 413 596 435 522 q 401 631 407 613 l 390 594 q 335 439 368 522 l 288 321 m 229 1004 q 195 1044 207 1024 q 179 1092 183 1064 q 242 1177 211 1143 q 301 1230 272 1211 q 355 1256 329 1249 q 404 1264 381 1264 q 465 1255 438 1264 q 517 1235 493 1246 q 564 1216 540 1225 q 613 1207 588 1207 q 680 1219 651 1207 q 729 1253 708 1232 q 767 1221 751 1239 q 790 1181 783 1203 q 699 1045 746 1090 q 586 1000 651 1000 q 522 1010 550 1000 q 471 1031 494 1019 q 423 1051 447 1042 q 369 1061 399 1061 q 295 1047 329 1061 q 229 1004 261 1032 z "},"Ä":{"ha":996,"x_min":14,"x_max":982,"o":"m 433 939 q 484 947 461 946 q 539 947 507 947 l 847 271 q 889 185 872 217 q 919 135 906 153 q 944 112 932 118 q 971 104 956 106 q 979 58 976 86 q 982 -4 982 29 q 931 -2 961 -3 q 869 -1 900 -1 q 808 0 838 0 l 714 0 q 645 -1 682 0 q 574 -2 608 -1 q 519 -4 539 -3 q 522 59 519 35 q 531 104 525 83 q 585 139 576 115 q 574 210 594 163 l 564 231 q 400 226 483 229 q 247 217 325 224 l 246 211 q 238 178 239 196 q 244 146 238 161 q 263 119 250 131 q 299 104 276 108 q 307 56 304 82 q 310 -4 310 29 q 277 -2 297 -3 q 234 -1 257 -1 q 188 0 211 0 l 147 0 q 74 -1 113 0 q 14 -4 35 -1 q 17 53 14 28 q 28 104 19 78 q 58 115 44 107 q 83 138 71 122 q 109 178 96 153 q 139 244 122 204 l 433 939 m 288 321 l 524 321 l 472 439 q 413 596 435 522 q 401 631 407 613 l 390 594 q 335 439 368 522 l 288 321 m 308 1013 q 210 1045 247 1013 q 174 1124 174 1078 q 181 1171 174 1149 q 205 1210 189 1193 q 245 1238 221 1228 q 304 1249 269 1249 q 407 1214 375 1249 q 439 1126 439 1179 q 402 1045 439 1078 q 308 1013 365 1013 m 658 1249 q 755 1217 717 1249 q 793 1138 793 1185 q 786 1090 793 1113 q 764 1051 779 1068 q 724 1023 749 1033 q 665 1013 700 1013 q 560 1047 594 1013 q 525 1138 525 1082 q 562 1219 525 1190 q 658 1249 599 1249 z "},"Å":{"ha":996,"x_min":14,"x_max":982,"o":"m 433 939 q 484 947 461 946 q 539 947 507 947 l 847 271 q 889 185 872 217 q 919 135 906 153 q 944 112 932 118 q 971 104 956 106 q 979 58 976 86 q 982 -4 982 29 q 931 -2 961 -3 q 869 -1 900 -1 q 808 0 838 0 l 714 0 q 645 -1 682 0 q 574 -2 608 -1 q 519 -4 539 -3 q 522 59 519 35 q 531 104 525 83 q 585 139 576 115 q 574 210 594 163 l 564 231 q 400 226 483 229 q 247 217 325 224 l 246 211 q 238 178 239 196 q 244 146 238 161 q 263 119 250 131 q 299 104 276 108 q 307 56 304 82 q 310 -4 310 29 q 277 -2 297 -3 q 234 -1 257 -1 q 188 0 211 0 l 147 0 q 74 -1 113 0 q 14 -4 35 -1 q 17 53 14 28 q 28 104 19 78 q 58 115 44 107 q 83 138 71 122 q 109 178 96 153 q 139 244 122 204 l 433 939 m 288 321 l 524 321 l 472 439 q 413 596 435 522 q 401 631 407 613 l 390 594 q 335 439 368 522 l 288 321 m 293 1169 q 349 1281 293 1240 q 490 1322 404 1322 q 563 1314 529 1322 q 621 1288 596 1306 q 660 1244 646 1271 q 674 1181 674 1218 q 619 1069 674 1111 q 475 1026 565 1026 q 345 1064 397 1026 q 293 1169 293 1101 m 438 1178 q 451 1129 438 1149 q 488 1110 464 1110 q 518 1126 506 1110 q 531 1169 531 1142 q 519 1220 531 1194 q 479 1246 507 1246 q 449 1228 460 1246 q 438 1178 438 1210 z "},"Æ":{"ha":1481,"x_min":68,"x_max":1424,"o":"m 506 381 q 438 372 465 376 q 411 326 424 349 q 361 236 378 267 q 341 144 329 175 q 401 104 353 113 q 413 56 410 85 q 415 -4 415 28 q 378 -2 399 -3 q 335 -1 357 -1 q 290 0 313 0 l 207 0 q 153 -1 181 0 q 101 -2 125 -1 q 68 -4 78 -3 q 72 55 68 24 q 82 104 75 86 q 124 113 107 107 q 157 131 142 119 q 187 163 172 143 q 218 211 201 182 l 514 721 q 536 803 546 778 q 474 835 526 829 q 468 853 471 840 q 463 883 465 867 q 458 915 460 899 q 456 942 456 931 q 517 941 482 942 q 590 940 551 940 q 667 939 628 939 l 1072 939 q 1182 940 1133 939 q 1269 941 1231 940 q 1340 943 1307 942 q 1349 808 1340 875 q 1369 696 1358 740 q 1344 685 1361 689 q 1306 677 1326 681 q 1264 672 1285 674 q 1229 671 1243 671 q 1211 739 1222 708 q 1178 790 1200 769 q 1123 823 1157 811 q 1038 835 1089 835 l 969 835 l 969 489 l 985 489 q 1033 492 1014 489 q 1064 506 1053 496 q 1080 538 1075 517 q 1085 594 1085 558 q 1143 608 1108 603 q 1206 613 1178 613 q 1203 580 1204 596 q 1202 545 1203 564 q 1201 503 1201 526 l 1201 447 q 1202 356 1201 400 q 1206 281 1203 311 q 1142 282 1178 281 q 1086 293 1107 283 q 1079 347 1083 326 q 1064 379 1075 368 q 1034 394 1053 390 q 985 397 1015 397 l 969 397 l 969 267 q 975 185 969 217 q 993 136 981 154 q 1026 111 1006 118 q 1078 104 1047 104 l 1101 104 q 1161 113 1136 104 q 1207 142 1186 121 q 1246 200 1228 164 q 1285 293 1264 236 q 1364 274 1322 286 q 1424 246 1406 263 q 1397 131 1408 197 q 1381 -3 1385 64 q 1290 -2 1350 -3 q 1160 -1 1229 -1 q 1025 0 1092 0 l 943 0 q 801 -1 872 0 q 672 -2 731 -1 q 589 -4 613 -3 q 591 54 589 28 q 600 104 593 81 q 646 113 628 106 q 674 136 664 119 q 688 182 685 153 q 692 260 692 211 l 692 392 q 636 389 663 390 q 506 381 563 386 m 692 750 q 693 799 692 771 l 694 824 q 688 810 692 817 q 660 758 676 788 q 575 613 621 692 q 504 489 539 549 l 692 489 l 692 750 z "},"B":{"ha":990,"x_min":42,"x_max":949,"o":"m 192 939 q 261 940 219 939 q 348 940 303 940 q 436 941 393 940 q 510 942 479 942 q 697 928 622 942 q 816 887 771 914 q 880 819 861 860 q 899 726 899 779 q 842 588 899 646 q 678 514 786 529 q 803 491 751 510 q 887 441 854 472 q 934 366 919 410 q 949 269 949 322 q 925 159 949 208 q 849 74 901 110 q 714 19 797 39 q 510 0 631 0 q 268 -1 386 0 q 42 -4 150 -1 q 44 56 42 26 q 53 104 47 85 q 99 113 81 106 q 127 136 117 119 q 141 182 138 153 q 144 260 144 211 l 144 682 q 141 757 144 729 q 127 801 138 785 q 99 824 117 817 q 51 835 81 831 q 44 888 46 856 q 42 943 42 919 q 112 940 68 940 q 192 939 156 939 m 422 425 l 422 247 q 430 173 422 201 q 451 128 438 144 q 481 108 464 113 q 518 103 499 103 q 606 142 569 103 q 643 254 643 181 q 596 388 643 351 q 457 425 549 425 l 422 425 m 442 829 q 422 821 432 826 l 422 540 l 472 540 q 581 577 540 540 q 621 689 621 614 q 583 796 621 757 q 488 835 546 835 q 442 829 461 835 z "},"C":{"ha":881,"x_min":49,"x_max":853,"o":"m 519 951 q 681 933 604 951 q 832 879 758 914 q 820 776 824 831 q 817 664 817 722 q 790 655 807 658 q 754 649 774 651 q 715 646 735 647 q 679 644 696 644 q 667 742 678 704 q 635 803 656 781 q 586 835 614 826 q 524 844 558 844 q 436 817 472 844 q 377 742 400 789 q 344 634 354 694 q 333 510 333 574 q 349 355 333 426 q 397 231 365 283 q 474 148 428 178 q 582 118 521 118 q 705 135 642 118 q 814 176 768 151 q 839 142 829 163 q 853 100 849 122 q 794 58 828 78 q 719 22 760 38 q 631 -3 678 6 q 533 -12 583 -12 q 331 23 421 -12 q 179 123 242 58 q 83 277 117 188 q 49 475 49 367 q 89 682 49 593 q 194 831 129 771 q 344 921 260 890 q 519 951 429 951 z "},"Ç":{"ha":881,"x_min":49,"x_max":853,"o":"m 519 951 q 681 933 604 951 q 832 879 758 914 q 820 776 824 831 q 817 664 817 722 q 790 655 807 658 q 754 649 774 651 q 715 646 735 647 q 679 644 696 644 q 667 742 678 704 q 635 803 656 781 q 586 835 614 826 q 524 844 558 844 q 436 817 472 844 q 377 742 400 789 q 344 634 354 694 q 333 510 333 574 q 349 355 333 426 q 397 231 365 283 q 474 148 428 178 q 582 118 521 118 q 705 135 642 118 q 814 176 768 151 q 839 142 829 163 q 853 100 849 122 q 794 58 828 78 q 719 22 760 38 q 631 -4 678 6 q 546 -12 589 -11 l 510 -60 q 602 -107 571 -69 q 633 -192 633 -144 q 570 -299 633 -262 q 389 -336 507 -336 q 379 -301 382 -321 q 376 -265 376 -281 q 453 -250 421 -265 q 485 -204 485 -235 q 462 -167 485 -181 q 404 -153 439 -153 q 379 -87 379 -124 l 446 -7 q 331 22 385 1 q 179 123 242 58 q 83 277 117 188 q 49 475 49 367 q 89 682 49 593 q 194 831 129 771 q 344 921 260 890 q 519 951 429 951 z "},"D":{"ha":1026,"x_min":42,"x_max":978,"o":"m 42 943 q 94 941 64 942 q 160 940 125 940 q 232 939 194 939 l 306 939 q 381 940 339 939 q 478 942 422 942 q 670 925 579 942 q 829 859 761 908 q 938 722 897 810 q 978 493 978 635 q 950 300 978 381 q 877 165 922 219 q 776 78 832 111 q 663 28 719 44 q 556 6 607 11 q 471 0 506 0 q 372 -1 435 0 q 244 -2 310 -1 q 122 -3 178 -3 q 42 -4 65 -4 q 44 56 42 26 q 53 104 47 85 q 99 113 81 106 q 127 136 117 119 q 141 182 138 153 q 144 260 144 211 l 144 682 q 141 757 144 729 q 127 801 138 785 q 99 824 117 817 q 51 835 81 831 q 44 888 46 856 q 42 943 42 919 m 422 267 q 427 187 422 218 q 444 138 432 156 q 478 112 457 119 q 531 104 499 104 q 574 114 546 104 q 630 160 603 124 q 677 269 657 197 q 697 468 697 342 q 679 651 697 579 q 631 764 661 722 q 560 822 600 806 q 478 838 521 838 q 422 826 447 838 l 422 267 z "},"Ð":{"ha":1043,"x_min":26,"x_max":989,"o":"m 53 943 q 106 941 75 942 q 171 940 136 940 q 243 939 206 939 l 317 939 q 392 940 350 939 q 489 942 433 942 q 681 925 590 942 q 840 859 772 908 q 949 722 908 810 q 989 493 989 635 q 961 300 989 381 q 888 165 933 219 q 787 78 843 111 q 674 28 731 44 q 567 6 618 11 q 482 0 517 0 q 383 -1 446 0 q 255 -2 321 -1 q 133 -3 189 -3 q 53 -4 76 -4 q 56 56 53 26 q 64 104 58 85 q 110 113 92 106 q 138 136 128 119 q 152 182 149 153 q 156 260 156 211 l 156 344 q 103 343 131 344 q 26 342 69 342 q 31 413 26 382 q 44 468 36 444 l 156 468 l 156 682 q 152 757 156 729 q 138 801 149 785 q 110 824 128 817 q 63 835 92 831 q 55 888 57 856 q 53 943 53 919 m 433 267 q 438 187 433 218 q 456 138 443 156 q 489 112 468 119 q 542 104 510 104 q 585 114 557 104 q 641 160 614 124 q 688 269 668 197 q 708 468 708 342 q 690 651 708 579 q 642 764 672 722 q 572 822 611 806 q 489 838 532 838 q 433 826 458 838 l 433 468 l 621 468 q 603 344 621 394 q 540 345 567 344 q 489 346 514 346 l 433 346 l 433 267 z "},"E":{"ha":897,"x_min":42,"x_max":876,"o":"m 793 943 q 795 884 793 917 q 801 817 797 851 q 810 752 806 783 q 822 696 815 721 q 763 678 794 685 q 682 671 731 671 q 664 739 675 708 q 631 790 653 769 q 576 823 610 811 q 490 835 542 835 l 422 835 l 422 519 q 478 525 457 519 q 513 542 500 531 q 531 572 525 553 q 536 618 536 590 q 593 631 560 628 q 658 635 626 635 q 654 563 656 601 q 653 472 653 525 q 654 376 653 414 q 658 307 656 338 q 591 310 619 307 q 539 321 563 313 q 509 397 533 378 q 422 415 485 415 l 422 267 q 427 187 422 218 q 444 138 432 156 q 478 112 457 119 q 531 104 499 104 l 554 104 q 666 149 625 104 q 735 293 707 193 q 819 276 781 289 q 876 246 858 263 q 850 131 861 197 q 833 -3 839 65 q 758 -2 803 -3 q 665 -1 714 -1 q 564 0 615 0 l 471 0 q 372 -1 435 0 q 244 -2 310 -1 q 122 -3 178 -3 q 42 -4 65 -4 q 44 56 42 26 q 53 104 47 85 q 99 113 81 106 q 127 136 117 119 q 141 182 138 153 q 144 260 144 211 l 144 682 q 141 757 144 729 q 127 801 138 785 q 99 824 117 817 q 51 835 81 831 q 44 888 46 856 q 42 943 42 919 q 119 941 72 942 q 217 940 165 940 q 318 939 268 939 l 544 939 q 649 940 604 939 q 729 941 694 940 q 793 943 764 942 z "},"È":{"ha":897,"x_min":42,"x_max":876,"o":"m 525 1075 q 465 1056 499 1063 q 383 1050 432 1050 q 304 1154 344 1104 q 201 1261 264 1204 q 310 1294 251 1282 q 429 1306 368 1306 q 471 1191 444 1254 q 525 1075 497 1128 m 793 943 q 795 884 793 917 q 801 817 797 851 q 810 752 806 783 q 822 696 815 721 q 763 678 794 685 q 682 671 731 671 q 664 739 675 708 q 631 790 653 769 q 576 823 610 811 q 490 835 542 835 l 422 835 l 422 519 q 478 525 457 519 q 513 542 500 531 q 531 572 525 553 q 536 618 536 590 q 593 631 560 628 q 658 635 626 635 q 654 563 656 601 q 653 472 653 525 q 654 376 653 414 q 658 307 656 338 q 591 310 619 307 q 539 321 563 313 q 509 397 533 378 q 422 415 485 415 l 422 267 q 427 187 422 218 q 444 138 432 156 q 478 112 457 119 q 531 104 499 104 l 554 104 q 666 149 625 104 q 735 293 707 193 q 819 276 781 289 q 876 246 858 263 q 850 131 861 197 q 833 -3 839 65 q 758 -2 803 -3 q 665 -1 714 -1 q 564 0 615 0 l 471 0 q 372 -1 435 0 q 244 -2 310 -1 q 122 -3 178 -3 q 42 -4 65 -4 q 44 56 42 26 q 53 104 47 85 q 99 113 81 106 q 127 136 117 119 q 141 182 138 153 q 144 260 144 211 l 144 682 q 141 757 144 729 q 127 801 138 785 q 99 824 117 817 q 51 835 81 831 q 44 888 46 856 q 42 943 42 919 q 119 941 72 942 q 217 940 165 940 q 318 939 268 939 l 544 939 q 649 940 604 939 q 729 941 694 940 q 793 943 764 942 z "},"É":{"ha":897,"x_min":42,"x_max":876,"o":"m 371 1074 q 422 1185 403 1136 q 456 1290 442 1233 q 521 1304 483 1300 q 597 1308 558 1308 q 644 1307 621 1308 q 686 1303 667 1306 q 586 1174 632 1238 q 506 1046 540 1110 q 430 1054 468 1046 q 371 1074 392 1063 m 793 943 q 795 884 793 917 q 801 817 797 851 q 810 752 806 783 q 822 696 815 721 q 763 678 794 685 q 682 671 731 671 q 664 739 675 708 q 631 790 653 769 q 576 823 610 811 q 490 835 542 835 l 422 835 l 422 519 q 478 525 457 519 q 513 542 500 531 q 531 572 525 553 q 536 618 536 590 q 593 631 560 628 q 658 635 626 635 q 654 563 656 601 q 653 472 653 525 q 654 376 653 414 q 658 307 656 338 q 591 310 619 307 q 539 321 563 313 q 509 397 533 378 q 422 415 485 415 l 422 267 q 427 187 422 218 q 444 138 432 156 q 478 112 457 119 q 531 104 499 104 l 554 104 q 666 149 625 104 q 735 293 707 193 q 819 276 781 289 q 876 246 858 263 q 850 131 861 197 q 833 -3 839 65 q 758 -2 803 -3 q 665 -1 714 -1 q 564 0 615 0 l 471 0 q 372 -1 435 0 q 244 -2 310 -1 q 122 -3 178 -3 q 42 -4 65 -4 q 44 56 42 26 q 53 104 47 85 q 99 113 81 106 q 127 136 117 119 q 141 182 138 153 q 144 260 144 211 l 144 682 q 141 757 144 729 q 127 801 138 785 q 99 824 117 817 q 51 835 81 831 q 44 888 46 856 q 42 943 42 919 q 119 941 72 942 q 217 940 165 940 q 318 939 268 939 l 544 939 q 649 940 604 939 q 729 941 694 940 q 793 943 764 942 z "},"Ê":{"ha":897,"x_min":42,"x_max":876,"o":"m 143 1104 q 266 1194 203 1144 q 376 1293 329 1244 q 433 1308 401 1303 q 497 1314 465 1314 q 595 1208 540 1263 q 719 1096 650 1154 q 668 1052 697 1071 q 594 1025 639 1033 q 505 1085 554 1054 q 408 1140 456 1117 q 365 1116 389 1131 q 317 1086 342 1101 q 269 1055 293 1071 q 229 1025 246 1039 q 173 1056 196 1032 q 143 1104 150 1081 m 793 943 q 795 884 793 917 q 801 817 797 851 q 810 752 806 783 q 822 696 815 721 q 763 678 794 685 q 682 671 731 671 q 664 739 675 708 q 631 790 653 769 q 576 823 610 811 q 490 835 542 835 l 422 835 l 422 519 q 478 525 457 519 q 513 542 500 531 q 531 572 525 553 q 536 618 536 590 q 593 631 560 628 q 658 635 626 635 q 654 563 656 601 q 653 472 653 525 q 654 376 653 414 q 658 307 656 338 q 591 310 619 307 q 539 321 563 313 q 509 397 533 378 q 422 415 485 415 l 422 267 q 427 187 422 218 q 444 138 432 156 q 478 112 457 119 q 531 104 499 104 l 554 104 q 666 149 625 104 q 735 293 707 193 q 819 276 781 289 q 876 246 858 263 q 850 131 861 197 q 833 -3 839 65 q 758 -2 803 -3 q 665 -1 714 -1 q 564 0 615 0 l 471 0 q 372 -1 435 0 q 244 -2 310 -1 q 122 -3 178 -3 q 42 -4 65 -4 q 44 56 42 26 q 53 104 47 85 q 99 113 81 106 q 127 136 117 119 q 141 182 138 153 q 144 260 144 211 l 144 682 q 141 757 144 729 q 127 801 138 785 q 99 824 117 817 q 51 835 81 831 q 44 888 46 856 q 42 943 42 919 q 119 941 72 942 q 217 940 165 940 q 318 939 268 939 l 544 939 q 649 940 604 939 q 729 941 694 940 q 793 943 764 942 z "},"Ë":{"ha":897,"x_min":42,"x_max":876,"o":"m 265 1013 q 167 1045 204 1013 q 131 1124 131 1078 q 138 1171 131 1149 q 162 1210 146 1193 q 202 1238 178 1228 q 261 1249 226 1249 q 364 1214 332 1249 q 396 1126 396 1179 q 359 1045 396 1078 q 265 1013 322 1013 m 615 1249 q 712 1217 674 1249 q 750 1138 750 1185 q 743 1090 750 1113 q 721 1051 736 1068 q 681 1023 706 1033 q 622 1013 657 1013 q 517 1047 551 1013 q 482 1138 482 1082 q 519 1219 482 1190 q 615 1249 556 1249 m 793 943 q 795 884 793 917 q 801 817 797 851 q 810 752 806 783 q 822 696 815 721 q 763 678 794 685 q 682 671 731 671 q 664 739 675 708 q 631 790 653 769 q 576 823 610 811 q 490 835 542 835 l 422 835 l 422 519 q 478 525 457 519 q 513 542 500 531 q 531 572 525 553 q 536 618 536 590 q 593 631 560 628 q 658 635 626 635 q 654 563 656 601 q 653 472 653 525 q 654 376 653 414 q 658 307 656 338 q 591 310 619 307 q 539 321 563 313 q 509 397 533 378 q 422 415 485 415 l 422 267 q 427 187 422 218 q 444 138 432 156 q 478 112 457 119 q 531 104 499 104 l 554 104 q 666 149 625 104 q 735 293 707 193 q 819 276 781 289 q 876 246 858 263 q 850 131 861 197 q 833 -3 839 65 q 758 -2 803 -3 q 665 -1 714 -1 q 564 0 615 0 l 471 0 q 372 -1 435 0 q 244 -2 310 -1 q 122 -3 178 -3 q 42 -4 65 -4 q 44 56 42 26 q 53 104 47 85 q 99 113 81 106 q 127 136 117 119 q 141 182 138 153 q 144 260 144 211 l 144 682 q 141 757 144 729 q 127 801 138 785 q 99 824 117 817 q 51 835 81 831 q 44 888 46 856 q 42 943 42 919 q 119 941 72 942 q 217 940 165 940 q 318 939 268 939 l 544 939 q 649 940 604 939 q 729 941 694 940 q 793 943 764 942 z "},"F":{"ha":843,"x_min":42,"x_max":822,"o":"m 793 943 q 795 884 793 917 q 801 817 797 851 q 810 752 806 783 q 822 696 815 721 q 763 678 794 685 q 682 671 731 671 q 664 739 675 708 q 631 790 653 769 q 576 823 610 811 q 490 835 542 835 l 422 835 l 422 471 l 438 471 q 527 493 506 471 q 550 569 549 515 q 607 583 574 579 q 672 586 640 586 q 668 515 669 553 q 667 424 667 476 q 668 327 667 365 q 672 258 669 289 q 605 261 633 258 q 553 272 576 264 q 523 348 547 329 q 438 367 499 367 l 422 367 l 422 274 q 429 198 422 229 q 454 147 436 167 q 501 117 472 128 q 574 104 529 107 q 584 51 582 81 q 586 -4 586 22 q 535 -2 567 -3 q 467 -1 504 -1 q 393 0 431 0 l 244 0 q 168 -1 206 0 q 98 -2 131 -1 q 42 -4 65 -3 q 44 59 42 33 q 51 104 46 85 q 97 113 79 106 q 126 136 115 119 q 140 182 136 153 q 144 260 144 211 l 144 682 q 141 757 144 729 q 128 801 138 785 q 101 824 119 817 q 54 835 83 831 q 45 883 49 856 q 42 943 42 910 q 119 941 72 942 q 219 940 167 940 q 321 939 271 939 l 544 939 q 649 940 604 939 q 729 941 694 940 q 793 943 764 942 z "},"G":{"ha":957,"x_min":49,"x_max":922,"o":"m 640 251 q 636 301 640 282 q 622 333 632 321 q 592 349 611 344 q 543 356 572 354 q 535 463 535 399 q 627 459 575 460 q 725 458 679 458 l 822 458 q 922 461 878 458 q 921 407 922 433 q 914 356 919 381 q 870 336 878 353 q 863 274 863 319 l 863 240 q 864 193 863 213 q 868 158 865 174 q 875 127 871 142 q 886 96 879 113 q 731 18 822 49 q 533 -12 639 -12 q 331 23 421 -12 q 179 123 242 58 q 83 278 117 188 q 49 476 49 368 q 88 684 49 594 q 196 833 128 774 q 352 922 264 892 q 539 951 440 951 q 714 929 629 951 q 860 879 799 907 q 848 776 851 831 q 844 664 844 722 q 776 647 814 649 q 707 644 739 644 q 656 799 701 754 q 531 843 611 843 q 437 815 475 843 q 375 740 399 786 q 341 633 351 693 q 331 510 331 574 q 346 344 331 419 q 390 214 361 268 q 460 129 419 160 q 551 99 501 99 q 579 100 569 99 q 597 104 589 101 q 628 131 617 111 q 640 204 640 150 l 640 251 z "},"H":{"ha":1114,"x_min":42,"x_max":1072,"o":"m 692 436 q 626 435 660 436 q 513 433 569 435 q 422 429 467 432 l 422 260 q 426 182 422 211 q 440 136 429 153 q 468 113 450 119 q 514 104 486 106 q 522 54 519 85 q 525 -4 525 24 q 435 -1 493 -1 q 304 0 376 0 q 161 -1 232 0 q 42 -4 90 -1 q 46 53 42 21 q 56 104 50 85 q 101 113 83 106 q 128 136 118 119 q 141 182 138 153 q 144 260 144 211 l 144 682 q 141 757 144 729 q 128 801 138 785 q 101 824 119 817 q 54 835 83 831 q 45 885 49 856 q 42 943 42 915 q 90 941 58 942 q 158 940 122 940 q 229 939 194 939 l 347 939 q 412 940 379 939 q 474 941 444 940 q 525 943 504 942 q 524 889 525 915 q 513 835 522 863 q 466 825 483 832 q 439 802 449 818 q 426 758 429 786 q 422 682 422 729 l 422 538 l 692 538 l 692 682 q 688 757 692 729 q 676 801 685 785 q 649 824 667 817 q 601 835 631 831 q 592 885 596 856 q 589 943 589 915 q 638 941 606 942 q 706 940 669 940 q 776 939 742 939 l 894 939 q 959 940 926 939 q 1022 941 992 940 q 1072 943 1051 942 q 1071 889 1072 915 q 1060 835 1069 863 q 1013 825 1031 832 q 986 802 996 818 q 973 758 976 786 q 969 682 969 729 l 969 260 q 973 182 969 211 q 987 136 976 153 q 1015 113 997 119 q 1061 104 1033 106 q 1069 54 1067 85 q 1072 -4 1072 24 q 982 -1 1040 -1 q 851 0 924 0 q 708 -1 779 0 q 589 -4 638 -1 q 593 53 589 21 q 603 104 597 85 q 648 113 631 106 q 675 136 665 119 q 688 182 685 153 q 692 260 692 211 l 692 436 z "},"I":{"ha":567,"x_min":42,"x_max":525,"o":"m 144 682 q 141 757 144 729 q 128 801 138 785 q 101 824 119 817 q 54 835 83 831 q 45 885 49 856 q 42 943 42 915 q 90 941 58 942 q 158 940 122 940 q 229 939 194 939 l 347 939 q 412 940 379 939 q 474 941 444 940 q 525 943 504 942 q 524 889 525 915 q 513 835 522 863 q 466 825 483 832 q 439 802 449 818 q 426 758 429 786 q 422 682 422 729 l 422 260 q 426 182 422 211 q 440 136 429 153 q 468 113 450 119 q 514 104 486 106 q 522 54 519 85 q 525 -4 525 24 q 435 -1 493 -1 q 304 0 376 0 q 161 -1 232 0 q 42 -4 90 -1 q 46 53 42 21 q 56 104 50 85 q 101 113 83 106 q 128 136 118 119 q 141 182 138 153 q 144 260 144 211 l 144 682 z "},"Ì":{"ha":567,"x_min":24,"x_max":525,"o":"m 144 682 q 141 757 144 729 q 128 801 138 785 q 101 824 119 817 q 54 835 83 831 q 45 885 49 856 q 42 943 42 915 q 90 941 58 942 q 158 940 122 940 q 229 939 194 939 l 347 939 q 412 940 379 939 q 474 941 444 940 q 525 943 504 942 q 524 889 525 915 q 513 835 522 863 q 466 825 483 832 q 439 802 449 818 q 426 758 429 786 q 422 682 422 729 l 422 260 q 426 182 422 211 q 440 136 429 153 q 468 113 450 119 q 514 104 486 106 q 522 54 519 85 q 525 -4 525 24 q 435 -1 493 -1 q 304 0 376 0 q 161 -1 232 0 q 42 -4 90 -1 q 46 53 42 21 q 56 104 50 85 q 101 113 83 106 q 128 136 118 119 q 141 182 138 153 q 144 260 144 211 l 144 682 m 347 1075 q 288 1056 321 1063 q 206 1050 254 1050 q 126 1154 167 1104 q 24 1261 86 1204 q 132 1294 74 1282 q 251 1306 190 1306 q 293 1191 267 1254 q 347 1075 319 1128 z "},"Í":{"ha":567,"x_min":42,"x_max":532,"o":"m 144 682 q 141 757 144 729 q 128 801 138 785 q 101 824 119 817 q 54 835 83 831 q 45 885 49 856 q 42 943 42 915 q 90 941 58 942 q 158 940 122 940 q 229 939 194 939 l 347 939 q 412 940 379 939 q 474 941 444 940 q 525 943 504 942 q 524 889 525 915 q 513 835 522 863 q 466 825 483 832 q 439 802 449 818 q 426 758 429 786 q 422 682 422 729 l 422 260 q 426 182 422 211 q 440 136 429 153 q 468 113 450 119 q 514 104 486 106 q 522 54 519 85 q 525 -4 525 24 q 435 -1 493 -1 q 304 0 376 0 q 161 -1 232 0 q 42 -4 90 -1 q 46 53 42 21 q 56 104 50 85 q 101 113 83 106 q 128 136 118 119 q 141 182 138 153 q 144 260 144 211 l 144 682 m 217 1074 q 268 1185 249 1136 q 301 1290 288 1233 q 367 1304 329 1300 q 443 1308 404 1308 q 490 1307 467 1308 q 532 1303 513 1306 q 432 1174 478 1238 q 351 1046 386 1110 q 276 1054 314 1046 q 217 1074 238 1063 z "},"Î":{"ha":567,"x_min":8,"x_max":585,"o":"m 144 682 q 141 757 144 729 q 128 801 138 785 q 101 824 119 817 q 54 835 83 831 q 45 885 49 856 q 42 943 42 915 q 90 941 58 942 q 158 940 122 940 q 229 939 194 939 l 347 939 q 412 940 379 939 q 474 941 444 940 q 525 943 504 942 q 524 889 525 915 q 513 835 522 863 q 466 825 483 832 q 439 802 449 818 q 426 758 429 786 q 422 682 422 729 l 422 260 q 426 182 422 211 q 440 136 429 153 q 468 113 450 119 q 514 104 486 106 q 522 54 519 85 q 525 -4 525 24 q 435 -1 493 -1 q 304 0 376 0 q 161 -1 232 0 q 42 -4 90 -1 q 46 53 42 21 q 56 104 50 85 q 101 113 83 106 q 128 136 118 119 q 141 182 138 153 q 144 260 144 211 l 144 682 m 8 1104 q 131 1194 68 1144 q 242 1293 194 1244 q 299 1308 267 1303 q 363 1314 331 1314 q 460 1208 406 1263 q 585 1096 515 1154 q 533 1052 563 1071 q 460 1025 504 1033 q 370 1085 419 1054 q 274 1140 321 1117 q 231 1116 254 1131 q 183 1086 207 1101 q 135 1055 158 1071 q 94 1025 111 1039 q 38 1056 61 1032 q 8 1104 15 1081 z "},"Ï":{"ha":567,"x_min":-6,"x_max":614,"o":"m 144 682 q 141 757 144 729 q 128 801 138 785 q 101 824 119 817 q 54 835 83 831 q 45 885 49 856 q 42 943 42 915 q 90 941 58 942 q 158 940 122 940 q 229 939 194 939 l 347 939 q 412 940 379 939 q 474 941 444 940 q 525 943 504 942 q 524 889 525 915 q 513 835 522 863 q 466 825 483 832 q 439 802 449 818 q 426 758 429 786 q 422 682 422 729 l 422 260 q 426 182 422 211 q 440 136 429 153 q 468 113 450 119 q 514 104 486 106 q 522 54 519 85 q 525 -4 525 24 q 435 -1 493 -1 q 304 0 376 0 q 161 -1 232 0 q 42 -4 90 -1 q 46 53 42 21 q 56 104 50 85 q 101 113 83 106 q 128 136 118 119 q 141 182 138 153 q 144 260 144 211 l 144 682 m 129 1013 q 31 1045 68 1013 q -6 1124 -6 1078 q 2 1171 -6 1149 q 26 1210 10 1193 q 66 1238 42 1228 q 125 1249 90 1249 q 228 1214 196 1249 q 260 1126 260 1179 q 223 1045 260 1078 q 129 1013 186 1013 m 479 1249 q 576 1217 538 1249 q 614 1138 614 1185 q 607 1090 614 1113 q 585 1051 600 1068 q 545 1023 569 1033 q 486 1013 521 1013 q 381 1047 415 1013 q 346 1138 346 1082 q 383 1219 346 1190 q 479 1249 419 1249 z "},"J":{"ha":567,"x_min":0,"x_max":525,"o":"m 422 188 q 408 12 422 92 q 354 -133 394 -68 q 242 -251 314 -199 q 51 -346 169 -303 q 15 -300 26 -326 q 0 -243 3 -274 q 65 -190 38 -218 q 110 -126 93 -162 q 136 -38 128 -89 q 144 86 144 13 l 144 678 q 141 756 144 726 q 128 802 138 786 q 101 825 118 818 q 54 835 83 832 q 44 887 47 856 q 42 943 42 918 q 94 941 64 942 q 156 940 124 940 q 221 939 189 939 l 344 939 q 409 940 376 939 q 472 941 442 940 q 525 943 501 942 q 522 885 525 911 q 513 835 519 858 q 463 824 481 832 q 435 797 444 815 q 424 750 426 779 q 422 678 422 721 l 422 188 z "},"K":{"ha":1065,"x_min":42,"x_max":1051,"o":"m 144 682 q 141 757 144 729 q 128 801 138 785 q 101 824 119 817 q 54 835 83 831 q 45 885 49 856 q 42 943 42 915 q 90 941 58 942 q 158 940 122 940 q 229 939 194 939 l 347 939 q 412 940 379 939 q 474 941 444 940 q 525 943 504 942 q 524 889 525 915 q 513 835 522 863 q 466 825 483 832 q 439 802 449 818 q 426 758 429 786 q 422 682 422 729 l 422 521 l 610 707 q 658 763 642 739 q 676 802 674 786 q 667 826 678 818 q 639 835 657 833 q 629 888 632 858 q 626 943 626 918 q 698 940 653 940 q 783 939 743 939 l 835 939 q 897 940 865 939 q 956 941 929 940 q 996 943 983 942 q 992 887 996 919 q 981 835 988 854 q 881 806 928 832 q 785 731 833 781 l 636 576 q 756 418 703 494 q 869 244 815 333 q 957 140 915 171 q 1051 104 999 110 q 1049 47 1051 72 q 1035 0 1046 21 q 960 -1 1008 0 q 859 -3 913 -1 q 758 -6 806 -4 q 683 -12 710 -8 q 547 238 621 115 q 422 415 493 329 l 422 260 q 426 182 422 211 q 440 136 429 153 q 468 113 450 119 q 514 104 486 106 q 522 54 519 85 q 525 -4 525 24 q 435 -1 493 -1 q 304 0 376 0 q 161 -1 232 0 q 42 -4 90 -1 q 46 53 42 21 q 56 104 50 85 q 101 113 83 106 q 128 136 118 119 q 141 182 138 153 q 144 260 144 211 l 144 682 z "},"L":{"ha":890,"x_min":42,"x_max":876,"o":"m 554 104 q 666 149 625 104 q 735 293 707 193 q 819 276 781 289 q 876 246 858 263 q 850 131 861 197 q 833 -3 839 65 q 758 -2 803 -3 q 665 -1 714 -1 q 564 0 615 0 l 471 0 q 372 -1 435 0 q 244 -2 310 -1 q 122 -3 178 -3 q 42 -4 65 -4 q 44 56 42 26 q 53 104 47 85 q 99 113 81 106 q 127 136 117 119 q 141 182 138 153 q 144 260 144 211 l 144 682 q 141 757 144 729 q 127 801 138 785 q 99 824 117 817 q 51 835 81 831 q 44 888 46 856 q 42 943 42 919 q 102 941 75 942 q 157 940 129 940 q 214 939 185 939 l 342 939 q 408 940 375 939 q 473 941 442 940 q 525 943 504 942 q 524 886 525 915 q 513 835 522 857 q 466 825 483 832 q 439 802 449 818 q 426 758 429 786 q 422 682 422 729 l 422 267 q 427 187 422 218 q 444 138 432 156 q 478 112 457 119 q 531 104 499 104 l 554 104 z "},"M":{"ha":1386,"x_min":14,"x_max":1372,"o":"m 425 940 q 461 943 450 942 l 713 343 l 929 943 q 975 941 947 942 q 1031 940 1003 940 q 1086 939 1060 939 l 1171 939 q 1224 940 1197 939 q 1276 941 1251 940 q 1317 943 1301 942 q 1315 885 1317 914 q 1306 835 1313 856 q 1254 827 1274 835 q 1225 801 1235 819 q 1214 751 1215 782 q 1217 674 1213 719 l 1256 293 q 1268 195 1261 231 q 1287 141 1275 160 q 1317 115 1299 122 q 1363 106 1335 108 q 1372 -4 1372 61 q 1324 -2 1358 -3 q 1249 -1 1290 -1 q 1167 0 1208 0 l 1101 0 q 1044 -1 1076 0 q 982 -2 1013 -1 q 926 -3 951 -3 q 888 -4 900 -4 q 891 55 888 31 q 900 104 894 79 q 950 115 932 108 q 976 140 968 122 q 985 191 985 158 q 979 278 985 224 l 938 660 l 679 -1 q 631 -10 661 -8 q 575 -12 600 -12 l 282 656 l 249 342 q 242 223 242 268 q 253 152 243 178 q 283 116 264 126 q 331 104 301 106 q 340 53 338 81 q 342 -4 342 26 q 277 -1 321 -1 q 189 0 233 0 q 141 -1 167 0 q 90 -2 115 -1 q 44 -3 65 -3 q 14 -4 24 -4 q 16 53 14 26 q 25 104 18 81 q 71 117 51 106 q 105 154 90 128 q 128 225 119 181 q 144 336 138 269 l 175 675 q 178 756 179 725 q 167 805 176 788 q 138 828 157 822 q 89 835 118 835 q 80 885 82 860 q 78 943 78 910 q 119 941 93 942 q 174 940 146 940 q 229 939 203 939 l 317 939 q 373 940 344 939 q 425 940 401 940 z "},"N":{"ha":1010,"x_min":42,"x_max":967,"o":"m 638 943 q 675 941 651 942 q 725 940 699 940 q 776 939 751 939 l 819 939 q 899 940 856 939 q 967 943 942 940 q 966 889 967 917 q 957 835 965 861 q 913 822 929 831 q 886 793 896 814 q 873 735 876 772 q 869 636 869 697 l 869 0 q 812 -10 842 -8 q 743 -12 782 -12 l 269 628 l 269 303 q 274 206 269 243 q 290 148 278 169 q 324 117 303 126 q 379 104 346 108 q 388 52 386 81 q 389 -4 389 24 q 353 -2 374 -3 q 308 -1 332 -1 q 261 0 285 0 l 221 0 q 177 1 203 0 q 125 1 151 1 l 76 1 q 42 0 54 1 q 44 57 42 33 q 53 104 46 81 q 106 117 85 108 q 141 148 128 126 q 160 206 154 169 q 165 303 165 243 l 165 769 l 146 796 q 116 823 135 815 q 53 835 97 831 q 44 885 46 858 q 42 943 42 911 q 79 941 56 942 q 130 940 103 940 q 183 939 157 939 l 264 939 q 308 940 286 939 q 349 941 329 940 q 383 943 369 942 l 765 417 l 765 636 q 761 733 765 696 q 744 791 757 769 q 708 822 731 813 q 647 835 685 831 q 639 889 640 858 q 638 943 638 919 z "},"Ñ":{"ha":1010,"x_min":42,"x_max":967,"o":"m 638 943 q 675 941 651 942 q 725 940 699 940 q 776 939 751 939 l 819 939 q 899 940 856 939 q 967 943 942 940 q 966 889 967 917 q 957 835 965 861 q 913 822 929 831 q 886 793 896 814 q 873 735 876 772 q 869 636 869 697 l 869 0 q 812 -10 842 -8 q 743 -12 782 -12 l 269 628 l 269 303 q 274 206 269 243 q 290 148 278 169 q 324 117 303 126 q 379 104 346 108 q 388 52 386 81 q 389 -4 389 24 q 353 -2 374 -3 q 308 -1 332 -1 q 261 0 285 0 l 221 0 q 177 1 203 0 q 125 1 151 1 l 76 1 q 42 0 54 1 q 44 57 42 33 q 53 104 46 81 q 106 117 85 108 q 141 148 128 126 q 160 206 154 169 q 165 303 165 243 l 165 769 l 146 796 q 116 823 135 815 q 53 835 97 831 q 44 885 46 858 q 42 943 42 911 q 79 941 56 942 q 130 940 103 940 q 183 939 157 939 l 264 939 q 308 940 286 939 q 349 941 329 940 q 383 943 369 942 l 765 417 l 765 636 q 761 733 765 696 q 744 791 757 769 q 708 822 731 813 q 647 835 685 831 q 639 889 640 858 q 638 943 638 919 m 250 1004 q 216 1044 228 1024 q 200 1092 204 1064 q 263 1177 232 1143 q 322 1230 293 1211 q 376 1256 350 1249 q 425 1264 401 1264 q 486 1255 458 1264 q 538 1235 514 1246 q 585 1216 561 1225 q 633 1207 608 1207 q 701 1219 672 1207 q 750 1253 729 1232 q 788 1221 772 1239 q 811 1181 804 1203 q 719 1045 767 1090 q 607 1000 672 1000 q 543 1010 571 1000 q 492 1031 515 1019 q 444 1051 468 1042 q 390 1061 419 1061 q 316 1047 350 1061 q 250 1004 282 1032 z "},"O":{"ha":1057,"x_min":49,"x_max":1008,"o":"m 49 474 q 84 673 49 585 q 183 823 119 761 q 334 918 246 885 q 528 951 422 951 q 725 919 636 951 q 877 826 814 886 q 974 681 940 767 q 1008 492 1008 596 q 974 287 1008 379 q 878 128 940 194 q 726 24 815 61 q 528 -12 638 -12 q 326 23 415 -12 q 176 122 238 58 q 81 276 114 186 q 49 474 49 365 m 333 507 q 346 349 333 424 q 384 217 358 274 q 449 128 410 161 q 544 96 489 96 q 621 122 588 96 q 677 195 654 147 q 712 311 700 243 q 724 463 724 379 q 709 612 724 542 q 667 734 694 682 q 599 817 639 786 q 510 847 560 847 q 379 759 425 847 q 333 507 333 671 z "},"Ò":{"ha":1057,"x_min":49,"x_max":1008,"o":"m 49 474 q 84 673 49 585 q 183 823 119 761 q 334 918 246 885 q 528 951 422 951 q 725 919 636 951 q 877 826 814 886 q 974 681 940 767 q 1008 492 1008 596 q 974 287 1008 379 q 878 128 940 194 q 726 24 815 61 q 528 -12 638 -12 q 326 23 415 -12 q 176 122 238 58 q 81 276 114 186 q 49 474 49 365 m 333 507 q 346 349 333 424 q 384 217 358 274 q 449 128 410 161 q 544 96 489 96 q 621 122 588 96 q 677 195 654 147 q 712 311 700 243 q 724 463 724 379 q 709 612 724 542 q 667 734 694 682 q 599 817 639 786 q 510 847 560 847 q 379 759 425 847 q 333 507 333 671 m 621 1075 q 561 1056 594 1063 q 479 1050 528 1050 q 400 1154 440 1104 q 297 1261 360 1204 q 406 1294 347 1282 q 525 1306 464 1306 q 567 1191 540 1254 q 621 1075 593 1128 z "},"Ó":{"ha":1057,"x_min":49,"x_max":1008,"o":"m 49 474 q 84 673 49 585 q 183 823 119 761 q 334 918 246 885 q 528 951 422 951 q 725 919 636 951 q 877 826 814 886 q 974 681 940 767 q 1008 492 1008 596 q 974 287 1008 379 q 878 128 940 194 q 726 24 815 61 q 528 -12 638 -12 q 326 23 415 -12 q 176 122 238 58 q 81 276 114 186 q 49 474 49 365 m 333 507 q 346 349 333 424 q 384 217 358 274 q 449 128 410 161 q 544 96 489 96 q 621 122 588 96 q 677 195 654 147 q 712 311 700 243 q 724 463 724 379 q 709 612 724 542 q 667 734 694 682 q 599 817 639 786 q 510 847 560 847 q 379 759 425 847 q 333 507 333 671 m 494 1074 q 546 1185 526 1136 q 579 1290 565 1233 q 644 1304 607 1300 q 721 1308 682 1308 q 767 1307 744 1308 q 810 1303 790 1306 q 710 1174 756 1238 q 629 1046 664 1110 q 553 1054 592 1046 q 494 1074 515 1063 z "},"Ô":{"ha":1057,"x_min":49,"x_max":1008,"o":"m 49 474 q 84 673 49 585 q 183 823 119 761 q 334 918 246 885 q 528 951 422 951 q 725 919 636 951 q 877 826 814 886 q 974 681 940 767 q 1008 492 1008 596 q 974 287 1008 379 q 878 128 940 194 q 726 24 815 61 q 528 -12 638 -12 q 326 23 415 -12 q 176 122 238 58 q 81 276 114 186 q 49 474 49 365 m 333 507 q 346 349 333 424 q 384 217 358 274 q 449 128 410 161 q 544 96 489 96 q 621 122 588 96 q 677 195 654 147 q 712 311 700 243 q 724 463 724 379 q 709 612 724 542 q 667 734 694 682 q 599 817 639 786 q 510 847 560 847 q 379 759 425 847 q 333 507 333 671 m 239 1104 q 362 1194 299 1144 q 472 1293 425 1244 q 529 1308 497 1303 q 593 1314 561 1314 q 691 1208 636 1263 q 815 1096 746 1154 q 764 1052 793 1071 q 690 1025 735 1033 q 601 1085 650 1054 q 504 1140 551 1117 q 461 1116 485 1131 q 413 1086 438 1101 q 365 1055 389 1071 q 325 1025 342 1039 q 269 1056 292 1032 q 239 1104 246 1081 z "},"Õ":{"ha":1057,"x_min":49,"x_max":1008,"o":"m 49 474 q 84 673 49 585 q 183 823 119 761 q 334 918 246 885 q 528 951 422 951 q 725 919 636 951 q 877 826 814 886 q 974 681 940 767 q 1008 492 1008 596 q 974 287 1008 379 q 878 128 940 194 q 726 24 815 61 q 528 -12 638 -12 q 326 23 415 -12 q 176 122 238 58 q 81 276 114 186 q 49 474 49 365 m 333 507 q 346 349 333 424 q 384 217 358 274 q 449 128 410 161 q 544 96 489 96 q 621 122 588 96 q 677 195 654 147 q 712 311 700 243 q 724 463 724 379 q 709 612 724 542 q 667 734 694 682 q 599 817 639 786 q 510 847 560 847 q 379 759 425 847 q 333 507 333 671 m 308 1004 q 274 1044 286 1024 q 258 1092 263 1064 q 321 1177 290 1143 q 380 1230 351 1211 q 434 1256 408 1249 q 483 1264 460 1264 q 544 1255 517 1264 q 596 1235 572 1246 q 643 1216 619 1225 q 692 1207 667 1207 q 759 1219 731 1207 q 808 1253 788 1232 q 847 1221 831 1239 q 869 1181 863 1203 q 778 1045 825 1090 q 665 1000 731 1000 q 601 1010 629 1000 q 550 1031 574 1019 q 502 1051 526 1042 q 449 1061 478 1061 q 374 1047 408 1061 q 308 1004 340 1032 z "},"Ö":{"ha":1057,"x_min":49,"x_max":1008,"o":"m 49 474 q 84 673 49 585 q 183 823 119 761 q 334 918 246 885 q 528 951 422 951 q 725 919 636 951 q 877 826 814 886 q 974 681 940 767 q 1008 492 1008 596 q 974 287 1008 379 q 878 128 940 194 q 726 24 815 61 q 528 -12 638 -12 q 326 23 415 -12 q 176 122 238 58 q 81 276 114 186 q 49 474 49 365 m 333 507 q 346 349 333 424 q 384 217 358 274 q 449 128 410 161 q 544 96 489 96 q 621 122 588 96 q 677 195 654 147 q 712 311 700 243 q 724 463 724 379 q 709 612 724 542 q 667 734 694 682 q 599 817 639 786 q 510 847 560 847 q 379 759 425 847 q 333 507 333 671 m 344 1013 q 247 1045 283 1013 q 210 1124 210 1078 q 217 1171 210 1149 q 241 1210 225 1193 q 281 1238 257 1228 q 340 1249 306 1249 q 443 1214 411 1249 q 475 1126 475 1179 q 438 1045 475 1078 q 344 1013 401 1013 m 694 1249 q 791 1217 753 1249 q 829 1138 829 1185 q 822 1090 829 1113 q 800 1051 815 1068 q 760 1023 785 1033 q 701 1013 736 1013 q 596 1047 631 1013 q 561 1138 561 1082 q 598 1219 561 1190 q 694 1249 635 1249 z "},"Ø":{"ha":1057,"x_min":49,"x_max":1014,"o":"m 49 474 q 84 673 49 585 q 183 823 119 761 q 334 918 246 885 q 528 951 422 951 q 725 918 636 951 q 799 885 764 904 l 869 972 q 950 963 910 972 q 1014 939 990 954 l 901 800 q 974 681 947 749 q 1008 492 1008 596 q 974 287 1008 379 q 878 128 940 194 q 726 24 815 61 q 528 -12 638 -12 q 326 22 415 -12 q 286 40 306 31 l 222 -36 q 138 -28 176 -36 q 78 -6 100 -21 l 181 117 l 175 122 q 81 276 114 186 q 49 474 49 365 m 333 507 q 346 349 333 424 q 350 322 347 335 l 668 731 l 667 733 q 599 817 639 786 q 510 847 560 847 q 379 759 425 847 q 333 507 333 671 m 449 128 q 544 96 489 96 q 621 122 588 96 q 677 195 654 147 q 712 311 700 243 q 724 463 724 379 q 715 575 724 521 l 406 176 q 449 128 425 149 z "},"P":{"ha":921,"x_min":42,"x_max":893,"o":"m 482 832 q 422 822 447 832 l 422 274 q 429 198 422 229 q 454 147 436 167 q 501 117 472 128 q 574 104 529 107 q 584 51 582 81 q 586 -4 586 22 q 535 -2 567 -3 q 467 -1 504 -1 q 393 0 431 0 l 244 0 q 168 -1 206 0 q 98 -2 131 -1 q 42 -4 65 -3 q 44 59 42 33 q 51 104 46 85 q 97 113 79 106 q 126 136 115 119 q 140 182 136 153 q 144 260 144 211 l 144 682 q 141 757 144 729 q 128 801 138 785 q 101 824 119 817 q 54 835 83 831 q 45 883 49 856 q 42 943 42 910 q 164 940 108 940 q 282 939 219 939 q 415 940 344 939 q 583 942 485 942 q 728 917 669 942 q 824 851 788 893 q 877 755 861 810 q 893 639 893 700 q 870 506 893 568 q 804 397 847 443 q 700 325 761 351 q 564 299 639 299 q 468 313 504 299 q 481 413 458 369 q 496 410 489 410 l 511 410 q 554 420 533 410 q 592 455 575 431 q 619 518 608 479 q 629 614 629 557 q 620 701 629 661 q 592 769 611 740 q 546 815 574 799 q 482 832 518 832 z "},"Þ":{"ha":960,"x_min":43,"x_max":904,"o":"m 146 682 q 142 757 146 729 q 130 801 139 785 q 103 824 121 817 q 56 835 85 831 q 47 885 50 856 q 43 943 43 915 q 92 941 60 942 q 160 940 124 940 q 231 939 196 939 l 349 939 q 413 940 381 939 q 476 941 446 940 q 526 943 506 942 q 525 889 526 915 q 514 835 524 863 q 467 825 485 832 q 440 802 450 818 q 426 757 431 786 l 426 756 l 478 756 q 594 757 524 757 q 740 736 681 757 q 835 680 799 715 q 888 597 872 644 q 904 499 904 550 q 881 380 904 433 q 815 288 858 326 q 711 228 772 249 q 575 207 650 207 q 521 209 543 207 q 479 218 499 211 q 477 274 474 250 q 492 318 481 299 q 508 317 500 317 q 522 318 515 318 q 565 327 544 318 q 603 356 586 336 q 630 406 619 375 q 640 481 640 436 q 603 599 640 551 q 493 647 567 647 q 460 646 479 647 q 424 636 442 644 l 424 260 q 427 182 424 211 q 441 136 431 153 q 469 113 451 119 q 515 104 488 106 q 524 54 521 85 q 526 -4 526 24 q 436 -1 494 -1 q 306 0 378 0 q 163 -1 233 0 q 43 -4 92 -1 q 47 53 43 21 q 57 104 51 85 q 102 113 85 106 q 129 136 119 119 q 142 182 139 153 q 146 260 146 211 l 146 682 z "},"Q":{"ha":1049,"x_min":49,"x_max":1092,"o":"m 528 -12 q 326 23 415 -12 q 176 122 238 58 q 81 276 114 186 q 49 474 49 365 q 84 673 49 585 q 183 823 119 761 q 334 918 246 885 q 528 951 422 951 q 725 919 636 951 q 877 826 814 886 q 974 681 940 767 q 1008 492 1008 596 q 974 287 1008 379 q 878 128 940 194 q 728 25 815 61 q 763 11 747 19 q 828 -24 799 -6 q 883 -61 857 -43 q 938 -93 908 -79 q 1003 -115 967 -107 q 1090 -119 1040 -122 q 1088 -181 1092 -149 q 1076 -236 1083 -212 q 942 -260 1008 -243 q 819 -304 875 -278 q 759 -262 783 -289 q 716 -206 735 -236 q 680 -144 697 -175 q 642 -85 663 -112 q 595 -37 622 -57 q 528 -12 568 -18 m 333 507 q 346 349 333 424 q 384 217 358 274 q 449 128 410 161 q 544 96 489 96 q 621 122 588 96 q 677 195 654 147 q 712 311 700 243 q 724 463 724 379 q 709 612 724 542 q 667 734 694 682 q 599 817 639 786 q 510 847 560 847 q 379 759 425 847 q 333 507 333 671 z "},"R":{"ha":997,"x_min":42,"x_max":983,"o":"m 281 939 q 399 942 321 939 q 568 946 478 946 q 724 925 658 946 q 831 869 789 904 q 894 785 874 833 q 914 685 914 738 q 894 560 914 614 q 841 469 875 507 q 761 411 807 432 q 721 396 742 401 q 747 383 736 390 q 788 350 769 372 q 826 292 807 328 q 874 201 846 257 q 899 157 888 174 q 922 130 910 140 q 949 115 935 119 q 983 108 963 110 q 968 -1 983 51 q 772 -4 858 -1 q 650 -12 686 -7 q 615 92 633 36 q 574 200 596 147 q 547 266 558 239 q 522 313 535 293 q 493 346 508 332 q 475 360 485 353 l 463 360 q 432 360 447 360 l 422 360 l 422 274 q 426 183 422 217 q 438 133 429 150 q 458 110 446 115 q 490 104 471 106 q 498 58 496 89 q 500 -4 500 26 q 449 -2 481 -3 q 383 -1 418 -1 q 315 0 349 0 l 257 0 q 145 -1 200 0 q 42 -4 90 -1 q 44 58 42 32 q 53 104 47 85 q 99 113 81 106 q 127 136 117 119 q 141 182 138 153 q 144 260 144 211 l 144 685 q 141 760 144 732 q 127 803 138 788 q 99 826 117 819 q 51 838 81 833 q 47 863 49 847 q 44 894 44 878 q 42 924 43 910 q 42 944 42 938 q 146 940 83 942 q 281 939 208 939 m 481 838 q 422 828 450 838 l 422 486 q 443 483 436 483 q 464 482 454 482 q 522 492 493 482 q 574 524 551 503 q 610 576 596 544 q 624 651 624 608 q 585 790 624 742 q 481 838 546 838 z "},"S":{"ha":743,"x_min":39,"x_max":715,"o":"m 382 951 q 542 936 472 951 q 647 900 611 921 q 649 777 647 838 q 657 681 651 717 q 582 658 628 664 q 501 651 536 651 q 480 745 493 708 q 448 803 467 782 q 406 832 429 824 q 353 840 382 840 q 287 820 317 840 q 257 756 257 800 q 291 682 257 711 q 376 628 325 653 q 486 577 426 603 q 597 514 546 551 q 681 421 647 476 q 715 282 715 365 q 688 161 715 215 q 613 68 661 107 q 498 8 564 29 q 353 -12 432 -12 q 256 -8 299 -12 q 178 5 214 -4 q 110 28 143 14 q 39 64 76 43 q 53 183 50 122 q 57 300 57 243 q 140 314 97 311 q 224 317 183 317 q 235 210 228 251 q 259 144 243 168 q 300 111 275 121 q 365 101 325 101 q 451 127 417 101 q 485 196 485 153 q 453 264 485 238 q 374 313 422 290 q 272 363 326 336 q 169 429 217 389 q 90 530 121 469 q 58 683 58 590 q 84 800 58 750 q 153 883 110 850 q 256 934 197 917 q 382 951 315 951 z "},"T":{"ha":999,"x_min":35,"x_max":964,"o":"m 357 835 l 354 835 q 239 791 278 835 q 178 657 200 747 q 101 660 139 657 q 35 678 64 664 q 48 740 42 706 q 59 809 54 774 q 67 879 64 844 q 69 943 69 914 q 155 941 113 942 q 247 940 197 940 q 357 939 296 939 l 639 939 q 749 940 699 939 q 843 941 799 940 q 931 943 888 942 q 940 813 931 885 q 964 679 949 742 q 899 663 936 668 q 819 657 863 657 q 767 792 800 750 q 663 835 733 835 l 635 835 l 635 260 q 640 182 635 211 q 660 136 646 153 q 701 113 675 119 q 771 104 728 106 q 781 54 778 85 q 785 -4 785 24 q 674 -1 746 -1 q 514 0 603 0 l 422 0 q 332 -1 375 0 q 252 -2 289 -1 q 193 -4 215 -3 q 198 53 193 21 q 210 104 203 85 q 281 113 253 106 q 326 136 310 119 q 350 182 343 153 q 357 260 357 211 l 357 835 z "},"U":{"ha":954,"x_min":28,"x_max":926,"o":"m 828 385 q 810 187 828 264 q 744 61 793 110 q 640 4 701 21 q 499 -12 579 -12 q 324 7 394 -12 q 210 68 253 26 q 149 175 167 110 q 131 332 131 240 l 131 675 q 126 753 131 724 q 112 799 122 782 q 84 823 101 815 q 39 835 67 831 q 28 943 28 882 q 108 940 56 940 q 217 939 160 939 l 286 939 q 372 940 329 939 q 452 941 415 940 q 506 943 489 942 q 504 884 506 910 q 497 835 503 858 q 452 823 469 831 q 425 799 435 815 q 412 752 415 782 q 408 675 408 722 l 408 356 q 447 163 408 225 q 564 100 485 100 q 628 114 596 100 q 683 160 661 128 q 712 239 701 186 q 722 399 722 292 l 722 649 q 717 734 722 700 q 702 789 713 768 q 674 819 692 810 q 631 835 656 829 q 622 943 622 890 q 656 941 636 942 q 699 940 676 940 q 742 939 721 939 l 778 939 q 859 940 818 939 q 926 943 900 940 q 924 885 926 913 q 915 835 922 858 q 871 822 888 831 q 844 792 854 813 q 831 740 835 772 q 828 661 828 708 l 828 385 z "},"Ù":{"ha":954,"x_min":28,"x_max":926,"o":"m 828 385 q 810 187 828 264 q 744 61 793 110 q 640 4 701 21 q 499 -12 579 -12 q 324 7 394 -12 q 210 68 253 26 q 149 175 167 110 q 131 332 131 240 l 131 675 q 126 753 131 724 q 112 799 122 782 q 84 823 101 815 q 39 835 67 831 q 28 943 28 882 q 108 940 56 940 q 217 939 160 939 l 286 939 q 372 940 329 939 q 452 941 415 940 q 506 943 489 942 q 504 884 506 910 q 497 835 503 858 q 452 823 469 831 q 425 799 435 815 q 412 752 415 782 q 408 675 408 722 l 408 356 q 447 163 408 225 q 564 100 485 100 q 628 114 596 100 q 683 160 661 128 q 712 239 701 186 q 722 399 722 292 l 722 649 q 717 734 722 700 q 702 789 713 768 q 674 819 692 810 q 631 835 656 829 q 622 943 622 890 q 656 941 636 942 q 699 940 676 940 q 742 939 721 939 l 778 939 q 859 940 818 939 q 926 943 900 940 q 924 885 926 913 q 915 835 922 858 q 871 822 888 831 q 844 792 854 813 q 831 740 835 772 q 828 661 828 708 l 828 385 m 622 1075 q 563 1056 596 1063 q 481 1050 529 1050 q 401 1154 442 1104 q 299 1261 361 1204 q 407 1294 349 1282 q 526 1306 465 1306 q 568 1191 542 1254 q 622 1075 594 1128 z "},"Ú":{"ha":954,"x_min":28,"x_max":926,"o":"m 828 385 q 810 187 828 264 q 744 61 793 110 q 640 4 701 21 q 499 -12 579 -12 q 324 7 394 -12 q 210 68 253 26 q 149 175 167 110 q 131 332 131 240 l 131 675 q 126 753 131 724 q 112 799 122 782 q 84 823 101 815 q 39 835 67 831 q 28 943 28 882 q 108 940 56 940 q 217 939 160 939 l 286 939 q 372 940 329 939 q 452 941 415 940 q 506 943 489 942 q 504 884 506 910 q 497 835 503 858 q 452 823 469 831 q 425 799 435 815 q 412 752 415 782 q 408 675 408 722 l 408 356 q 447 163 408 225 q 564 100 485 100 q 628 114 596 100 q 683 160 661 128 q 712 239 701 186 q 722 399 722 292 l 722 649 q 717 734 722 700 q 702 789 713 768 q 674 819 692 810 q 631 835 656 829 q 622 943 622 890 q 656 941 636 942 q 699 940 676 940 q 742 939 721 939 l 778 939 q 859 940 818 939 q 926 943 900 940 q 924 885 926 913 q 915 835 922 858 q 871 822 888 831 q 844 792 854 813 q 831 740 835 772 q 828 661 828 708 l 828 385 m 476 1074 q 528 1185 508 1136 q 561 1290 547 1233 q 626 1304 589 1300 q 703 1308 664 1308 q 749 1307 726 1308 q 792 1303 772 1306 q 692 1174 738 1238 q 611 1046 646 1110 q 535 1054 574 1046 q 476 1074 497 1063 z "},"Û":{"ha":954,"x_min":28,"x_max":926,"o":"m 828 385 q 810 187 828 264 q 744 61 793 110 q 640 4 701 21 q 499 -12 579 -12 q 324 7 394 -12 q 210 68 253 26 q 149 175 167 110 q 131 332 131 240 l 131 675 q 126 753 131 724 q 112 799 122 782 q 84 823 101 815 q 39 835 67 831 q 28 943 28 882 q 108 940 56 940 q 217 939 160 939 l 286 939 q 372 940 329 939 q 452 941 415 940 q 506 943 489 942 q 504 884 506 910 q 497 835 503 858 q 452 823 469 831 q 425 799 435 815 q 412 752 415 782 q 408 675 408 722 l 408 356 q 447 163 408 225 q 564 100 485 100 q 628 114 596 100 q 683 160 661 128 q 712 239 701 186 q 722 399 722 292 l 722 649 q 717 734 722 700 q 702 789 713 768 q 674 819 692 810 q 631 835 656 829 q 622 943 622 890 q 656 941 636 942 q 699 940 676 940 q 742 939 721 939 l 778 939 q 859 940 818 939 q 926 943 900 940 q 924 885 926 913 q 915 835 922 858 q 871 822 888 831 q 844 792 854 813 q 831 740 835 772 q 828 661 828 708 l 828 385 m 247 1104 q 370 1194 307 1144 q 481 1293 433 1244 q 538 1308 506 1303 q 601 1314 569 1314 q 699 1208 644 1263 q 824 1096 754 1154 q 772 1052 801 1071 q 699 1025 743 1033 q 609 1085 658 1054 q 513 1140 560 1117 q 469 1116 493 1131 q 422 1086 446 1101 q 374 1055 397 1071 q 333 1025 350 1039 q 277 1056 300 1032 q 247 1104 254 1081 z "},"Ü":{"ha":954,"x_min":28,"x_max":926,"o":"m 828 385 q 810 187 828 264 q 744 61 793 110 q 640 4 701 21 q 499 -12 579 -12 q 324 7 394 -12 q 210 68 253 26 q 149 175 167 110 q 131 332 131 240 l 131 675 q 126 753 131 724 q 112 799 122 782 q 84 823 101 815 q 39 835 67 831 q 28 943 28 882 q 108 940 56 940 q 217 939 160 939 l 286 939 q 372 940 329 939 q 452 941 415 940 q 506 943 489 942 q 504 884 506 910 q 497 835 503 858 q 452 823 469 831 q 425 799 435 815 q 412 752 415 782 q 408 675 408 722 l 408 356 q 447 163 408 225 q 564 100 485 100 q 628 114 596 100 q 683 160 661 128 q 712 239 701 186 q 722 399 722 292 l 722 649 q 717 734 722 700 q 702 789 713 768 q 674 819 692 810 q 631 835 656 829 q 622 943 622 890 q 656 941 636 942 q 699 940 676 940 q 742 939 721 939 l 778 939 q 859 940 818 939 q 926 943 900 940 q 924 885 926 913 q 915 835 922 858 q 871 822 888 831 q 844 792 854 813 q 831 740 835 772 q 828 661 828 708 l 828 385 m 335 1013 q 237 1045 274 1013 q 200 1124 200 1078 q 208 1171 200 1149 q 231 1210 215 1193 q 272 1238 247 1228 q 331 1249 296 1249 q 433 1214 401 1249 q 465 1126 465 1179 q 428 1045 465 1078 q 335 1013 392 1013 m 685 1249 q 781 1217 743 1249 q 819 1138 819 1185 q 813 1090 819 1113 q 790 1051 806 1068 q 751 1023 775 1033 q 692 1013 726 1013 q 586 1047 621 1013 q 551 1138 551 1082 q 588 1219 551 1190 q 685 1249 625 1249 z "},"V":{"ha":982,"x_min":14,"x_max":968,"o":"m 435 699 q 483 590 460 642 q 527 486 506 539 q 568 375 549 433 q 589 311 579 344 q 614 372 603 343 q 656 486 636 431 q 694 600 675 542 q 736 729 714 658 q 738 799 749 769 q 683 835 728 828 q 675 878 678 853 q 672 943 672 903 q 704 941 685 942 q 746 940 724 940 q 790 939 768 939 l 831 939 q 906 940 865 939 q 968 943 947 940 q 964 884 968 911 q 954 835 960 857 q 922 823 936 831 q 894 799 907 815 q 869 758 882 783 q 843 694 857 732 q 716 353 781 522 q 581 0 651 183 q 521 -11 557 -10 q 453 -12 485 -12 q 303 338 378 167 q 149 669 228 508 q 109 749 125 718 q 79 797 93 779 q 53 824 65 815 q 25 835 40 832 q 14 943 14 872 q 63 941 32 942 q 128 940 94 940 q 193 939 163 939 l 283 939 q 342 940 310 939 q 408 941 374 940 q 476 943 443 942 q 474 877 476 903 q 465 835 471 851 q 425 822 439 831 q 408 799 411 814 q 413 759 406 783 q 435 699 419 735 z "},"W":{"ha":1368,"x_min":14,"x_max":1354,"o":"m 14 943 q 63 941 31 942 q 131 940 96 940 q 199 939 167 939 l 293 939 q 358 940 324 939 q 427 941 393 940 q 486 943 461 942 q 484 887 486 914 q 475 835 482 860 q 425 822 443 831 q 401 795 407 813 q 400 748 394 778 q 422 672 406 718 q 479 501 450 593 q 513 396 494 453 l 701 939 q 759 948 728 946 q 818 950 790 950 q 888 779 856 860 q 952 619 921 699 q 1015 458 983 540 q 1046 378 1031 419 l 1121 636 q 1140 724 1136 689 q 1134 783 1143 760 q 1104 817 1125 806 q 1050 835 1083 829 q 1038 888 1040 858 q 1036 943 1036 917 q 1071 941 1050 942 q 1115 940 1092 940 q 1160 939 1138 939 l 1239 939 q 1281 940 1260 939 q 1321 941 1301 940 q 1354 943 1340 942 q 1353 888 1354 915 q 1342 835 1351 861 q 1308 816 1322 828 q 1280 783 1293 804 q 1254 726 1267 761 q 1226 636 1242 690 l 1047 0 q 1018 -6 1036 -3 q 979 -10 1000 -8 q 937 -12 958 -11 q 897 -12 915 -12 q 835 151 865 74 q 775 303 806 228 q 713 457 744 379 q 678 542 696 499 l 490 -3 q 457 -8 476 -6 q 417 -11 438 -10 q 378 -12 397 -12 l 346 -12 q 233 346 288 175 q 133 649 178 517 q 99 745 113 710 q 75 799 86 781 q 52 824 64 818 q 24 831 40 829 q 15 884 17 856 q 14 943 14 913 z "},"X":{"ha":1000,"x_min":21,"x_max":979,"o":"m 517 703 q 582 601 549 653 l 633 681 q 684 794 685 761 q 638 835 683 828 q 629 887 631 858 q 628 943 628 915 q 668 940 644 942 l 715 939 q 761 939 739 939 l 836 939 q 881 940 858 939 q 924 941 903 940 q 957 943 944 942 q 956 886 957 913 q 947 835 954 860 q 893 817 915 826 q 851 792 871 808 q 812 751 832 776 q 765 683 792 725 l 646 501 q 656 486 650 494 q 712 396 688 436 q 749 335 736 356 q 824 214 794 258 q 877 147 854 169 q 920 116 900 124 q 967 104 940 108 q 977 54 975 81 q 979 -4 979 28 q 934 -2 964 -3 q 867 -1 904 -1 q 792 0 831 0 l 650 0 q 580 -1 614 0 q 517 -2 546 -1 q 474 -3 489 -3 q 475 51 474 26 q 483 104 476 76 q 519 113 507 106 q 527 139 531 119 q 504 197 524 158 q 446 301 485 235 q 421 343 436 318 l 374 274 q 324 194 340 225 q 307 144 308 163 q 319 117 306 126 q 358 104 332 108 q 367 51 365 78 q 369 -4 369 25 q 283 -1 333 -1 q 193 0 232 0 l 149 0 q 101 -1 125 0 q 56 -2 78 -1 q 21 -4 35 -3 q 24 58 21 28 q 33 107 26 88 q 90 127 64 115 q 142 159 117 139 q 193 208 168 179 q 247 276 218 236 l 361 438 q 343 467 353 451 q 275 574 311 518 q 206 682 239 631 q 152 758 174 729 q 114 802 131 786 q 83 824 97 818 q 49 833 68 829 q 38 887 40 861 q 36 943 36 913 q 90 941 54 942 q 167 940 125 940 q 250 939 208 939 l 324 939 q 442 940 388 939 q 528 942 496 940 q 526 889 528 915 q 518 835 524 863 q 484 824 497 831 q 469 804 471 818 q 479 766 468 790 q 517 703 490 742 z "},"Y":{"ha":861,"x_min":14,"x_max":847,"o":"m 578 399 l 578 275 q 583 192 578 224 q 602 141 588 160 q 644 115 617 122 q 715 104 671 107 q 727 52 725 75 q 729 -4 729 29 q 590 -1 668 -1 q 432 0 511 0 q 277 -1 353 0 q 136 -4 201 -3 q 140 53 138 26 q 153 104 143 81 q 232 115 203 108 q 276 139 261 121 q 296 189 292 157 q 300 276 300 221 l 300 406 l 117 753 q 70 817 92 801 q 25 835 49 832 q 16 883 18 858 q 14 942 14 907 q 71 940 39 940 q 135 939 103 939 l 363 939 q 428 940 396 939 q 481 942 460 940 q 478 882 481 906 q 471 835 475 858 q 439 823 449 832 q 428 801 429 814 q 432 771 426 788 q 446 736 438 754 q 496 621 468 690 q 535 525 515 574 q 571 617 553 574 q 625 735 597 678 q 635 803 644 775 q 588 835 626 832 q 578 882 581 858 q 575 942 575 906 q 644 939 613 939 l 782 939 q 847 942 814 939 q 844 880 847 906 q 835 835 840 854 q 812 827 822 832 q 791 810 801 822 q 767 776 781 799 q 736 718 754 754 l 578 399 z "},"Ý":{"ha":861,"x_min":14,"x_max":847,"o":"m 578 399 l 578 275 q 583 192 578 224 q 602 141 588 160 q 644 115 617 122 q 715 104 671 107 q 727 52 725 75 q 729 -4 729 29 q 590 -1 668 -1 q 432 0 511 0 q 277 -1 353 0 q 136 -4 201 -3 q 140 53 138 26 q 153 104 143 81 q 232 115 203 108 q 276 139 261 121 q 296 189 292 157 q 300 276 300 221 l 300 406 l 117 753 q 70 817 92 801 q 25 835 49 832 q 16 883 18 858 q 14 942 14 907 q 71 940 39 940 q 135 939 103 939 l 363 939 q 428 940 396 939 q 481 942 460 940 q 478 882 481 906 q 471 835 475 858 q 439 823 449 832 q 428 801 429 814 q 432 771 426 788 q 446 736 438 754 q 496 621 468 690 q 535 525 515 574 q 571 617 553 574 q 625 735 597 678 q 635 803 644 775 q 588 835 626 832 q 578 882 581 858 q 575 942 575 906 q 644 939 613 939 l 782 939 q 847 942 814 939 q 844 880 847 906 q 835 835 840 854 q 812 827 822 832 q 791 810 801 822 q 767 776 781 799 q 736 718 754 754 l 578 399 m 431 1074 q 482 1185 463 1136 q 515 1290 501 1233 q 581 1304 543 1300 q 657 1308 618 1308 q 703 1307 681 1308 q 746 1303 726 1306 q 646 1174 692 1238 q 565 1046 600 1110 q 490 1054 528 1046 q 431 1074 451 1063 z "},"Z":{"ha":814,"x_min":42,"x_max":772,"o":"m 94 942 q 162 940 121 940 q 249 939 203 939 l 576 939 q 657 940 618 939 q 728 942 696 940 q 747 898 740 921 q 757 844 754 875 q 656 640 704 736 q 558 449 608 543 q 456 260 508 356 q 367 104 414 185 l 417 104 q 494 112 463 104 q 550 141 526 119 q 590 199 574 163 q 622 294 607 236 q 772 254 713 288 q 760 198 767 231 q 747 130 753 165 q 738 59 742 94 q 733 -4 733 24 q 647 -2 693 -3 q 553 -1 600 -1 q 460 0 506 0 l 375 0 q 213 -1 292 0 q 69 -4 133 -1 q 49 40 57 14 q 42 94 42 65 q 158 299 104 204 q 260 487 211 394 q 358 672 310 579 q 440 835 399 749 l 367 835 q 311 826 335 835 q 269 796 288 818 q 235 734 250 774 q 207 633 221 694 q 124 638 163 633 q 60 653 86 642 q 86 799 78 719 q 94 942 94 879 z "},"`":{"ha":369,"x_min":-39,"x_max":285,"o":"m 285 765 q 225 747 258 753 q 143 740 192 740 q 64 844 104 794 q -39 951 24 894 q 69 984 11 972 q 189 996 128 996 q 231 881 204 944 q 285 765 257 818 z "},"´":{"ha":750,"x_min":313,"x_max":628,"o":"m 313 764 q 364 875 344 826 q 397 981 383 924 q 463 994 425 990 q 539 999 500 999 q 585 997 563 999 q 628 993 608 996 q 528 864 574 928 q 447 736 482 800 q 372 744 410 736 q 313 764 333 753 z "},"ˆ":{"ha":750,"x_min":86,"x_max":663,"o":"m 86 794 q 209 885 146 835 q 319 983 272 935 q 376 999 344 993 q 440 1004 408 1004 q 538 899 483 953 q 663 786 593 844 q 611 742 640 761 q 538 715 582 724 q 448 776 497 744 q 351 831 399 807 q 308 806 332 821 q 260 776 285 792 q 213 745 236 761 q 172 715 189 729 q 116 747 139 722 q 86 794 93 771 z "},"˜":{"ha":750,"x_min":61,"x_max":672,"o":"m 111 694 q 77 734 89 714 q 61 782 65 754 q 124 867 93 833 q 183 920 154 901 q 237 947 211 939 q 286 954 263 954 q 347 945 319 954 q 399 926 375 936 q 446 906 422 915 q 494 897 469 897 q 562 910 533 897 q 611 943 590 922 q 649 911 633 929 q 672 871 665 893 q 581 735 628 781 q 468 690 533 690 q 404 700 432 690 q 353 721 376 710 q 305 742 329 732 q 251 751 281 751 q 177 737 211 751 q 111 694 143 722 z "},"¨":{"ha":750,"x_min":167,"x_max":786,"o":"m 301 703 q 203 735 240 703 q 167 814 167 768 q 174 861 167 839 q 198 901 182 883 q 238 928 214 918 q 297 939 263 939 q 400 904 368 939 q 432 817 432 869 q 395 735 432 768 q 301 703 358 703 m 651 939 q 748 907 710 939 q 786 828 786 875 q 779 781 786 803 q 757 741 772 758 q 717 713 742 724 q 658 703 693 703 q 553 738 588 703 q 518 828 518 772 q 555 910 518 881 q 651 939 592 939 z "},"˚":{"ha":750,"x_min":236,"x_max":617,"o":"m 236 860 q 292 972 236 931 q 433 1013 347 1013 q 506 1004 472 1013 q 564 978 539 996 q 603 935 589 961 q 617 871 617 908 q 563 759 617 801 q 418 717 508 717 q 288 754 340 717 q 236 860 236 792 m 381 868 q 394 819 381 839 q 431 800 407 800 q 461 816 449 800 q 474 860 474 832 q 462 910 474 885 q 422 936 450 936 q 392 918 403 936 q 381 868 381 900 z "},"¯":{"ha":750,"x_min":107,"x_max":640,"o":"m 640 876 q 638 839 640 861 q 628 796 635 817 q 385 793 518 796 q 107 782 251 790 q 110 830 107 803 q 119 876 113 857 l 640 876 z "},"¸":{"ha":750,"x_min":288,"x_max":544,"o":"m 483 22 l 421 -60 q 513 -107 482 -69 q 544 -192 544 -144 q 481 -299 544 -262 q 300 -336 418 -336 q 290 -301 293 -321 q 288 -265 288 -281 q 364 -250 332 -265 q 396 -204 396 -235 q 373 -167 396 -181 q 315 -153 350 -153 q 290 -87 290 -124 l 381 22 l 483 22 z "},"ﬁ":{"ha":1113,"x_min":38,"x_max":1068,"o":"m 701 382 q 697 431 701 410 q 680 465 693 451 q 643 485 667 478 q 582 494 619 493 q 528 493 556 494 q 477 490 501 492 q 434 484 453 488 q 406 478 415 481 l 406 274 q 410 193 406 224 q 424 144 414 163 q 454 117 435 125 q 503 104 474 108 q 511 55 510 83 q 513 -4 513 26 q 289 0 426 0 l 218 0 q 149 -1 182 0 q 86 -2 115 -1 q 39 -4 57 -3 q 40 54 39 28 q 49 104 42 81 q 94 112 76 106 q 123 135 113 118 q 138 180 133 151 q 142 254 142 208 l 142 488 q 90 505 118 497 q 38 513 63 513 q 42 575 38 549 q 58 622 47 601 l 142 622 l 142 667 q 171 800 142 739 q 258 904 200 861 q 404 972 317 947 q 608 996 492 996 q 727 991 676 996 q 815 978 778 986 q 879 962 853 971 q 924 944 906 953 q 910 852 913 900 q 907 756 907 804 q 803 727 863 736 q 676 718 743 718 q 665 800 672 767 q 644 853 657 833 q 608 882 631 874 q 551 890 586 890 q 437 842 468 890 q 406 710 406 794 l 406 622 l 638 622 q 781 631 704 624 q 918 649 858 638 q 950 623 935 642 q 965 571 965 604 l 965 225 q 970 165 965 188 q 986 128 975 142 q 1015 110 997 115 q 1056 104 1032 106 q 1066 55 1064 83 q 1068 -4 1068 26 q 1022 -2 1051 -3 q 960 -1 993 -1 q 893 0 926 0 l 775 0 q 710 -1 743 0 q 649 -2 678 -1 q 599 -4 619 -3 q 602 57 599 29 q 610 104 606 85 q 655 111 638 106 q 683 129 672 117 q 697 164 693 142 q 701 221 701 186 l 701 382 z "},"ﬂ":{"ha":1140,"x_min":38,"x_max":1092,"o":"m 725 768 q 713 818 722 797 q 679 860 700 844 q 633 883 658 875 q 581 890 607 890 q 509 881 542 890 q 453 851 476 872 q 418 796 431 831 q 406 710 406 761 l 406 622 l 568 622 q 565 557 568 589 q 554 507 563 525 q 480 503 514 507 q 406 485 446 499 l 406 274 q 410 198 406 229 q 426 147 414 167 q 459 117 438 128 q 515 104 481 107 q 526 51 524 81 q 528 -4 528 22 q 423 -1 488 -1 q 292 0 358 0 q 152 -1 217 0 q 39 -4 88 -1 q 41 59 39 33 q 49 104 43 85 q 94 113 76 106 q 123 136 113 119 q 138 182 133 153 q 142 260 142 211 l 142 496 q 83 509 110 506 q 38 513 57 513 q 42 572 38 542 q 57 622 46 603 l 142 622 l 142 663 q 175 808 142 746 q 268 913 208 871 q 410 975 328 954 q 590 996 493 996 q 708 982 649 996 q 792 957 758 971 q 835 964 813 960 q 895 979 867 971 q 940 996 924 988 q 976 964 964 985 q 989 907 989 943 l 989 225 q 993 167 989 190 q 1008 131 997 144 q 1035 112 1018 118 q 1081 104 1053 106 q 1090 58 1088 85 q 1092 -4 1092 31 q 1054 -2 1079 -3 q 997 -1 1029 -1 q 929 0 965 0 l 785 0 q 717 -1 749 0 q 660 -2 685 -1 q 622 -4 635 -3 q 625 58 622 31 q 635 104 628 85 q 680 112 663 106 q 708 131 697 118 q 722 167 718 144 q 725 225 725 190 l 725 768 z "},"":{"ha":1057,"x_min":38,"x_max":965,"o":"m 701 382 q 697 431 701 410 q 680 465 693 451 q 643 485 667 478 q 582 494 619 493 q 528 493 556 494 q 477 490 501 492 q 434 484 453 488 q 406 478 415 481 l 406 274 q 410 193 406 224 q 424 144 414 163 q 454 117 435 125 q 503 104 474 108 q 511 55 510 83 q 513 -4 513 26 q 289 0 426 0 l 218 0 q 149 -1 182 0 q 86 -2 115 -1 q 39 -4 57 -3 q 40 54 39 28 q 49 104 42 81 q 94 112 76 106 q 123 135 113 118 q 138 180 133 151 q 142 254 142 208 l 142 488 q 90 505 118 497 q 38 513 63 513 q 42 575 38 549 q 58 622 47 601 l 142 622 l 142 667 q 171 800 142 739 q 258 904 200 861 q 404 972 317 947 q 608 996 492 996 q 727 991 676 996 q 815 978 778 986 q 879 962 853 971 q 924 944 906 953 q 910 852 913 900 q 907 756 907 804 q 803 727 863 736 q 676 718 743 718 q 665 800 672 767 q 644 853 657 833 q 608 882 631 874 q 551 890 586 890 q 437 842 468 890 q 406 710 406 794 l 406 622 l 638 622 q 781 631 704 624 q 918 649 858 638 q 950 623 935 642 q 965 571 965 604 l 965 115 q 933 -51 965 24 q 854 -183 901 -125 q 751 -281 807 -240 q 647 -346 694 -322 q 603 -304 621 -332 q 582 -243 586 -276 q 638 -178 615 -210 q 675 -112 661 -146 q 695 -38 689 -78 q 701 51 701 1 l 701 382 z "},"":{"ha":1168,"x_min":38,"x_max":1154,"o":"m 142 622 l 142 635 q 175 781 142 718 q 268 885 208 843 q 410 947 328 926 q 590 968 493 968 q 711 953 649 968 q 814 918 767 940 l 835 922 q 895 938 867 929 q 940 954 924 946 q 976 922 964 943 q 989 865 989 901 l 989 622 l 1151 622 q 1148 560 1151 586 q 1138 511 1144 535 q 989 486 1053 511 l 989 258 q 992 181 989 210 q 1003 135 996 151 q 1024 114 1011 119 q 1054 108 1036 108 q 1093 113 1071 108 q 1133 124 1115 117 q 1149 86 1143 110 q 1154 35 1154 63 q 1067 1 1124 14 q 949 -12 1011 -12 q 781 44 838 -12 q 725 242 725 101 l 725 496 q 678 509 703 506 q 621 513 653 513 q 625 570 621 544 q 640 622 629 596 l 725 622 l 725 731 q 713 791 725 765 q 679 832 700 817 q 633 855 658 847 q 581 863 607 863 q 509 853 542 863 q 453 824 476 844 q 418 768 431 803 q 406 682 406 733 l 406 622 l 568 622 q 565 557 568 589 q 554 507 563 525 q 480 503 514 507 q 406 485 446 499 l 406 274 q 413 198 406 229 q 438 147 419 167 q 484 117 456 128 q 557 104 513 107 q 567 51 565 81 q 569 -4 569 22 q 521 -2 550 -3 q 458 -1 492 -1 q 388 0 424 0 l 242 0 q 165 -1 203 0 q 95 -2 128 -1 q 39 -4 63 -3 q 41 59 39 33 q 49 104 43 85 q 94 113 76 106 q 123 136 113 119 q 138 182 133 153 q 142 260 142 211 l 142 496 q 83 509 110 506 q 38 513 57 513 q 42 572 38 542 q 57 622 46 603 l 142 622 z "},"":{"ha":1697,"x_min":38,"x_max":1683,"o":"m 1254 622 l 1254 731 q 1242 791 1254 765 q 1208 832 1229 817 q 1162 855 1188 847 q 1110 863 1136 863 q 1038 853 1071 863 q 983 824 1006 844 q 947 768 960 803 q 935 682 935 733 l 935 622 l 1097 622 q 1094 557 1097 589 q 1083 507 1092 525 q 1009 503 1043 507 q 935 485 975 499 l 935 274 q 942 198 935 229 q 967 147 949 167 q 1013 117 985 128 q 1086 104 1042 107 q 1097 51 1094 81 q 1099 -4 1099 22 q 1050 -2 1079 -3 q 987 -1 1021 -1 q 917 0 953 0 l 771 0 q 694 -1 732 0 q 624 -2 657 -1 q 568 -4 592 -3 q 570 59 568 33 q 578 104 572 85 q 624 113 606 106 q 652 136 642 119 q 667 182 663 153 q 671 260 671 211 l 671 494 q 605 508 636 504 q 554 511 574 511 q 480 505 514 511 q 406 485 446 499 l 406 274 q 410 189 406 221 q 425 139 414 157 q 454 114 436 121 q 501 104 472 107 q 512 51 510 81 q 514 -4 514 22 q 416 -1 474 -1 q 292 0 358 0 q 152 -1 217 0 q 39 -4 88 -1 q 41 59 39 33 q 49 104 43 85 q 94 113 76 106 q 123 136 113 119 q 138 182 133 153 q 142 260 142 211 l 142 496 q 83 509 110 506 q 38 513 57 513 q 42 572 38 542 q 57 622 46 603 l 142 622 l 142 649 q 172 784 142 726 q 256 879 201 842 q 384 935 310 917 q 547 954 458 954 q 690 939 617 954 q 815 896 757 925 q 939 947 868 929 q 1119 968 1022 968 q 1240 953 1178 968 q 1343 918 1296 940 l 1364 922 q 1424 938 1396 929 q 1469 954 1453 946 q 1506 922 1493 943 q 1518 865 1518 901 l 1518 622 l 1681 622 q 1677 560 1681 586 q 1667 511 1674 535 q 1518 486 1582 511 l 1518 258 q 1522 181 1518 210 q 1533 135 1525 151 q 1553 114 1540 119 q 1583 108 1565 108 q 1622 113 1600 108 q 1663 124 1644 117 q 1678 86 1672 110 q 1683 35 1683 63 q 1597 1 1653 14 q 1478 -12 1540 -12 q 1310 44 1367 -12 q 1254 242 1254 101 l 1254 496 q 1207 509 1232 506 q 1150 513 1182 513 q 1154 570 1150 544 q 1169 622 1158 596 l 1254 622 m 671 622 l 671 635 q 694 760 671 704 q 642 822 675 801 q 533 850 596 850 q 474 844 499 850 q 435 820 450 838 q 413 772 419 803 q 406 692 406 742 l 406 622 l 671 622 z "},"!":{"ha":571,"x_min":140,"x_max":431,"o":"m 375 996 q 413 964 404 989 q 414 882 422 939 q 400 769 407 833 q 385 633 393 706 q 371 486 378 561 q 358 340 364 411 q 283 342 321 340 q 217 358 246 344 q 184 650 203 506 q 140 938 165 794 q 200 945 168 939 q 263 960 232 951 q 323 977 294 968 q 375 996 351 986 m 294 267 q 351 256 325 267 q 394 226 376 244 q 421 185 411 208 q 431 136 431 161 q 394 33 431 76 q 286 -11 357 -11 q 181 26 219 -11 q 143 129 143 64 q 186 231 143 194 q 294 267 229 267 z "},"?":{"ha":746,"x_min":150,"x_max":697,"o":"m 438 996 q 635 951 572 996 q 697 826 697 906 q 681 741 697 776 q 639 678 664 706 q 584 628 614 651 q 529 581 554 606 q 488 525 504 556 q 471 451 471 494 q 476 394 471 419 q 492 336 481 368 q 433 317 468 324 q 367 310 397 310 q 308 381 332 331 q 283 488 283 432 q 307 590 283 551 q 358 657 331 628 q 410 717 386 686 q 433 797 433 747 q 415 868 433 847 q 371 889 396 889 q 345 881 357 889 q 324 853 333 874 q 306 796 314 832 q 292 703 297 760 q 213 710 246 703 q 150 735 181 718 q 155 837 154 785 q 150 933 156 889 q 270 976 199 957 q 438 996 342 996 m 429 267 q 485 256 460 267 q 528 226 511 244 q 556 185 546 208 q 565 136 565 161 q 528 33 565 76 q 421 -11 492 -11 q 316 26 354 -11 q 278 129 278 64 q 321 231 278 194 q 429 267 364 267 z "},"¡":{"ha":571,"x_min":121,"x_max":436,"o":"m 201 -340 q 163 -308 172 -333 q 163 -228 154 -283 q 176 -118 168 -181 q 191 15 183 -56 q 206 160 199 86 q 218 303 213 233 q 293 301 256 303 q 360 285 331 299 q 392 -1 374 140 q 436 -283 411 -143 q 376 -290 408 -285 q 313 -304 344 -296 q 253 -322 282 -312 q 201 -340 224 -331 m 257 371 q 200 382 225 371 q 158 411 175 393 q 131 453 140 429 q 121 501 121 476 q 158 605 121 561 q 265 649 194 649 q 370 611 332 649 q 408 508 408 574 q 365 407 408 443 q 257 371 322 371 z "},"¿":{"ha":746,"x_min":136,"x_max":683,"o":"m 396 -340 q 199 -296 261 -340 q 136 -174 136 -251 q 153 -90 136 -125 q 194 -28 169 -56 q 249 21 219 -1 q 304 67 279 43 q 346 122 329 92 q 363 193 363 151 q 358 250 363 225 q 342 307 353 275 q 401 326 365 319 q 467 332 436 332 q 499 304 483 322 q 526 263 514 286 q 544 212 538 239 q 550 158 550 185 q 539 87 550 117 q 511 34 528 57 q 475 -8 494 11 q 439 -46 456 -26 q 411 -89 422 -65 q 400 -146 400 -112 q 419 -215 400 -194 q 463 -235 438 -235 q 488 -227 476 -235 q 510 -199 500 -219 q 527 -144 519 -179 q 542 -53 535 -108 q 620 -60 588 -53 q 683 -83 653 -68 q 678 -183 679 -132 q 683 -279 678 -235 q 563 -321 635 -301 q 396 -340 492 -340 m 381 356 q 321 367 347 356 q 276 399 294 379 q 247 442 257 418 q 238 493 238 467 q 276 601 238 556 q 389 647 314 647 q 499 608 460 647 q 539 500 539 568 q 494 394 539 432 q 381 356 449 356 z "},"'":{"ha":351,"x_min":83,"x_max":268,"o":"m 224 996 q 268 929 268 985 q 267 917 268 922 q 265 904 267 911 q 245 754 253 838 q 231 571 238 671 q 175 576 203 571 q 124 592 147 581 q 110 780 121 685 q 83 954 99 875 q 165 970 128 958 q 224 996 201 982 z "},"\"":{"ha":572,"x_min":83,"x_max":489,"o":"m 228 996 q 258 972 247 992 q 268 938 268 953 q 267 919 268 929 q 265 903 267 908 q 244 756 254 838 q 224 572 235 675 q 197 574 213 572 q 167 577 182 575 q 141 583 153 579 q 124 590 129 586 q 111 776 119 683 q 83 956 103 868 q 159 969 126 961 q 228 996 192 978 m 446 996 q 478 974 467 992 q 489 932 489 956 l 489 922 q 486 901 489 917 q 476 834 481 868 q 469 760 472 800 q 462 674 465 721 q 453 571 458 628 q 394 574 417 571 q 349 586 371 576 q 335 774 342 681 q 314 956 329 868 q 383 971 350 961 q 446 996 417 981 z "},"°":{"ha":606,"x_min":83,"x_max":522,"o":"m 300 971 q 465 915 408 971 q 522 776 522 860 q 506 698 522 735 q 461 634 490 661 q 391 592 432 607 q 300 576 350 576 q 140 632 196 576 q 83 775 83 688 q 99 853 83 817 q 144 915 115 889 q 212 956 172 940 q 300 971 251 971 m 293 890 q 252 863 268 890 q 236 801 236 836 q 260 698 236 736 q 317 660 285 660 q 354 684 339 660 q 369 761 369 708 q 349 856 369 822 q 293 890 329 890 z "},"*":{"ha":706,"x_min":83,"x_max":624,"o":"m 501 906 q 472 860 485 882 q 446 818 458 839 q 422 775 433 797 q 397 726 410 753 q 450 744 426 736 q 496 760 474 751 q 542 779 518 769 q 596 803 567 789 q 619 704 615 753 q 617 597 624 656 q 557 614 583 607 q 506 626 531 621 q 457 637 482 632 q 403 646 432 642 q 473 567 440 603 q 549 486 506 531 q 458 431 508 454 q 356 403 408 407 q 349 510 353 461 q 333 617 344 558 q 276 531 301 572 q 218 438 250 490 q 144 503 175 468 q 96 586 114 538 q 192 628 149 608 q 283 675 236 649 q 190 703 235 693 q 83 726 146 714 q 122 815 97 771 q 181 890 146 858 q 247 813 217 846 q 322 736 276 779 q 319 840 322 790 q 310 947 317 890 q 410 937 358 947 q 501 906 461 926 z "},".":{"ha":454,"x_min":83,"x_max":371,"o":"m 235 267 q 291 256 265 267 q 334 226 317 244 q 361 185 351 208 q 371 136 371 161 q 334 33 371 76 q 226 -11 297 -11 q 122 26 160 -11 q 83 129 83 64 q 126 231 83 194 q 235 267 169 267 z "},",":{"ha":439,"x_min":83,"x_max":356,"o":"m 281 222 q 338 181 321 211 q 356 76 356 151 q 314 -101 356 -11 q 200 -260 272 -192 q 135 -247 165 -257 q 89 -222 106 -236 q 182 -49 182 -117 q 156 -6 182 -22 q 83 18 131 11 q 84 60 83 42 q 87 98 85 79 q 94 135 89 117 q 106 178 99 154 q 205 191 161 181 q 281 222 249 201 z "},"ʼ":{"ha":439,"x_min":83,"x_max":356,"o":"m 281 1011 q 338 970 321 1000 q 356 865 356 940 q 314 688 356 778 q 200 529 272 597 q 135 542 165 532 q 89 567 106 553 q 182 740 182 672 q 156 783 182 767 q 83 807 131 800 q 84 849 83 831 q 87 887 85 868 q 94 924 89 906 q 106 967 99 943 q 205 980 161 969 q 281 1011 249 990 z "},"…":{"ha":1388,"x_min":83,"x_max":1304,"o":"m 235 267 q 291 256 265 267 q 334 226 317 244 q 361 185 351 208 q 371 136 371 161 q 334 33 371 76 q 226 -11 297 -11 q 122 26 160 -11 q 83 129 83 64 q 126 231 83 194 q 235 267 169 267 m 707 267 q 763 256 738 267 q 806 226 789 244 q 833 185 824 208 q 843 136 843 161 q 806 33 843 76 q 699 -11 769 -11 q 594 26 632 -11 q 556 129 556 64 q 599 231 556 194 q 707 267 642 267 m 1168 267 q 1224 256 1199 267 q 1267 226 1250 244 q 1294 185 1285 208 q 1304 136 1304 161 q 1267 33 1304 76 q 1160 -11 1231 -11 q 1055 26 1093 -11 q 1017 129 1017 64 q 1060 231 1017 194 q 1168 267 1103 267 z "},":":{"ha":454,"x_min":83,"x_max":371,"o":"m 235 267 q 291 256 265 267 q 334 226 317 244 q 361 185 351 208 q 371 136 371 161 q 334 33 371 76 q 226 -11 297 -11 q 122 26 160 -11 q 83 129 83 64 q 126 231 83 194 q 235 267 169 267 m 235 649 q 291 638 265 649 q 334 608 317 626 q 361 567 351 590 q 371 518 371 543 q 334 415 371 458 q 226 371 297 371 q 122 408 160 371 q 83 511 83 446 q 126 613 83 576 q 235 649 169 649 z "},";":{"ha":454,"x_min":83,"x_max":371,"o":"m 235 649 q 291 638 265 649 q 334 608 317 626 q 361 567 351 590 q 371 518 371 543 q 334 415 371 458 q 226 371 297 371 q 122 408 160 371 q 83 511 83 446 q 126 613 83 576 q 235 649 169 649 m 290 222 q 348 181 331 211 q 365 76 365 151 q 324 -101 365 -11 q 210 -260 282 -192 q 145 -247 175 -257 q 99 -222 115 -236 q 192 -49 192 -117 q 166 -6 192 -22 q 93 18 140 11 q 94 60 93 42 q 97 98 94 79 q 103 135 99 117 q 115 178 108 154 q 215 191 171 181 q 290 222 258 201 z "},"‚":{"ha":439,"x_min":83,"x_max":356,"o":"m 281 221 q 338 181 321 210 q 356 81 356 151 q 318 -80 356 1 q 211 -224 281 -161 q 153 -217 178 -224 q 106 -196 129 -211 q 166 -117 150 -151 q 182 -47 182 -83 q 158 -3 182 -18 q 83 17 133 11 q 84 59 83 40 q 87 97 85 78 q 94 134 89 115 q 106 176 99 153 q 205 190 161 179 q 281 221 249 200 z "},"„":{"ha":722,"x_min":83,"x_max":639,"o":"m 564 217 q 599 202 585 211 q 622 177 613 193 q 635 137 631 161 q 639 76 639 113 q 601 -84 639 -3 q 494 -228 564 -165 q 437 -221 461 -228 q 389 -200 413 -215 q 449 -121 433 -155 q 465 -51 465 -86 q 445 -7 465 -21 q 381 13 425 7 q 385 97 381 61 q 403 169 389 132 q 564 217 500 174 m 275 217 q 331 176 315 206 q 346 76 346 147 q 312 -81 346 -3 q 214 -217 278 -158 q 156 -210 181 -217 q 108 -189 132 -204 q 166 -117 150 -147 q 182 -51 182 -86 q 158 -7 182 -21 q 83 13 133 7 q 84 56 83 36 q 87 93 85 75 q 94 130 89 111 q 106 171 99 149 q 275 217 215 176 z "},"‘":{"ha":439,"x_min":83,"x_max":356,"o":"m 158 569 q 101 610 118 581 q 83 710 83 639 q 121 870 83 789 q 228 1014 158 951 q 285 1008 261 1014 q 333 986 310 1001 q 273 908 289 942 q 257 838 257 874 q 281 794 257 808 q 356 774 306 779 q 355 731 356 750 q 352 694 354 713 q 345 656 350 675 q 333 614 340 638 q 234 601 278 611 q 158 569 190 590 z "},"“":{"ha":722,"x_min":83,"x_max":639,"o":"m 158 569 q 124 584 138 575 q 101 609 110 593 q 88 649 92 625 q 83 710 83 674 q 121 870 83 789 q 228 1014 158 951 q 285 1008 261 1014 q 333 986 310 1001 q 273 907 289 942 q 257 838 257 872 q 277 793 257 807 q 342 774 297 779 q 338 690 342 725 q 319 617 333 654 q 158 569 222 613 m 447 569 q 392 610 407 581 q 376 710 376 639 q 410 867 376 789 q 508 1003 444 944 q 566 997 542 1003 q 614 975 590 990 q 556 903 572 933 q 540 838 540 872 q 565 793 540 807 q 639 774 589 779 q 638 731 639 750 q 635 693 638 711 q 628 656 633 675 q 617 615 624 638 q 447 569 507 610 z "},"’":{"ha":439,"x_min":83,"x_max":356,"o":"m 281 1015 q 338 975 321 1004 q 356 875 356 946 q 318 715 356 796 q 211 571 281 633 q 153 577 178 571 q 106 599 129 583 q 166 677 150 643 q 182 747 182 711 q 158 791 182 776 q 83 811 133 806 q 84 854 83 835 q 87 891 85 872 q 94 929 89 910 q 106 971 99 947 q 205 984 161 974 q 281 1015 249 994 z "},"”":{"ha":722,"x_min":83,"x_max":639,"o":"m 564 1015 q 599 1001 585 1010 q 622 976 613 992 q 635 935 631 960 q 639 875 639 911 q 601 715 639 796 q 494 571 564 633 q 437 577 461 571 q 389 599 413 583 q 449 678 433 643 q 465 747 465 713 q 445 792 465 778 q 381 811 425 806 q 385 895 381 860 q 403 968 389 931 q 564 1015 500 972 m 275 1015 q 331 975 315 1004 q 346 875 346 946 q 312 718 346 796 q 214 582 278 640 q 156 588 181 582 q 108 610 132 595 q 166 682 150 651 q 182 747 182 713 q 158 792 182 778 q 83 811 133 806 q 84 854 83 835 q 87 892 85 874 q 94 929 89 910 q 106 969 99 947 q 275 1015 215 975 z "},"‹":{"ha":417,"x_min":81,"x_max":371,"o":"m 256 565 q 322 551 288 565 q 371 525 357 536 q 340 480 354 501 q 314 438 326 458 q 289 395 301 417 q 263 347 276 374 q 288 300 275 321 q 313 260 300 279 q 340 222 325 240 q 371 182 354 203 q 322 128 356 156 q 263 86 289 100 q 174 194 215 149 q 81 285 132 240 q 85 353 81 315 q 99 410 90 390 q 178 482 143 446 q 256 565 214 518 z "},"›":{"ha":419,"x_min":61,"x_max":374,"o":"m 156 74 q 105 109 126 89 q 68 157 83 129 q 132 243 104 203 q 185 325 160 283 q 131 430 161 378 q 61 539 100 482 q 108 563 79 553 q 171 572 136 572 q 217 528 197 547 q 257 490 238 508 q 299 453 276 472 q 350 410 321 435 q 374 299 374 354 q 260 185 315 242 q 156 74 204 128 z "},"«":{"ha":700,"x_min":83,"x_max":676,"o":"m 290 578 q 400 544 356 578 q 328 459 360 499 q 269 372 297 419 q 390 157 322 250 q 349 112 375 133 q 294 76 322 90 q 186 196 233 144 q 83 296 139 247 q 89 356 83 331 q 107 410 94 382 q 201 492 156 450 q 290 578 246 533 m 561 565 q 626 551 596 561 q 676 525 657 540 q 618 434 644 476 q 568 347 592 392 q 621 258 593 301 q 676 182 649 215 q 637 134 668 163 q 568 86 606 106 q 523 142 544 117 q 480 190 501 167 q 435 235 458 213 l 386 285 q 391 353 386 324 q 404 410 396 382 q 488 485 453 450 q 561 565 524 521 z "},"»":{"ha":778,"x_min":83,"x_max":679,"o":"m 461 74 q 410 108 433 88 q 374 157 388 129 q 438 243 410 203 q 490 325 465 283 q 433 431 461 382 q 367 539 406 481 q 415 563 385 553 q 476 572 444 572 q 523 528 503 547 q 563 490 543 508 q 604 453 582 472 q 656 410 626 435 q 674 357 669 383 q 679 299 679 331 q 565 185 621 242 q 461 74 510 128 m 194 86 q 134 127 163 101 q 92 176 106 153 q 145 251 124 218 q 188 329 167 285 q 142 421 165 378 q 83 521 118 464 q 132 547 99 533 q 201 565 165 560 l 240 521 q 274 486 257 503 q 309 452 290 469 q 354 411 328 435 q 371 349 368 379 q 374 288 374 319 q 324 235 347 260 q 280 185 301 210 q 238 137 258 161 q 194 86 217 113 z "},"(":{"ha":490,"x_min":49,"x_max":425,"o":"m 326 1029 q 417 999 378 1029 q 346 868 376 933 q 296 728 315 803 q 267 567 276 654 q 257 369 257 479 q 305 -52 257 129 q 425 -356 353 -233 q 333 -376 389 -376 q 228 -243 279 -319 q 137 -76 176 -167 q 73 119 97 15 q 49 333 49 222 q 69 544 49 447 q 126 726 89 642 q 213 885 163 811 q 326 1029 264 960 z "},")":{"ha":485,"x_min":54,"x_max":431,"o":"m 153 1029 q 266 886 215 960 q 353 731 317 813 q 410 561 390 650 q 431 375 431 472 q 406 137 431 249 q 342 -70 382 25 q 251 -242 303 -165 q 146 -376 200 -319 q 54 -356 89 -376 q 132 -206 100 -279 q 184 -50 164 -132 q 213 127 204 32 q 222 339 222 222 q 213 542 222 450 q 183 715 203 635 q 133 864 163 794 q 63 999 103 933 q 153 1029 101 1029 z "},"[":{"ha":453,"x_min":65,"x_max":383,"o":"m 65 1031 q 135 1029 103 1029 l 279 1029 q 367 1031 319 1029 q 381 976 379 1004 q 383 915 383 947 q 310 906 338 911 q 267 888 282 900 q 247 853 251 875 q 242 799 242 832 l 242 -133 q 246 -192 242 -169 q 264 -228 250 -215 q 303 -248 278 -242 q 368 -256 328 -254 q 381 -314 379 -287 q 383 -374 383 -340 q 301 -372 338 -372 q 232 -371 264 -371 q 154 -372 193 -371 q 65 -374 115 -372 l 65 1031 z "},"]":{"ha":468,"x_min":61,"x_max":379,"o":"m 379 -374 q 290 -372 329 -372 q 213 -371 251 -371 q 144 -372 181 -371 q 61 -374 107 -372 q 63 -314 61 -340 q 76 -256 65 -287 q 142 -248 117 -254 q 180 -228 167 -242 q 198 -192 193 -215 q 203 -133 203 -169 l 203 799 q 198 853 203 832 q 178 888 193 875 q 135 906 163 900 q 61 915 107 911 q 63 976 61 947 q 78 1031 65 1004 q 164 1029 125 1029 l 308 1029 q 379 1031 342 1029 l 379 -374 z "},"{":{"ha":585,"x_min":49,"x_max":525,"o":"m 479 1047 q 503 1004 497 1032 q 508 951 508 976 q 414 883 438 928 q 392 783 390 839 q 397 720 392 753 q 408 654 403 688 q 419 588 414 621 q 424 525 424 556 q 415 461 424 492 q 385 407 407 431 q 326 367 364 383 q 231 342 289 350 q 326 315 289 333 q 385 272 363 297 q 416 217 407 247 q 425 151 425 186 q 421 86 425 119 q 411 19 417 53 l 401 -47 q 397 -111 397 -81 q 402 -167 397 -140 q 420 -215 407 -193 q 457 -255 433 -237 q 517 -282 481 -272 q 521 -337 525 -308 q 497 -393 517 -367 q 339 -349 400 -379 q 243 -278 278 -318 q 196 -190 208 -237 q 182 -96 183 -143 q 185 4 181 -46 q 189 101 190 54 q 181 164 188 135 q 160 218 175 193 q 117 263 144 243 q 49 296 90 283 l 49 314 q 49 339 49 326 q 51 363 50 351 q 56 382 53 375 q 122 413 96 394 q 163 456 147 432 q 184 506 178 479 q 192 563 190 533 q 186 665 193 611 q 181 771 179 718 q 192 857 182 815 q 235 934 203 899 q 325 999 267 969 q 479 1047 383 1028 z "},"}":{"ha":576,"x_min":44,"x_max":521,"o":"m 90 1047 q 244 999 186 1028 q 335 934 303 969 q 377 857 367 899 q 389 771 388 815 q 383 665 390 718 q 378 563 376 611 q 385 506 379 533 q 407 456 392 479 q 448 413 422 432 q 514 382 474 394 q 518 363 517 375 q 520 339 519 351 q 521 314 521 326 l 521 296 q 452 263 479 283 q 410 218 425 243 q 388 164 394 193 q 381 101 382 135 q 384 4 379 54 q 388 -96 389 -46 q 374 -190 386 -143 q 326 -278 361 -237 q 231 -349 292 -318 q 72 -393 169 -379 q 49 -337 53 -367 q 53 -282 44 -308 q 149 -215 125 -261 q 172 -111 174 -169 q 167 -47 172 -81 q 157 19 163 -14 q 148 86 151 53 q 144 151 144 119 q 153 217 144 186 q 184 272 163 247 q 243 315 206 297 q 339 342 281 333 q 243 367 281 350 q 184 407 206 383 q 154 461 163 431 q 146 525 146 492 q 151 588 146 556 q 161 654 156 621 q 172 720 167 688 q 178 783 178 753 q 156 883 179 839 q 61 951 132 928 q 67 1004 61 976 q 90 1047 72 1032 z "},"|":{"ha":292,"x_min":86,"x_max":210,"o":"m 86 994 q 157 989 119 994 q 210 974 194 983 q 209 842 210 915 q 208 684 208 768 q 206 509 207 600 q 206 325 206 418 q 206 139 206 232 q 208 -42 207 46 q 209 -207 208 -129 q 210 -346 210 -285 q 143 -342 179 -346 q 86 -331 107 -339 l 86 994 z "},"¦":{"ha":290,"x_min":86,"x_max":207,"o":"m 86 996 q 148 991 117 996 q 207 974 179 986 q 206 859 207 929 q 204 718 204 789 q 205 645 204 688 q 206 560 206 603 q 206 479 206 517 q 207 422 207 442 q 146 427 178 422 q 86 444 114 432 l 86 996 m 86 254 q 151 250 124 254 q 207 232 178 246 q 206 174 207 210 q 206 99 206 139 q 205 18 206 58 q 204 -53 204 -22 q 205 -116 204 -79 q 206 -193 206 -153 q 206 -273 206 -233 q 207 -346 207 -312 q 142 -340 181 -346 q 86 -324 104 -335 l 86 254 z "},"/":{"ha":557,"x_min":40,"x_max":524,"o":"m 161 -12 q 40 11 79 -12 l 408 996 q 470 988 440 996 q 524 965 500 979 l 161 -12 z "},"":{"ha":558,"x_min":65,"x_max":494,"o":"m 179 -47 q 113 -36 143 -47 q 65 -7 82 -25 l 381 685 q 447 676 414 685 q 494 649 479 668 l 179 -47 z "},"\\":{"ha":563,"x_min":35,"x_max":524,"o":"m 35 985 q 79 993 54 990 q 140 996 104 996 l 154 996 l 524 0 q 465 -10 500 -7 q 406 -12 429 -12 l 35 985 l 35 985 z "},"⁄":{"ha":918,"x_min":46,"x_max":876,"o":"m 165 -12 q 131 -10 149 -12 q 96 -2 113 -7 q 65 10 79 3 q 46 25 51 17 l 760 996 q 824 984 792 996 q 876 956 857 972 l 165 -12 z "},"_":{"ha":886,"x_min":83,"x_max":803,"o":"m 803 -100 q 799 -156 803 -125 q 783 -211 796 -187 q 676 -210 722 -211 q 590 -210 631 -210 l 346 -210 q 268 -210 308 -210 q 183 -212 228 -211 q 83 -212 139 -212 q 88 -153 83 -181 q 103 -100 92 -125 l 803 -100 z "},"-":{"ha":582,"x_min":83,"x_max":499,"o":"m 499 453 q 495 390 499 426 q 481 318 492 354 q 292 317 393 318 q 83 307 190 315 q 89 377 83 336 q 107 453 94 418 l 499 453 z "},"–":{"ha":828,"x_min":83,"x_max":744,"o":"m 744 444 q 739 378 744 410 q 722 325 733 346 l 576 325 q 435 324 508 325 q 278 322 363 324 q 83 317 193 319 q 90 386 83 350 q 106 444 96 422 l 744 444 z "},"—":{"ha":1467,"x_min":83,"x_max":1383,"o":"m 1383 444 q 1378 381 1383 411 q 1363 326 1372 350 l 1057 326 q 748 326 906 326 q 425 324 590 325 q 83 319 260 322 q 90 390 83 356 q 104 444 96 425 l 1383 444 z "},"¶":{"ha":875,"x_min":51,"x_max":838,"o":"m 414 399 q 256 412 324 399 q 142 456 188 425 q 74 540 97 488 q 51 668 51 592 q 74 781 51 729 q 146 869 96 832 q 276 926 196 906 q 474 947 357 947 q 584 944 532 947 q 681 940 636 940 q 761 941 717 940 q 838 946 806 942 q 835 890 838 919 q 826 836 833 861 q 777 827 796 835 q 749 802 758 819 q 736 756 739 785 q 733 682 733 726 l 733 -344 q 677 -340 707 -344 q 622 -321 647 -336 l 622 832 q 583 839 603 838 q 564 842 574 840 l 565 -344 q 508 -341 536 -344 q 454 -322 481 -337 l 454 400 l 453 400 q 414 399 436 399 m 364 806 q 324 682 324 769 q 337 600 324 633 q 371 544 350 567 q 417 513 392 522 q 454 503 436 506 l 454 839 q 364 806 393 832 z "},"§":{"ha":846,"x_min":42,"x_max":772,"o":"m 636 63 q 676 -19 664 25 q 688 -115 688 -62 q 667 -204 688 -164 q 608 -274 646 -244 q 519 -319 571 -303 q 403 -336 467 -336 q 269 -328 324 -336 q 174 -301 214 -321 q 178 -208 178 -261 q 174 -115 178 -156 q 226 -103 196 -108 q 286 -99 256 -99 q 333 -200 299 -171 q 404 -229 368 -229 q 497 -168 497 -229 q 491 -135 497 -151 q 462 -100 485 -119 q 394 -55 439 -81 q 275 7 350 -29 q 94 140 147 67 q 42 306 42 213 q 67 418 42 372 q 133 493 93 464 q 221 540 172 522 q 176 592 194 567 q 138 674 150 631 q 126 771 126 718 q 147 860 126 819 q 206 929 168 900 q 296 975 243 958 q 413 992 349 992 q 546 984 492 992 q 640 957 600 976 q 636 864 636 917 q 640 771 636 811 q 588 759 618 764 q 528 754 558 754 q 481 856 515 826 q 410 885 446 885 q 317 824 317 885 q 323 791 317 807 q 352 756 329 775 q 419 710 375 736 q 540 649 464 685 q 719 515 667 588 q 772 350 772 443 q 747 238 772 283 q 681 162 721 192 q 592 114 640 132 q 636 63 618 89 m 451 213 q 489 190 471 201 q 522 210 510 200 q 547 239 542 224 q 553 265 553 254 q 548 301 553 285 q 524 337 543 318 q 467 381 504 356 q 363 443 429 406 q 325 464 343 453 q 290 446 304 456 q 267 417 272 432 q 261 390 261 401 q 266 354 261 371 q 290 319 271 338 q 347 275 310 300 q 451 213 385 250 z "},"†":{"ha":686,"x_min":57,"x_max":628,"o":"m 438 853 q 418 636 426 744 l 628 636 q 619 552 626 593 q 593 476 613 511 q 537 488 564 482 q 480 498 510 493 q 415 506 450 503 l 410 506 q 399 264 403 386 q 388 -346 388 -35 q 324 -342 357 -346 q 264 -329 290 -337 q 268 272 268 -29 q 264 508 268 390 l 258 508 q 189 501 222 506 q 124 491 156 497 q 57 478 92 485 q 61 565 57 528 q 76 636 65 603 l 258 636 q 240 879 251 757 q 288 890 267 885 q 326 902 308 896 q 363 916 344 908 q 400 935 381 924 q 435 910 429 925 q 438 853 442 894 z "},"‡":{"ha":661,"x_min":56,"x_max":628,"o":"m 415 0 q 418 -25 417 -12 q 428 -105 424 -69 q 436 -171 432 -140 q 444 -231 440 -201 q 398 -240 417 -235 q 363 -253 379 -246 q 331 -268 347 -260 q 294 -286 315 -276 q 256 -265 263 -276 q 251 -231 249 -253 q 260 -171 256 -201 q 267 -105 264 -140 q 274 -25 271 -69 q 276 0 275 -12 l 56 0 q 64 84 57 43 q 90 160 71 125 q 147 148 119 153 q 203 138 174 143 q 267 129 233 133 q 283 128 275 129 q 279 222 285 179 q 249 315 272 288 q 271 413 268 346 q 269 508 272 457 q 258 508 264 508 q 189 501 222 506 q 124 491 156 497 q 57 478 92 485 q 61 565 57 528 q 76 636 65 603 l 256 636 q 253 671 254 654 q 244 753 249 717 q 237 820 240 790 q 229 879 233 850 q 278 889 257 883 q 319 901 300 894 q 357 917 339 908 q 396 935 375 925 q 434 913 426 925 q 438 879 442 901 q 429 820 433 850 q 422 753 425 790 q 414 671 418 717 q 411 636 413 654 l 628 636 q 619 552 626 593 q 593 476 613 511 q 537 488 564 482 q 480 498 510 493 q 415 506 450 503 q 400 507 408 507 q 403 413 399 456 q 438 315 411 346 q 404 224 411 288 q 403 125 400 179 q 424 126 414 126 q 494 135 461 131 q 560 145 528 139 q 626 158 592 151 q 622 71 626 108 q 607 0 618 33 l 415 0 z "},"•":{"ha":611,"x_min":83,"x_max":528,"o":"m 310 586 q 404 569 364 586 q 472 522 444 551 q 514 456 500 493 q 528 378 528 418 q 513 290 528 331 q 469 221 497 250 q 401 175 442 192 q 310 158 361 158 q 209 177 251 158 q 138 227 167 196 q 97 298 110 258 q 83 381 83 338 q 100 463 83 425 q 147 528 117 500 q 218 571 176 556 q 310 586 260 586 z "},"·":{"ha":451,"x_min":83,"x_max":368,"o":"m 218 525 q 274 515 247 525 q 322 488 301 506 q 356 446 343 469 q 368 393 368 422 q 361 346 368 371 q 338 299 354 321 q 294 264 321 278 q 226 250 267 250 q 119 288 156 250 q 83 383 83 325 q 123 488 83 450 q 218 525 163 525 z "},"¹":{"ha":493,"x_min":74,"x_max":425,"o":"m 347 694 q 360 622 347 642 q 415 599 372 603 q 425 496 425 558 q 385 498 408 497 q 338 499 363 499 q 290 500 314 500 l 213 500 q 164 499 189 500 q 115 498 139 499 q 74 496 90 497 q 83 599 74 558 q 139 622 126 603 q 151 694 151 642 l 151 782 q 138 859 151 835 q 82 888 124 883 q 75 938 76 913 q 74 992 74 964 q 109 990 85 990 q 160 988 133 989 q 213 988 188 988 l 289 988 q 338 988 313 988 q 388 990 364 989 q 425 992 411 990 q 424 940 425 965 q 417 888 422 914 q 361 859 375 883 q 347 782 347 835 l 347 694 z "},"²":{"ha":538,"x_min":49,"x_max":507,"o":"m 267 996 q 342 990 304 996 q 409 968 379 983 q 458 928 439 953 q 476 869 476 904 q 450 782 476 815 q 397 732 424 749 q 335 690 367 713 q 282 650 303 668 l 324 650 q 363 652 349 650 q 384 660 376 654 q 394 676 392 667 q 397 703 397 686 q 450 701 425 703 q 499 692 475 699 q 499 609 499 656 q 507 525 500 563 q 490 506 501 514 q 451 497 478 497 q 420 498 440 497 q 375 499 400 499 q 323 499 350 499 q 271 500 296 500 q 156 499 204 500 q 68 497 108 499 q 53 531 57 515 q 49 569 49 546 q 98 618 69 593 q 150 665 126 643 q 242 760 214 724 q 271 839 271 797 q 257 888 271 869 q 221 906 243 906 q 206 902 213 906 q 194 887 200 899 q 183 851 189 875 q 172 785 178 826 q 114 788 144 785 q 63 799 83 792 q 67 882 67 835 q 61 965 67 929 q 154 989 107 982 q 267 996 201 996 z "},"³":{"ha":565,"x_min":46,"x_max":506,"o":"m 386 993 q 447 994 428 993 q 460 965 456 979 q 464 928 464 950 q 397 840 432 889 q 321 728 361 792 q 454 688 403 728 q 506 556 506 647 q 487 474 506 513 q 431 405 468 435 q 335 358 393 375 q 197 340 276 340 q 108 351 147 340 q 46 378 69 363 q 60 425 49 400 q 85 465 71 450 q 134 451 101 457 q 204 444 167 444 q 287 468 253 444 q 321 549 321 492 q 301 610 321 585 q 247 636 281 636 q 230 635 236 636 q 217 632 224 635 q 191 664 204 642 q 174 706 178 686 q 230 774 206 742 q 275 840 254 806 l 219 840 q 175 828 192 840 q 146 786 158 817 q 99 790 122 786 q 67 801 76 794 q 76 850 72 824 q 81 903 79 876 q 84 953 83 929 q 85 994 85 978 q 164 993 108 993 l 386 993 l 386 993 z "},"+":{"ha":803,"x_min":60,"x_max":742,"o":"m 338 303 l 285 303 q 206 302 243 303 q 135 301 169 301 q 60 300 100 300 q 62 363 60 336 q 78 426 64 390 l 338 426 l 338 508 q 337 588 338 546 q 336 683 336 629 q 390 698 364 694 q 461 701 415 701 l 461 426 l 742 426 q 740 361 742 390 q 724 301 738 332 q 627 302 669 301 q 546 303 585 303 l 461 303 l 461 22 q 407 8 444 11 q 335 4 369 4 q 337 80 336 43 q 338 157 338 117 l 338 303 z "},"−":{"ha":746,"x_min":35,"x_max":714,"o":"m 714 425 q 710 360 714 390 q 697 306 707 331 q 601 308 639 307 q 530 309 563 308 q 465 310 497 310 l 388 310 q 213 308 296 310 q 35 304 129 306 q 39 364 35 331 q 51 425 43 397 l 714 425 z "},"×":{"ha":913,"x_min":60,"x_max":842,"o":"m 210 -12 q 138 -2 175 -14 q 85 29 100 10 l 368 329 q 271 421 318 376 q 155 529 210 479 q 60 615 100 579 q 115 652 83 638 q 175 667 146 667 l 446 411 l 689 669 q 764 658 725 669 q 817 632 803 647 q 724 538 775 590 q 619 428 674 486 q 529 333 575 382 l 842 40 q 790 3 824 18 q 725 -12 757 -12 q 637 74 689 24 q 524 182 585 124 q 453 250 489 215 l 399 193 q 297 83 344 136 q 210 -12 249 31 z "},"÷":{"ha":750,"x_min":53,"x_max":703,"o":"m 703 424 q 700 363 703 388 q 685 307 697 339 q 592 308 629 307 q 525 308 556 308 l 390 308 q 222 307 301 308 q 53 304 143 306 q 56 364 53 331 q 71 424 60 397 l 703 424 m 374 729 q 457 702 422 729 q 492 628 492 675 q 462 535 492 572 q 379 497 432 497 q 281 528 313 497 q 250 613 250 558 q 260 663 250 642 q 288 699 271 685 q 328 721 306 714 q 374 729 350 728 m 382 -3 q 297 30 331 -3 q 263 111 263 63 q 289 193 263 160 q 379 226 315 226 q 473 195 444 226 q 501 111 501 164 q 467 28 501 58 q 382 -3 432 -3 z "},"=":{"ha":750,"x_min":57,"x_max":689,"o":"m 688 286 q 683 223 688 254 q 668 164 679 192 q 593 165 626 164 q 528 165 560 165 l 296 165 q 221 165 258 165 q 144 163 183 164 q 57 163 104 163 q 61 227 57 194 q 76 286 65 260 l 688 286 m 689 543 q 686 480 689 508 q 669 421 683 451 q 595 422 628 421 q 531 422 563 422 l 299 422 q 224 422 261 422 q 147 420 186 421 q 61 419 108 419 q 65 487 61 458 q 81 543 69 515 l 689 543 z "},"±":{"ha":750,"x_min":79,"x_max":694,"o":"m 444 528 l 651 528 q 649 465 651 493 q 638 414 647 438 q 576 415 601 414 q 526 415 551 415 q 469 414 500 415 q 444 414 458 414 l 444 240 q 421 235 436 238 q 387 230 406 232 q 350 227 368 228 q 318 226 332 226 q 319 295 318 268 q 320 350 319 322 q 321 411 321 378 l 321 414 l 281 414 q 117 411 214 414 l 117 414 q 117 443 117 426 q 120 476 118 460 q 125 506 122 492 q 131 528 128 519 l 322 528 l 322 601 q 319 711 322 649 q 377 723 346 721 q 444 725 408 725 l 444 528 m 694 181 q 692 121 694 147 q 681 71 690 94 q 592 72 626 71 q 529 72 557 72 l 400 72 q 241 71 314 72 q 79 68 168 69 q 80 97 79 81 q 82 128 81 113 q 86 158 83 144 q 92 181 89 172 l 694 181 z "},"<":{"ha":692,"x_min":82,"x_max":651,"o":"m 607 99 q 612 58 611 79 q 610 17 613 38 q 603 -22 608 -4 q 589 -51 597 -40 q 318 149 446 57 q 85 311 190 242 q 88 369 82 340 q 114 425 94 399 l 531 760 q 651 694 600 747 l 233 364 l 607 99 z "},">":{"ha":683,"x_min":25,"x_max":597,"o":"m 464 363 l 25 713 q 79 748 47 735 q 149 764 111 761 l 576 424 q 594 364 590 396 q 594 304 597 332 q 460 212 519 254 q 344 129 400 169 q 228 46 288 89 q 99 -51 169 3 q 67 14 75 -22 q 67 81 60 50 l 464 363 z "},"µ":{"ha":969,"x_min":43,"x_max":922,"o":"m 651 -12 q 612 33 624 7 q 600 92 600 60 q 601 115 600 103 q 604 126 603 121 q 546 50 583 79 q 464 6 511 22 q 363 -10 421 -8 l 363 -56 q 369 -174 363 -118 q 385 -267 375 -231 q 272 -295 322 -276 q 167 -347 221 -314 q 132 -322 143 -337 q 114 -283 121 -306 q 123 -256 119 -269 q 128 -219 126 -242 q 129 -162 129 -197 l 129 375 q 126 431 129 408 q 115 468 124 454 q 89 489 106 482 q 43 499 72 496 q 47 553 43 525 q 61 603 50 581 q 239 617 165 603 q 346 649 313 632 q 381 617 369 638 q 393 560 393 596 l 393 283 q 397 199 393 231 q 409 149 401 167 q 429 126 417 132 q 458 119 442 119 q 496 133 476 119 q 531 173 515 146 q 557 242 547 200 q 567 342 567 285 l 567 382 q 563 438 567 415 q 549 475 560 461 q 518 496 538 489 q 468 506 499 503 q 472 560 468 532 q 486 610 475 588 q 670 621 590 610 q 783 649 750 632 q 819 617 807 638 q 831 560 831 596 l 831 272 q 833 206 831 231 q 846 168 836 182 q 874 149 856 154 q 922 140 892 143 q 919 86 922 113 q 904 36 915 60 q 764 22 821 33 q 651 -12 707 10 z "},"#":{"ha":983,"x_min":75,"x_max":886,"o":"m 719 600 l 679 379 l 839 379 q 835 317 839 347 q 818 256 831 288 l 688 256 l 657 256 l 608 -12 q 540 -4 572 -12 q 492 19 507 4 l 535 256 q 340 254 421 256 l 292 -12 q 228 -2 263 -12 q 176 25 194 8 l 218 254 q 75 250 128 253 q 78 319 75 286 q 96 379 82 351 l 240 379 l 281 597 l 240 597 q 138 596 183 597 q 142 662 138 633 q 160 725 146 690 l 304 725 l 354 996 q 424 986 390 996 q 469 961 458 976 l 426 725 l 621 725 l 671 996 q 741 985 706 996 q 786 964 776 975 l 742 725 l 886 725 q 882 658 886 689 q 867 600 878 628 l 719 600 m 538 600 q 403 599 464 600 l 363 379 l 557 379 l 597 600 l 538 600 z "},"~":{"ha":843,"x_min":54,"x_max":804,"o":"m 131 250 q 85 274 104 260 q 54 314 65 288 q 118 413 86 374 q 181 476 150 453 q 239 510 211 500 q 292 519 267 519 q 374 499 336 519 q 449 455 413 479 q 522 410 486 431 q 594 390 557 390 q 659 413 629 390 q 726 492 689 435 q 770 466 747 485 q 804 431 793 447 q 742 333 772 371 q 683 275 711 296 q 631 247 656 254 q 588 239 607 239 q 502 260 540 239 q 429 306 464 281 q 360 353 394 332 q 286 374 325 374 q 207 347 246 374 q 131 250 168 321 z "},"^":{"ha":772,"x_min":51,"x_max":718,"o":"m 386 844 q 246 677 310 757 q 122 511 182 597 q 75 556 96 528 q 51 608 54 585 l 333 969 q 374 980 351 976 q 433 983 397 983 q 499 882 463 938 q 574 769 536 826 q 650 659 613 713 q 718 563 688 606 q 666 538 696 544 q 606 533 636 531 l 386 844 z "},"¤":{"ha":750,"x_min":53,"x_max":692,"o":"m 375 111 q 271 132 318 111 q 242 147 256 139 l 157 60 q 104 72 126 61 q 67 99 82 83 l 172 210 q 139 268 153 236 q 121 364 121 314 q 142 463 121 418 q 157 492 149 478 l 53 596 q 139 639 86 633 l 221 558 q 279 588 247 576 q 375 606 325 606 q 469 588 425 606 q 513 565 493 578 l 590 644 q 638 628 619 638 q 674 597 657 618 l 578 503 q 603 461 593 483 q 622 364 622 417 q 597 251 622 299 q 578 218 589 233 l 692 108 q 603 64 664 72 l 511 153 q 457 126 485 136 q 375 111 414 111 m 364 519 q 269 478 306 519 q 233 371 233 438 q 244 310 233 340 q 276 256 256 281 q 322 217 296 232 q 381 201 349 201 q 475 243 439 201 q 511 354 511 285 q 500 414 511 385 q 469 467 489 443 q 423 505 450 490 q 364 519 396 519 z "},"€":{"ha":979,"x_min":64,"x_max":940,"o":"m 725 597 q 719 531 725 563 q 703 478 714 499 l 557 478 q 421 476 490 478 q 429 388 424 431 l 725 388 q 719 321 725 353 q 703 268 714 289 l 557 268 q 464 267 511 268 q 483 231 474 247 q 562 148 515 178 q 669 118 608 118 q 792 135 729 118 q 901 176 856 151 q 926 142 917 163 q 940 100 936 122 q 881 58 915 78 q 806 22 847 38 q 718 -3 765 6 q 621 -12 671 -12 q 419 23 508 -12 q 267 122 329 58 q 175 261 210 182 q 64 260 124 261 q 70 329 64 293 q 86 388 76 365 l 142 388 q 136 471 136 428 q 64 469 101 469 q 70 539 64 503 q 86 597 76 575 l 147 597 q 176 682 158 642 q 282 831 217 771 q 432 921 347 890 q 607 951 517 951 q 769 933 692 951 q 919 879 846 914 q 908 776 911 831 q 904 664 904 722 q 878 655 894 658 q 842 649 861 651 q 803 646 822 647 q 767 644 783 644 q 754 742 765 704 q 722 803 743 781 q 674 835 701 826 q 611 844 646 844 q 524 817 560 844 q 465 742 488 789 q 431 633 442 694 l 425 597 l 725 597 z "},"¢":{"ha":696,"x_min":42,"x_max":651,"o":"m 651 58 q 551 6 615 25 q 461 -10 510 -6 l 461 -87 q 464 -193 461 -131 q 397 -190 433 -193 q 340 -178 361 -186 l 340 -8 q 256 7 294 -4 q 140 67 188 26 q 67 169 93 107 q 42 315 42 231 q 63 438 42 378 q 128 544 85 497 q 238 619 172 592 q 340 646 283 639 l 340 842 q 411 836 374 842 q 464 821 449 831 q 461 735 461 769 l 461 646 q 536 635 503 642 q 644 594 596 621 q 631 513 635 556 q 626 411 626 471 q 556 392 594 396 q 481 388 517 388 q 458 508 481 468 q 400 549 436 549 q 357 532 375 549 q 326 486 339 515 q 308 418 314 457 q 301 335 301 379 q 311 256 301 294 q 342 185 321 217 q 398 135 364 154 q 481 115 432 115 q 560 124 525 115 q 619 147 594 132 q 643 109 635 132 q 651 58 651 86 z "},"$":{"ha":758,"x_min":50,"x_max":717,"o":"m 304 -11 q 260 -8 281 -10 q 185 5 219 -4 q 119 28 151 14 q 50 64 88 43 q 68 187 64 121 q 72 310 72 253 q 143 324 104 321 q 211 326 182 326 q 219 233 213 275 q 240 163 225 192 q 283 117 256 133 q 304 108 293 113 l 304 346 q 272 363 289 354 q 170 429 218 389 q 91 530 122 469 q 60 683 60 590 q 85 800 60 750 q 155 883 111 850 q 257 933 199 917 q 321 947 288 943 l 321 1046 q 383 1041 351 1046 q 442 1024 414 1036 q 440 949 442 994 q 528 936 488 946 q 628 900 592 921 q 631 778 628 838 q 640 682 635 718 q 575 660 611 665 q 504 654 539 654 q 483 747 496 711 q 454 804 471 783 q 439 819 447 813 l 439 682 l 439 597 q 488 576 463 588 q 598 514 547 551 q 683 421 649 476 q 717 282 717 365 q 690 161 717 215 q 614 68 663 107 q 499 8 565 29 q 424 -8 464 -3 q 425 -115 425 -69 q 360 -110 399 -115 q 304 -93 322 -104 l 304 -11 m 292 682 q 321 660 306 671 l 321 833 q 289 819 303 829 q 258 756 258 800 q 292 682 258 711 m 422 113 q 451 129 439 119 q 486 196 486 158 q 454 264 486 238 q 422 288 440 276 l 422 265 l 422 113 z "},"¥":{"ha":861,"x_min":14,"x_max":847,"o":"m 647 539 l 771 539 q 767 483 771 507 q 756 432 764 458 l 594 433 l 578 399 l 578 351 l 768 351 q 763 294 768 319 q 751 244 758 269 l 578 244 q 582 192 579 214 q 602 141 588 160 q 644 115 617 122 q 715 104 671 107 q 727 52 725 75 q 729 -4 729 29 q 590 -1 668 -1 q 432 0 511 0 q 277 -1 353 0 q 136 -4 201 -3 q 140 53 138 26 q 153 104 143 81 q 232 115 203 108 q 276 139 261 121 q 296 189 292 157 q 300 244 299 211 l 117 244 q 119 301 117 275 q 133 351 122 326 l 300 351 l 300 407 l 286 433 l 113 432 q 115 490 113 464 q 128 539 118 517 l 229 539 l 117 753 q 70 817 92 801 q 25 835 49 832 q 16 883 18 858 q 14 942 14 907 q 71 940 39 940 q 135 939 103 939 l 363 939 q 428 940 396 939 q 481 942 460 940 q 478 882 481 906 q 471 835 475 858 q 439 823 449 832 q 428 801 429 814 q 432 771 426 788 q 446 736 438 754 q 496 621 468 690 q 535 525 515 574 q 571 617 553 574 q 625 735 597 678 q 635 803 644 775 q 588 835 626 832 q 578 882 581 858 q 575 942 575 906 q 644 939 613 939 l 782 939 q 847 942 814 939 q 844 880 847 906 q 835 835 840 854 q 812 827 822 832 q 791 810 801 822 q 767 776 781 799 q 736 718 754 754 l 647 539 z "},"£":{"ha":833,"x_min":49,"x_max":817,"o":"m 701 321 q 769 296 736 315 q 817 257 803 276 q 738 119 767 186 q 694 -12 710 51 q 600 -6 640 -12 q 519 15 560 0 q 404 49 454 39 q 314 60 354 60 q 208 44 260 60 q 111 -11 157 29 q 72 28 89 4 q 49 79 56 51 q 160 194 131 132 q 190 331 190 256 q 183 403 190 372 q 115 401 147 403 q 61 400 82 400 q 66 462 61 431 q 83 518 71 493 l 139 518 q 110 593 124 553 q 94 704 94 636 q 192 883 94 815 q 478 951 289 951 q 544 949 507 951 q 620 942 582 947 q 692 928 658 936 q 750 907 726 919 q 742 810 744 864 q 742 704 739 757 q 658 682 703 686 q 565 678 613 678 q 531 805 554 768 q 456 842 508 842 q 399 817 419 842 q 379 750 379 793 q 396 677 379 707 q 432 617 413 647 q 468 551 451 588 q 479 518 475 536 l 629 518 q 626 458 629 486 q 608 401 622 429 q 555 402 585 401 q 493 403 525 403 l 472 403 q 458 371 467 388 q 390 268 432 321 q 339 210 367 239 q 383 238 361 225 q 472 281 431 265 q 547 297 514 297 q 583 294 569 297 q 607 286 597 290 q 624 278 617 282 q 643 275 632 275 q 674 284 663 275 q 701 321 686 293 z "},"%":{"ha":1158,"x_min":117,"x_max":1081,"o":"m 279 -10 q 213 5 239 -12 q 174 42 188 22 l 928 953 q 990 943 957 953 q 1042 913 1022 933 l 279 -10 m 869 432 q 962 413 922 432 q 1028 365 1001 394 q 1067 297 1054 335 q 1081 221 1081 258 q 1066 131 1081 174 q 1022 57 1051 89 q 951 6 993 25 q 854 -12 908 -12 q 756 6 797 -12 q 686 54 714 24 q 644 123 658 85 q 631 201 631 161 q 646 289 631 247 q 691 363 661 331 q 765 413 721 394 q 869 432 810 432 m 853 326 q 811 295 828 326 q 794 217 794 264 q 813 128 794 164 q 863 93 831 93 q 900 120 882 93 q 918 204 918 147 q 900 292 918 257 q 853 326 882 326 m 356 940 q 448 922 408 940 q 515 873 488 903 q 555 806 542 843 q 568 731 568 768 q 553 642 568 683 q 510 568 539 600 q 438 517 481 536 q 342 499 396 499 q 243 517 285 499 q 173 565 201 535 q 131 633 144 596 q 117 711 117 671 q 132 797 117 756 q 177 871 147 839 q 251 922 207 903 q 356 940 296 940 m 340 839 q 298 808 315 839 q 281 728 281 776 q 299 638 281 674 q 349 603 317 603 q 387 630 368 603 q 406 714 406 657 q 387 804 406 769 q 340 839 368 839 z "},"‰":{"ha":1733,"x_min":117,"x_max":1590,"o":"m 1379 432 q 1472 413 1432 432 q 1538 365 1511 394 q 1577 297 1564 335 q 1590 221 1590 258 q 1576 131 1590 174 q 1532 57 1561 89 q 1460 6 1503 25 q 1364 -12 1418 -12 q 1266 6 1307 -12 q 1197 54 1225 24 q 1156 123 1169 85 q 1143 201 1143 161 q 1158 289 1143 247 q 1201 363 1172 331 q 1275 413 1231 394 q 1379 432 1319 432 m 1360 326 q 1315 295 1333 326 q 1296 217 1296 264 q 1316 128 1296 164 q 1371 93 1336 93 q 1413 120 1392 93 q 1433 204 1433 147 q 1413 292 1433 257 q 1360 326 1392 326 m 278 -10 q 217 6 246 -10 q 174 42 189 21 l 929 953 q 996 940 963 953 q 1042 913 1029 928 l 278 -10 m 869 432 q 962 413 922 432 q 1028 365 1001 394 q 1069 297 1056 335 q 1082 221 1082 258 q 1067 131 1082 174 q 1022 57 1051 89 q 951 6 993 25 q 854 -12 908 -12 q 756 6 797 -12 q 685 54 714 24 q 643 123 657 85 q 629 201 629 161 q 644 289 629 247 q 690 363 660 331 q 765 413 719 394 q 869 432 810 432 m 853 326 q 810 295 828 326 q 793 217 793 264 q 811 128 793 164 q 863 93 829 93 q 901 120 882 93 q 919 204 919 147 q 901 292 919 257 q 853 326 882 326 m 356 940 q 447 922 407 940 q 513 873 486 903 q 553 806 540 843 q 567 731 567 768 q 552 642 567 683 q 508 568 538 600 q 437 517 479 536 q 340 499 394 499 q 243 517 285 499 q 173 565 201 535 q 131 633 144 596 q 117 711 117 671 q 132 797 117 756 q 177 871 147 839 q 251 922 207 903 q 356 940 296 940 m 340 836 q 298 805 315 836 q 281 726 281 774 q 299 638 281 672 q 349 603 317 603 q 387 631 368 603 q 406 714 406 658 q 387 801 406 767 q 340 836 368 836 z "},"➙":{"ha":915,"x_min":83,"x_max":842,"o":"m 564 444 q 535 506 553 472 q 497 569 517 540 q 478 624 478 599 q 495 657 478 644 q 546 682 513 669 q 611 611 572 649 q 690 540 650 574 q 765 481 729 507 q 821 444 800 454 q 828 424 825 436 q 835 399 832 413 q 840 372 839 385 q 842 351 842 360 q 763 299 797 324 q 699 249 728 274 q 647 197 671 224 q 600 142 622 171 q 574 121 589 128 q 533 114 558 114 q 499 119 517 114 q 475 133 482 125 q 527 227 506 182 q 564 325 549 272 q 297 321 415 325 q 83 308 179 317 q 89 382 83 349 q 110 444 94 415 l 564 444 z "},"&":{"ha":1117,"x_min":74,"x_max":1042,"o":"m 885 222 q 924 183 907 199 q 958 160 942 168 q 994 148 975 151 q 1042 143 1014 144 q 1037 77 1042 114 q 1022 14 1032 40 q 960 12 994 14 q 890 6 926 10 q 818 -2 854 3 q 750 -12 782 -7 q 683 74 717 32 q 671 63 678 68 q 600 20 638 38 q 518 -6 563 3 q 418 -14 474 -14 q 158 58 243 -14 q 74 257 74 129 q 135 453 74 381 q 297 568 193 522 q 263 633 276 604 q 235 710 243 675 q 228 779 228 744 q 244 865 228 825 q 301 933 261 904 q 406 979 340 963 q 572 996 472 996 q 719 987 657 996 q 844 956 782 978 q 831 854 833 913 q 833 732 829 796 q 675 715 763 715 q 642 846 668 803 q 554 889 617 889 q 508 868 526 889 q 490 811 490 847 q 496 759 490 785 q 516 702 501 733 q 556 633 531 671 q 621 543 582 594 q 761 361 700 439 q 765 356 764 358 q 771 365 768 361 q 801 449 792 408 q 797 517 813 496 q 728 549 781 538 q 717 594 719 574 q 714 640 714 615 q 753 638 731 639 q 798 637 775 638 q 843 636 821 636 l 883 636 q 956 637 918 636 q 1028 640 993 638 q 1026 595 1028 617 q 1017 549 1024 574 q 975 533 992 542 q 947 513 958 525 q 928 485 936 501 q 913 444 921 468 q 869 340 894 396 q 838 271 857 310 q 885 222 861 246 m 499 99 q 578 121 543 99 q 618 156 599 135 q 574 210 596 183 q 488 315 531 263 q 399 426 444 368 q 372 458 385 443 q 367 451 369 456 q 353 424 358 440 q 346 385 349 408 q 343 329 343 363 q 356 224 343 268 q 390 153 368 181 q 440 112 411 125 q 499 99 468 99 z "},"@":{"ha":1390,"x_min":110,"x_max":1278,"o":"m 638 649 q 719 644 682 649 q 801 632 756 642 q 911 635 864 632 q 996 649 964 639 q 1016 633 1008 642 q 1028 611 1024 625 q 1035 574 1033 597 q 1036 515 1036 551 l 1036 317 q 1038 226 1036 260 q 1045 174 1040 192 q 1058 150 1050 156 q 1076 144 1065 144 q 1103 159 1089 144 q 1129 207 1117 174 q 1149 294 1142 240 q 1157 428 1157 349 q 1134 576 1157 506 q 1060 699 1111 646 q 926 783 1008 751 q 726 814 844 814 q 515 776 606 814 q 363 671 424 738 q 272 515 303 604 q 242 325 242 426 q 269 137 242 226 q 357 -22 297 47 q 510 -131 417 -90 q 738 -172 604 -172 q 952 -137 851 -172 q 1126 -28 1053 -103 q 1167 -54 1150 -36 q 1194 -94 1183 -72 q 1111 -174 1161 -139 q 999 -232 1061 -208 q 866 -268 938 -256 q 719 -281 794 -281 q 446 -236 561 -281 q 256 -112 331 -192 q 145 78 181 -32 q 110 317 110 188 q 152 551 110 442 q 276 741 194 660 q 477 869 358 822 q 749 917 596 917 q 984 882 885 917 q 1149 788 1083 847 q 1246 646 1214 728 q 1278 471 1278 564 q 1252 271 1278 360 q 1179 119 1226 182 q 1064 22 1132 56 q 911 -12 996 -12 q 817 24 854 -12 q 779 124 779 60 l 779 128 q 774 119 776 124 q 681 22 736 57 q 551 -12 625 -12 q 395 63 444 -12 q 346 285 346 139 q 370 433 346 365 q 435 548 394 500 q 528 622 475 596 q 638 649 581 649 m 781 389 q 783 510 782 449 l 783 513 q 750 532 767 525 q 701 542 725 542 q 658 535 676 542 q 630 506 640 528 q 615 444 619 483 q 610 338 610 404 q 626 183 610 229 q 671 138 642 138 q 746 218 717 138 q 781 389 768 282 z "},"©":{"ha":1067,"x_min":49,"x_max":1013,"o":"m 142 319 q 172 167 142 238 q 253 44 201 96 q 377 -38 306 -8 q 531 -68 449 -68 q 684 -38 613 -68 q 808 44 756 -8 q 890 167 860 96 q 919 319 919 238 q 890 473 919 401 q 808 597 860 544 q 684 678 756 649 q 531 708 613 708 q 378 678 449 708 q 254 597 307 649 q 172 473 201 544 q 142 319 142 401 m 49 319 q 86 509 49 421 q 188 662 124 597 q 341 764 253 726 q 531 801 429 801 q 719 764 631 801 q 872 662 807 726 q 975 509 938 597 q 1013 319 1013 421 q 975 131 1013 218 q 872 -22 938 43 q 719 -125 807 -87 q 531 -162 631 -162 q 340 -126 428 -162 q 187 -24 251 -89 q 85 129 122 42 q 49 319 49 217 m 551 629 q 653 616 608 629 q 743 579 699 603 q 735 496 736 542 q 733 413 733 450 q 686 397 711 401 q 638 392 661 392 q 607 497 631 461 q 539 533 583 533 q 479 488 497 533 q 461 347 461 443 q 467 259 461 301 q 488 185 474 217 q 526 135 503 154 q 586 117 550 117 q 648 129 617 117 q 707 168 679 142 q 734 136 722 157 q 746 90 746 115 q 655 32 710 57 q 519 7 600 7 q 416 27 465 7 q 329 86 367 47 q 269 183 292 125 q 247 317 247 242 q 268 445 247 388 q 328 544 289 503 q 423 607 367 585 q 551 629 479 629 z "},"®":{"ha":793,"x_min":83,"x_max":710,"o":"m 83 638 q 108 761 83 704 q 174 860 132 818 q 274 927 217 903 q 396 951 331 951 q 520 927 463 951 q 620 860 578 903 q 686 761 663 818 q 710 638 710 704 q 686 514 710 571 q 620 415 663 457 q 520 349 578 372 q 396 325 463 325 q 274 349 331 325 q 174 415 217 372 q 108 514 132 457 q 83 638 83 571 m 164 638 q 182 547 164 589 q 231 473 200 504 q 305 424 263 442 q 396 406 347 406 q 489 424 446 406 q 563 473 532 442 q 612 547 594 504 q 629 638 629 589 q 612 730 629 688 q 563 803 594 772 q 489 853 532 835 q 396 871 446 871 q 305 853 347 871 q 231 803 263 835 q 182 730 200 772 q 164 638 164 688 m 490 642 q 464 628 478 633 q 481 608 474 618 q 496 581 489 596 q 519 547 507 557 q 547 533 531 536 q 547 515 547 524 q 543 500 546 507 q 500 498 528 500 q 453 493 472 496 q 422 559 438 532 q 386 611 406 586 q 378 613 383 613 l 378 588 q 382 547 378 556 q 400 533 386 538 q 403 517 403 526 q 404 497 404 507 q 368 499 389 499 l 310 499 q 274 497 297 499 q 274 513 274 504 q 278 533 275 522 q 296 545 292 536 q 300 588 300 554 l 300 711 q 296 736 300 731 q 276 743 292 742 q 272 783 272 760 l 415 783 q 502 763 476 783 q 528 707 528 743 q 517 669 528 685 q 490 642 507 653 m 397 744 q 378 740 386 744 l 378 650 q 424 660 408 651 q 439 693 439 669 q 430 730 439 715 q 397 744 421 744 z "},"ẞ":{"ha":1065,"x_min":42,"x_max":1021,"o":"m 422 -4 q 361 -1 400 -1 q 274 0 322 0 q 158 -1 218 0 q 42 -4 99 -1 q 46 53 42 21 q 56 104 50 85 q 101 113 83 106 q 128 136 118 119 q 141 183 138 153 q 144 261 144 213 l 144 574 q 176 758 144 686 q 265 872 208 831 q 398 931 321 914 q 565 947 475 947 q 655 943 608 947 q 768 939 701 939 q 843 940 808 939 q 922 947 878 942 q 943 891 933 928 q 953 826 953 854 q 865 667 915 747 q 789 557 829 610 q 938 493 881 538 q 1021 294 1021 428 q 675 -12 1021 -12 q 553 -1 604 -12 q 465 38 501 11 q 476 144 475 89 q 478 235 478 199 q 544 253 511 249 q 624 258 578 258 q 630 180 625 210 q 644 133 635 150 q 665 110 653 117 q 692 104 676 104 q 712 110 703 104 q 728 129 721 115 q 738 167 735 143 q 742 229 742 192 q 724 322 742 281 q 677 392 707 363 q 606 437 647 421 q 518 456 565 453 q 506 481 511 465 q 496 513 500 496 q 489 546 492 529 q 486 574 486 563 q 583 707 535 631 q 656 831 622 767 q 622 833 638 832 q 546 836 583 836 q 490 826 514 836 q 451 788 467 815 q 429 712 436 760 q 422 588 422 664 l 422 -4 z "},"ﬄ":{"ha":1656,"x_min":38,"x_max":1621,"o":"m 1518 225 q 1522 167 1518 190 q 1537 131 1526 144 q 1565 112 1547 118 q 1610 104 1582 106 q 1619 58 1617 85 q 1621 -4 1621 31 q 1583 -2 1608 -3 q 1526 -1 1558 -1 q 1458 0 1494 0 l 1314 0 q 1246 -1 1278 0 q 1189 -2 1214 -1 q 1151 -4 1164 -3 q 1154 58 1151 31 q 1164 104 1157 85 q 1209 112 1192 106 q 1237 131 1226 118 q 1251 167 1247 144 q 1254 225 1254 190 l 1254 758 q 1242 819 1254 793 q 1208 860 1229 844 q 1162 883 1188 875 q 1110 890 1136 890 q 1038 881 1071 890 q 983 851 1006 872 q 947 796 960 831 q 935 710 935 761 l 935 622 l 1097 622 q 1094 557 1097 589 q 1083 507 1092 525 q 1009 503 1043 507 q 935 485 975 499 l 935 274 q 939 198 935 229 q 955 147 943 167 q 988 117 967 128 q 1044 104 1010 107 q 1055 51 1053 81 q 1057 -4 1057 22 q 952 -1 1017 -1 q 821 0 888 0 q 681 -1 746 0 q 568 -4 617 -1 q 570 59 568 33 q 578 104 572 85 q 624 113 606 106 q 652 136 642 119 q 667 182 663 153 q 671 260 671 211 l 671 494 q 605 508 636 504 q 554 511 574 511 q 480 505 514 511 q 406 485 446 499 l 406 274 q 410 189 406 221 q 425 139 414 157 q 454 114 436 121 q 501 104 472 107 q 512 51 510 81 q 514 -4 514 22 q 416 -1 474 -1 q 292 0 358 0 q 152 -1 217 0 q 39 -4 88 -1 q 41 59 39 33 q 49 104 43 85 q 94 113 76 106 q 123 136 113 119 q 138 182 133 153 q 142 260 142 211 l 142 496 q 83 509 110 506 q 38 513 57 513 q 42 572 38 542 q 57 622 46 603 l 142 622 l 142 663 q 172 798 142 740 q 256 893 201 856 q 384 949 310 931 q 547 968 458 968 q 689 954 617 968 q 806 918 753 942 q 939 975 863 956 q 1119 996 1022 996 q 1238 982 1178 996 q 1325 954 1290 971 q 1367 963 1346 958 q 1469 996 1428 975 q 1506 964 1493 985 q 1518 907 1518 943 l 1518 225 m 671 622 l 671 663 q 692 781 671 728 q 642 838 672 818 q 542 867 597 867 q 439 831 472 867 q 406 706 406 796 l 406 622 l 671 622 z "},"ﬃ":{"ha":1624,"x_min":38,"x_max":1597,"o":"m 142 622 l 142 663 q 172 798 142 740 q 256 893 201 856 q 384 949 310 931 q 547 968 458 968 q 689 954 617 968 q 807 918 756 942 q 933 971 860 951 q 1138 996 1021 996 q 1256 991 1206 996 q 1344 978 1307 986 q 1408 962 1382 971 q 1453 944 1435 953 q 1439 852 1442 900 q 1436 756 1436 804 q 1332 727 1392 736 q 1206 718 1272 718 q 1194 800 1201 767 q 1173 853 1186 833 q 1138 882 1160 874 q 1081 890 1115 890 q 966 842 997 890 q 935 710 935 794 l 935 622 l 1153 622 q 1225 624 1186 622 q 1303 630 1264 626 q 1381 638 1343 633 q 1447 649 1418 643 q 1479 623 1464 642 q 1494 571 1494 604 l 1494 225 q 1499 165 1494 188 q 1515 128 1504 142 q 1544 110 1526 115 q 1585 104 1561 106 q 1595 55 1593 83 q 1597 -4 1597 26 q 1551 -2 1581 -3 q 1489 -1 1522 -1 q 1422 0 1456 0 l 1304 0 q 1240 -1 1272 0 q 1178 -2 1207 -1 q 1128 -4 1149 -3 q 1131 57 1128 29 q 1139 104 1135 85 q 1184 111 1167 106 q 1212 129 1201 117 q 1226 164 1222 142 q 1231 221 1231 186 l 1231 382 q 1226 431 1231 410 q 1207 465 1221 451 q 1167 485 1193 478 q 1097 494 1140 493 q 999 490 1044 494 q 935 478 954 485 l 935 274 q 939 193 935 224 q 953 144 943 163 q 983 117 964 125 q 1032 104 1003 108 q 1040 55 1039 83 q 1042 -4 1042 26 q 818 0 956 0 l 747 0 q 678 -1 711 0 q 615 -2 644 -1 q 568 -4 586 -3 q 569 54 568 28 q 578 104 571 81 q 624 112 606 106 q 652 135 642 118 q 667 180 663 151 q 671 254 671 208 l 671 494 q 605 508 636 504 q 554 511 574 511 q 480 505 514 511 q 406 485 446 499 l 406 274 q 410 189 406 221 q 425 139 414 157 q 454 114 436 121 q 501 104 472 107 q 512 51 510 81 q 514 -4 514 22 q 416 -1 474 -1 q 292 0 358 0 q 152 -1 217 0 q 39 -4 88 -1 q 41 59 39 33 q 49 104 43 85 q 94 113 76 106 q 123 136 113 119 q 138 182 133 153 q 142 260 142 211 l 142 496 q 83 509 110 506 q 38 513 57 513 q 42 572 38 542 q 57 622 46 603 l 142 622 m 671 667 q 692 781 671 728 q 642 836 672 817 q 533 864 596 864 q 474 858 499 864 q 435 834 450 851 q 413 786 419 817 q 406 706 406 756 l 406 622 l 671 622 l 671 667 z "},"¼":{"ha":1246,"x_min":43,"x_max":1204,"o":"m 140 761 q 138 806 140 789 q 124 833 135 824 q 94 848 114 843 q 43 856 75 853 q 45 901 43 876 q 54 946 47 926 q 186 972 125 954 q 297 1013 247 990 q 329 990 321 1006 q 338 939 338 975 l 338 600 q 340 547 338 567 q 351 515 343 526 q 375 500 360 504 q 415 493 390 496 q 423 448 422 478 q 424 386 424 418 q 377 388 403 388 q 324 390 351 389 q 269 390 296 390 l 221 390 q 130 389 174 390 q 51 386 86 388 q 53 440 51 414 q 61 493 56 467 q 103 500 88 496 q 128 514 119 504 q 138 542 136 524 q 140 593 140 561 l 140 761 m 324 -12 q 289 -10 307 -12 q 254 -2 271 -7 q 224 10 238 3 q 204 25 210 17 l 918 996 q 983 984 950 996 q 1035 956 1015 972 l 324 -12 m 1092 319 l 1144 319 q 1182 313 1169 319 q 1204 288 1194 306 q 1188 232 1194 269 q 1179 168 1182 194 l 1093 168 q 1096 150 1094 157 q 1108 120 1100 131 q 1131 106 1117 110 q 1164 103 1144 103 q 1172 50 1171 75 q 1172 -3 1172 25 q 1126 -1 1153 -1 q 1071 0 1099 0 l 890 0 q 841 -1 865 0 q 799 -3 817 -1 q 800 53 799 26 q 808 103 801 79 q 849 108 832 104 q 878 122 867 111 q 893 151 889 132 q 896 165 894 158 q 860 165 878 165 q 665 158 726 163 q 653 176 660 164 q 642 201 647 188 q 634 229 638 215 q 631 253 631 243 q 724 360 681 310 q 806 458 767 410 q 883 552 846 506 q 958 649 919 599 q 995 648 975 649 q 1034 646 1015 647 q 1069 642 1053 644 q 1092 636 1085 640 l 1092 319 m 899 319 l 899 443 l 804 319 l 899 319 z "},"½":{"ha":1353,"x_min":43,"x_max":1311,"o":"m 140 761 q 138 806 140 789 q 124 833 135 824 q 94 848 114 843 q 43 856 75 853 q 45 901 43 876 q 54 946 47 926 q 186 972 125 954 q 297 1013 247 990 q 329 990 321 1006 q 338 939 338 975 l 338 600 q 340 547 338 567 q 351 515 343 526 q 375 500 360 504 q 415 493 390 496 q 423 448 422 478 q 424 386 424 418 q 377 388 403 388 q 324 390 351 389 q 269 390 296 390 l 221 390 q 130 389 174 390 q 51 386 86 388 q 53 440 51 414 q 61 493 56 467 q 103 500 88 496 q 128 514 119 504 q 138 542 136 524 q 140 593 140 561 l 140 761 m 338 -12 q 303 -10 321 -12 q 268 -2 285 -7 q 238 10 251 3 q 218 25 224 17 l 932 996 q 997 984 964 996 q 1049 956 1029 972 l 338 -12 m 1065 624 q 1223 590 1164 624 q 1282 478 1282 557 q 1242 368 1282 418 q 1136 272 1203 318 q 1081 231 1104 250 q 1035 192 1058 213 l 1125 192 q 1182 201 1168 192 q 1199 244 1196 211 q 1255 243 1228 244 q 1301 235 1282 242 l 1301 179 q 1302 122 1301 150 q 1305 69 1303 93 q 1311 31 1307 44 q 1283 6 1301 14 q 1242 -1 1265 -1 l 1214 -1 q 1167 -1 1193 -1 q 1114 0 1140 0 l 1071 0 q 960 -1 1010 0 q 851 -1 911 -1 q 819 114 819 43 q 860 160 838 136 q 896 196 883 183 l 949 249 q 1035 358 1011 311 q 1060 449 1060 404 q 1017 538 1060 538 q 994 531 1006 538 q 974 509 983 525 q 957 465 964 493 q 947 394 950 438 q 881 398 906 394 q 826 414 857 401 q 838 495 835 453 q 840 579 842 538 q 935 613 881 603 q 1065 624 990 624 z "},"¾":{"ha":1206,"x_min":42,"x_max":1164,"o":"m 263 1006 q 368 1007 329 1006 q 428 1008 407 1008 q 440 981 435 1000 q 444 942 444 961 q 301 753 369 851 q 369 740 338 749 q 424 715 400 732 q 461 670 447 699 q 475 597 475 642 q 456 506 475 547 q 400 438 436 465 q 314 394 364 410 q 204 379 264 379 q 99 396 138 379 q 44 426 60 413 q 60 497 42 471 q 103 480 74 490 q 174 469 132 469 q 249 493 224 469 q 274 557 274 517 q 253 608 274 589 q 204 628 232 628 q 167 622 178 628 q 142 660 150 639 q 132 700 135 681 q 189 763 163 731 q 243 835 215 794 l 199 835 q 157 824 175 835 q 126 781 139 813 q 83 783 103 781 q 47 796 63 786 q 55 842 51 814 q 61 902 58 871 q 65 962 64 933 q 65 1008 65 990 q 144 1006 92 1007 q 263 1006 197 1006 m 288 -12 q 253 -10 271 -12 q 218 -2 235 -7 q 188 10 201 3 q 168 25 174 17 l 882 996 q 947 984 914 996 q 999 956 979 972 l 288 -12 m 1051 319 l 1104 319 q 1142 313 1129 319 q 1164 288 1154 306 q 1148 232 1154 269 q 1139 168 1142 194 l 1053 168 q 1056 150 1054 157 q 1068 120 1060 131 q 1090 106 1076 110 q 1124 103 1104 103 q 1131 50 1131 75 q 1132 -3 1132 25 q 1085 -1 1113 -1 q 1031 0 1058 0 l 850 0 q 801 -1 825 0 q 758 -3 776 -1 q 760 53 758 26 q 768 103 761 79 q 809 108 792 104 q 838 122 826 111 q 853 151 849 132 q 856 165 854 158 q 819 165 838 165 q 625 158 686 163 q 613 176 619 164 q 602 201 607 188 q 594 229 597 215 q 590 253 590 243 q 683 360 640 310 q 766 458 726 410 q 842 552 806 506 q 918 649 879 599 q 955 648 935 649 q 994 646 975 647 q 1028 642 1013 644 q 1051 636 1044 640 l 1051 319 m 858 319 l 858 443 l 764 319 l 858 319 z "},"¬":{"ha":771,"x_min":35,"x_max":714,"o":"m 604 378 q 369 376 483 378 q 35 372 211 376 q 39 433 35 399 q 51 494 43 467 l 714 494 l 714 174 q 664 153 686 160 q 604 146 642 146 l 604 378 z "},"­":{"ha":582,"x_min":83,"x_max":499,"o":"m 499 453 q 495 390 499 426 q 481 318 492 354 q 292 317 393 318 q 83 307 190 315 q 89 377 83 336 q 107 453 94 418 l 499 453 z "},"ª":{"ha":589,"x_min":42,"x_max":538,"o":"m 501 706 q 512 634 501 650 q 538 618 522 618 q 535 574 538 594 q 526 532 533 553 q 429 520 472 529 q 357 499 386 511 q 318 551 318 511 q 322 588 318 569 q 311 568 318 578 q 286 536 299 547 q 242 510 267 519 q 185 500 217 500 q 42 626 42 500 q 63 704 42 672 q 121 757 85 736 q 206 791 157 778 q 310 814 256 804 q 307 872 310 853 q 296 903 304 890 q 251 926 281 926 q 219 901 231 926 q 201 814 208 875 q 140 816 168 814 q 86 826 111 818 q 79 942 90 886 q 164 981 114 964 q 272 997 214 997 q 343 994 314 997 q 394 983 372 990 q 433 965 417 976 q 461 940 449 954 q 492 881 483 915 q 501 781 501 846 l 501 706 m 310 747 q 244 720 263 738 q 225 658 225 703 q 232 621 225 631 q 250 611 239 611 q 290 640 271 611 q 310 728 310 669 l 310 747 z "},"º":{"ha":629,"x_min":42,"x_max":582,"o":"m 242 776 q 247 701 242 738 q 262 638 251 665 q 288 595 272 611 q 325 579 303 579 q 366 619 351 579 q 381 717 381 660 q 355 869 381 821 q 300 917 329 917 q 256 876 271 917 q 242 776 242 835 m 42 735 q 63 852 42 803 q 122 933 85 901 q 208 981 158 965 q 315 996 258 996 q 433 978 383 996 q 517 928 483 960 q 566 851 550 896 q 582 754 582 807 q 509 562 582 628 q 306 496 436 496 q 106 560 171 496 q 42 735 42 624 z "},"ﬀ":{"ha":1126,"x_min":38,"x_max":1229,"o":"m 142 622 l 142 663 q 172 798 142 740 q 256 893 201 856 q 384 949 310 931 q 547 968 458 968 q 617 965 582 968 q 686 956 653 961 q 746 942 719 950 q 786 929 769 936 q 879 975 826 958 q 1019 996 943 996 q 1079 992 1049 996 q 1138 983 1110 989 q 1190 968 1167 976 q 1229 950 1214 960 q 1223 904 1225 929 q 1220 853 1221 879 q 1220 802 1219 826 q 1222 758 1221 778 q 1189 749 1210 753 q 1145 742 1168 744 q 1099 740 1122 740 q 1057 740 1076 739 q 1038 851 1057 811 q 990 890 1019 890 q 965 883 975 890 q 947 857 954 876 q 938 802 940 838 q 935 710 935 767 l 935 622 l 1097 622 q 1094 557 1097 589 q 1083 507 1092 525 q 1009 503 1043 507 q 935 485 975 499 l 935 274 q 942 198 935 229 q 967 147 949 167 q 1013 117 985 128 q 1086 104 1042 107 q 1097 51 1094 81 q 1099 -4 1099 22 q 1050 -2 1079 -3 q 987 -1 1021 -1 q 917 0 953 0 l 771 0 q 694 -1 732 0 q 624 -2 657 -1 q 568 -4 592 -3 q 570 59 568 33 q 578 104 572 85 q 624 113 606 106 q 652 136 642 119 q 667 182 663 153 q 671 260 671 211 l 671 494 q 605 508 636 504 q 554 511 574 511 q 480 505 514 511 q 406 485 446 499 l 406 274 q 410 189 406 221 q 425 139 414 157 q 454 114 436 121 q 501 104 472 107 q 512 51 510 81 q 514 -4 514 22 q 416 -1 474 -1 q 292 0 358 0 q 152 -1 217 0 q 39 -4 88 -1 q 41 59 39 33 q 49 104 43 85 q 94 113 76 106 q 123 136 113 119 q 138 182 133 153 q 142 260 142 211 l 142 496 q 83 509 110 506 q 38 513 57 513 q 42 572 38 542 q 57 622 46 603 l 142 622 m 671 622 l 671 663 q 688 786 671 732 q 642 836 669 818 q 533 864 596 864 q 474 858 499 864 q 435 834 450 851 q 413 786 419 817 q 406 706 406 756 l 406 622 l 671 622 z "}," ":{"ha":278,"x_min":0,"x_max":0,"o":""}}}
